<svg width="324" height="461" viewBox="0 0 324 461" fill="none" xmlns="http://www.w3.org/2000/svg">
<rect x="13.2188" y="14.1367" width="309.253" height="445.365" rx="41.5" stroke="#E1114C" stroke-width="3"/>
<circle cx="15.1747" cy="395.921" r="14.6747" fill="#E1114C" stroke="#E1114C"/>
<circle cx="262.573" cy="15.1747" r="14.6747" fill="#E1114C" stroke="#E1114C"/>
<g filter="url(#filter0_d_403_489)">
<rect x="47" y="60" width="241.875" height="354.076" rx="40" fill="white"/>
</g>
<circle cx="167.5" cy="105.5" r="27.5" fill="#E1114C"/>
<path d="M171.75 106C170.786 106 169.854 105.57 169.125 104.789C168.416 104.027 167.983 103.011 167.906 101.929C167.825 100.775 168.177 99.7141 168.897 98.9406C169.618 98.1672 170.625 97.75 171.75 97.75C172.867 97.75 173.877 98.1747 174.595 98.9462C175.32 99.7253 175.673 100.785 175.592 101.929C175.514 103.012 175.081 104.027 174.373 104.788C173.646 105.57 172.714 106 171.75 106ZM177.929 114.25H165.571C165.372 114.251 165.176 114.207 164.997 114.12C164.818 114.033 164.662 113.907 164.54 113.75C164.41 113.58 164.321 113.383 164.278 113.174C164.235 112.964 164.24 112.748 164.293 112.541C164.688 110.956 165.666 109.642 167.121 108.74C168.412 107.941 170.056 107.5 171.75 107.5C173.477 107.5 175.078 107.922 176.377 108.721C177.835 109.618 178.814 110.94 179.207 112.544C179.259 112.751 179.264 112.967 179.221 113.176C179.178 113.386 179.088 113.583 178.958 113.752C178.836 113.908 178.68 114.034 178.501 114.12C178.323 114.207 178.128 114.251 177.929 114.25ZM162.891 106.188C161.241 106.188 159.791 104.654 159.656 102.769C159.59 101.803 159.891 100.91 160.5 100.255C161.103 99.6072 161.953 99.25 162.891 99.25C163.828 99.25 164.672 99.6091 165.278 100.261C165.892 100.921 166.192 101.812 166.122 102.77C165.987 104.654 164.537 106.188 162.891 106.188ZM165.968 107.662C165.144 107.259 164.074 107.057 162.891 107.057C161.51 107.057 160.169 107.417 159.114 108.07C157.919 108.813 157.114 109.893 156.789 111.198C156.742 111.385 156.737 111.581 156.776 111.771C156.815 111.96 156.896 112.139 157.014 112.292C157.125 112.436 157.268 112.551 157.432 112.631C157.595 112.71 157.774 112.751 157.956 112.75H163.159C163.247 112.75 163.332 112.719 163.399 112.663C163.466 112.607 163.512 112.528 163.528 112.442C163.533 112.412 163.539 112.383 163.547 112.354C163.944 110.757 164.876 109.408 166.252 108.425C166.303 108.388 166.343 108.34 166.37 108.284C166.398 108.227 166.41 108.165 166.407 108.103C166.404 108.041 166.386 107.98 166.354 107.927C166.321 107.873 166.276 107.829 166.222 107.797C166.149 107.754 166.064 107.709 165.968 107.662Z" fill="white"/>
<defs>
<filter id="filter0_d_403_489" x="43" y="60" width="249.875" height="362.076" filterUnits="userSpaceOnUse" color-interpolation-filters="sRGB">
<feFlood flood-opacity="0" result="BackgroundImageFix"/>
<feColorMatrix in="SourceAlpha" type="matrix" values="0 0 0 0 0 0 0 0 0 0 0 0 0 0 0 0 0 0 127 0" result="hardAlpha"/>
<feOffset dy="4"/>
<feGaussianBlur stdDeviation="2"/>
<feComposite in2="hardAlpha" operator="out"/>
<feColorMatrix type="matrix" values="0 0 0 0 0 0 0 0 0 0 0 0 0 0 0 0 0 0 0.25 0"/>
<feBlend mode="normal" in2="BackgroundImageFix" result="effect1_dropShadow_403_489"/>
<feBlend mode="normal" in="SourceGraphic" in2="effect1_dropShadow_403_489" result="shape"/>
</filter>
</defs>
</svg>
