<svg width="324" height="461" viewBox="0 0 324 461" fill="none" xmlns="http://www.w3.org/2000/svg">
<rect x="13.2188" y="14.1367" width="309.253" height="445.365" rx="41.5" stroke="#E1114C" stroke-width="3"/>
<circle cx="15.1747" cy="395.921" r="14.6747" fill="#E1114C" stroke="#E1114C"/>
<circle cx="262.573" cy="15.1747" r="14.6747" fill="#E1114C" stroke="#E1114C"/>
<g filter="url(#filter0_d_403_490)">
<rect x="47" y="60" width="241.875" height="354.076" rx="40" fill="white"/>
</g>
<circle cx="167.5" cy="105.5" r="27.5" fill="#E1114C"/>
<path d="M169 112V114H173V116H163V114H167V112H158.992C158.861 111.999 158.731 111.972 158.61 111.921C158.489 111.87 158.379 111.795 158.287 111.701C158.195 111.608 158.122 111.497 158.073 111.375C158.024 111.254 157.999 111.123 158 110.992V98.008C158 97.451 158.455 97 158.992 97H177.008C177.556 97 178 97.449 178 98.007V110.992C178 111.549 177.545 112 177.008 112H169Z" fill="white"/>
<g clip-path="url(#clip0_403_490)">
<path fill-rule="evenodd" clip-rule="evenodd" d="M168.962 102.36C168.835 102.36 168.713 102.411 168.623 102.501C168.533 102.591 168.482 102.713 168.482 102.84V106.68C168.482 106.807 168.533 106.929 168.623 107.019C168.713 107.109 168.835 107.16 168.962 107.16H170.882C171.009 107.16 171.132 107.109 171.222 107.019C171.312 106.929 171.362 106.807 171.362 106.68V102.84C171.362 102.713 171.312 102.591 171.222 102.501C171.132 102.411 171.009 102.36 170.882 102.36H168.962ZM170.402 103.32H169.442V106.2H170.402V103.32Z" fill="#E1114C"/>
<path d="M165.122 102.36C164.995 102.36 164.873 102.411 164.783 102.501C164.693 102.591 164.642 102.713 164.642 102.84C164.642 102.967 164.693 103.089 164.783 103.179C164.873 103.269 164.995 103.32 165.122 103.32H167.042C167.169 103.32 167.291 103.269 167.382 103.179C167.472 103.089 167.522 102.967 167.522 102.84C167.522 102.713 167.472 102.591 167.382 102.501C167.291 102.411 167.169 102.36 167.042 102.36H165.122ZM165.122 104.28C164.995 104.28 164.873 104.331 164.783 104.421C164.693 104.511 164.642 104.633 164.642 104.76C164.642 104.887 164.693 105.009 164.783 105.099C164.873 105.189 164.995 105.24 165.122 105.24H167.042C167.169 105.24 167.291 105.189 167.382 105.099C167.472 105.009 167.522 104.887 167.522 104.76C167.522 104.633 167.472 104.511 167.382 104.421C167.291 104.331 167.169 104.28 167.042 104.28H165.122ZM164.642 106.68C164.642 106.553 164.693 106.431 164.783 106.341C164.873 106.251 164.995 106.2 165.122 106.2H167.042C167.169 106.2 167.291 106.251 167.382 106.341C167.472 106.431 167.522 106.553 167.522 106.68C167.522 106.807 167.472 106.929 167.382 107.019C167.291 107.109 167.169 107.16 167.042 107.16H165.122C164.995 107.16 164.873 107.109 164.783 107.019C164.693 106.929 164.642 106.807 164.642 106.68Z" fill="#E1114C"/>
<path fill-rule="evenodd" clip-rule="evenodd" d="M164.162 100.44C163.78 100.44 163.414 100.592 163.144 100.862C162.874 101.132 162.722 101.498 162.722 101.88V107.64C162.722 108.022 162.874 108.388 163.144 108.658C163.414 108.928 163.78 109.08 164.162 109.08H171.842C172.224 109.08 172.59 108.928 172.86 108.658C173.13 108.388 173.282 108.022 173.282 107.64V101.88C173.282 101.498 173.13 101.132 172.86 100.862C172.59 100.592 172.224 100.44 171.842 100.44H164.162ZM171.842 101.4H164.162C164.035 101.4 163.913 101.451 163.823 101.541C163.733 101.631 163.682 101.753 163.682 101.88V107.64C163.682 107.767 163.733 107.889 163.823 107.979C163.913 108.069 164.035 108.12 164.162 108.12H171.842C171.969 108.12 172.092 108.069 172.182 107.979C172.272 107.889 172.322 107.767 172.322 107.64V101.88C172.322 101.753 172.272 101.631 172.182 101.541C172.092 101.451 171.969 101.4 171.842 101.4Z" fill="#E1114C"/>
</g>
<defs>
<filter id="filter0_d_403_490" x="43" y="60" width="249.875" height="362.076" filterUnits="userSpaceOnUse" color-interpolation-filters="sRGB">
<feFlood flood-opacity="0" result="BackgroundImageFix"/>
<feColorMatrix in="SourceAlpha" type="matrix" values="0 0 0 0 0 0 0 0 0 0 0 0 0 0 0 0 0 0 127 0" result="hardAlpha"/>
<feOffset dy="4"/>
<feGaussianBlur stdDeviation="2"/>
<feComposite in2="hardAlpha" operator="out"/>
<feColorMatrix type="matrix" values="0 0 0 0 0 0 0 0 0 0 0 0 0 0 0 0 0 0 0.25 0"/>
<feBlend mode="normal" in2="BackgroundImageFix" result="effect1_dropShadow_403_490"/>
<feBlend mode="normal" in="SourceGraphic" in2="effect1_dropShadow_403_490" result="shape"/>
</filter>
<clipPath id="clip0_403_490">
<rect width="11.52" height="11.52" fill="white" transform="translate(162.242 99)"/>
</clipPath>
</defs>
</svg>
