<svg width="637" height="122" viewBox="0 0 637 122" fill="none" xmlns="http://www.w3.org/2000/svg">
<rect width="637" height="122" rx="5" fill="#F5F5F5"/>
<path d="M263.384 71.49V79.464C263.384 80.412 263.63 81.126 264.122 81.606C264.626 82.086 265.322 82.326 266.21 82.326C267.11 82.326 267.806 82.086 268.298 81.606C268.802 81.126 269.054 80.412 269.054 79.464V71.49H271.106V79.428C271.106 80.448 270.884 81.312 270.44 82.02C269.996 82.728 269.402 83.256 268.658 83.604C267.914 83.952 267.092 84.126 266.192 84.126C265.292 84.126 264.47 83.952 263.726 83.604C262.994 83.256 262.412 82.728 261.98 82.02C261.548 81.312 261.332 80.448 261.332 79.428V71.49H263.384ZM275.83 75.54C276.178 75.084 276.652 74.7 277.252 74.388C277.852 74.076 278.53 73.92 279.286 73.92C280.15 73.92 280.936 74.136 281.644 74.568C282.364 74.988 282.928 75.582 283.336 76.35C283.744 77.118 283.948 78 283.948 78.996C283.948 79.992 283.744 80.886 283.336 81.678C282.928 82.458 282.364 83.07 281.644 83.514C280.936 83.946 280.15 84.162 279.286 84.162C278.53 84.162 277.858 84.012 277.27 83.712C276.682 83.4 276.202 83.016 275.83 82.56V88.716H273.778V74.082H275.83V75.54ZM281.86 78.996C281.86 78.312 281.716 77.724 281.428 77.232C281.152 76.728 280.78 76.35 280.312 76.098C279.856 75.834 279.364 75.702 278.836 75.702C278.32 75.702 277.828 75.834 277.36 76.098C276.904 76.362 276.532 76.746 276.244 77.25C275.968 77.754 275.83 78.348 275.83 79.032C275.83 79.716 275.968 80.316 276.244 80.832C276.532 81.336 276.904 81.72 277.36 81.984C277.828 82.248 278.32 82.38 278.836 82.38C279.364 82.38 279.856 82.248 280.312 81.984C280.78 81.708 281.152 81.312 281.428 80.796C281.716 80.28 281.86 79.68 281.86 78.996ZM288.029 70.68V84H285.977V70.68H288.029ZM295.025 84.162C294.089 84.162 293.243 83.952 292.487 83.532C291.731 83.1 291.137 82.5 290.705 81.732C290.273 80.952 290.057 80.052 290.057 79.032C290.057 78.024 290.279 77.13 290.723 76.35C291.167 75.57 291.773 74.97 292.541 74.55C293.309 74.13 294.167 73.92 295.115 73.92C296.063 73.92 296.921 74.13 297.689 74.55C298.457 74.97 299.063 75.57 299.507 76.35C299.951 77.13 300.173 78.024 300.173 79.032C300.173 80.04 299.945 80.934 299.489 81.714C299.033 82.494 298.409 83.1 297.617 83.532C296.837 83.952 295.973 84.162 295.025 84.162ZM295.025 82.38C295.553 82.38 296.045 82.254 296.501 82.002C296.969 81.75 297.347 81.372 297.635 80.868C297.923 80.364 298.067 79.752 298.067 79.032C298.067 78.312 297.929 77.706 297.653 77.214C297.377 76.71 297.011 76.332 296.555 76.08C296.099 75.828 295.607 75.702 295.079 75.702C294.551 75.702 294.059 75.828 293.603 76.08C293.159 76.332 292.805 76.71 292.541 77.214C292.277 77.706 292.145 78.312 292.145 79.032C292.145 80.1 292.415 80.928 292.955 81.516C293.507 82.092 294.197 82.38 295.025 82.38ZM301.518 78.996C301.518 78 301.722 77.118 302.13 76.35C302.55 75.582 303.114 74.988 303.822 74.568C304.542 74.136 305.334 73.92 306.198 73.92C306.978 73.92 307.656 74.076 308.232 74.388C308.82 74.688 309.288 75.066 309.636 75.522V74.082H311.706V84H309.636V82.524C309.288 82.992 308.814 83.382 308.214 83.694C307.614 84.006 306.93 84.162 306.162 84.162C305.31 84.162 304.53 83.946 303.822 83.514C303.114 83.07 302.55 82.458 302.13 81.678C301.722 80.886 301.518 79.992 301.518 78.996ZM309.636 79.032C309.636 78.348 309.492 77.754 309.204 77.25C308.928 76.746 308.562 76.362 308.106 76.098C307.65 75.834 307.158 75.702 306.63 75.702C306.102 75.702 305.61 75.834 305.154 76.098C304.698 76.35 304.326 76.728 304.038 77.232C303.762 77.724 303.624 78.312 303.624 78.996C303.624 79.68 303.762 80.28 304.038 80.796C304.326 81.312 304.698 81.708 305.154 81.984C305.622 82.248 306.114 82.38 306.63 82.38C307.158 82.38 307.65 82.248 308.106 81.984C308.562 81.72 308.928 81.336 309.204 80.832C309.492 80.316 309.636 79.716 309.636 79.032ZM313.717 78.996C313.717 78 313.921 77.118 314.329 76.35C314.749 75.582 315.313 74.988 316.021 74.568C316.741 74.136 317.539 73.92 318.415 73.92C319.063 73.92 319.699 74.064 320.323 74.352C320.959 74.628 321.463 75 321.835 75.468V70.68H323.905V84H321.835V82.506C321.499 82.986 321.031 83.382 320.431 83.694C319.843 84.006 319.165 84.162 318.397 84.162C317.533 84.162 316.741 83.946 316.021 83.514C315.313 83.07 314.749 82.458 314.329 81.678C313.921 80.886 313.717 79.992 313.717 78.996ZM321.835 79.032C321.835 78.348 321.691 77.754 321.403 77.25C321.127 76.746 320.761 76.362 320.305 76.098C319.849 75.834 319.357 75.702 318.829 75.702C318.301 75.702 317.809 75.834 317.353 76.098C316.897 76.35 316.525 76.728 316.237 77.232C315.961 77.724 315.823 78.312 315.823 78.996C315.823 79.68 315.961 80.28 316.237 80.796C316.525 81.312 316.897 81.708 317.353 81.984C317.821 82.248 318.313 82.38 318.829 82.38C319.357 82.38 319.849 82.248 320.305 81.984C320.761 81.72 321.127 81.336 321.403 80.832C321.691 80.316 321.835 79.716 321.835 79.032ZM330.592 78.996C330.592 78 330.796 77.118 331.204 76.35C331.624 75.582 332.188 74.988 332.896 74.568C333.616 74.136 334.408 73.92 335.272 73.92C336.052 73.92 336.73 74.076 337.306 74.388C337.894 74.688 338.362 75.066 338.71 75.522V74.082H340.78V84H338.71V82.524C338.362 82.992 337.888 83.382 337.288 83.694C336.688 84.006 336.004 84.162 335.236 84.162C334.384 84.162 333.604 83.946 332.896 83.514C332.188 83.07 331.624 82.458 331.204 81.678C330.796 80.886 330.592 79.992 330.592 78.996ZM338.71 79.032C338.71 78.348 338.566 77.754 338.278 77.25C338.002 76.746 337.636 76.362 337.18 76.098C336.724 75.834 336.232 75.702 335.704 75.702C335.176 75.702 334.684 75.834 334.228 76.098C333.772 76.35 333.4 76.728 333.112 77.232C332.836 77.724 332.698 78.312 332.698 78.996C332.698 79.68 332.836 80.28 333.112 80.796C333.4 81.312 333.772 81.708 334.228 81.984C334.696 82.248 335.188 82.38 335.704 82.38C336.232 82.38 336.724 82.248 337.18 81.984C337.636 81.72 338.002 81.336 338.278 80.832C338.566 80.316 338.71 79.716 338.71 79.032ZM355.513 71.49V73.164H350.203V76.854H354.343V78.528H350.203V84H348.151V71.49H355.513ZM358.458 72.768C358.086 72.768 357.774 72.642 357.522 72.39C357.27 72.138 357.144 71.826 357.144 71.454C357.144 71.082 357.27 70.77 357.522 70.518C357.774 70.266 358.086 70.14 358.458 70.14C358.818 70.14 359.124 70.266 359.376 70.518C359.628 70.77 359.754 71.082 359.754 71.454C359.754 71.826 359.628 72.138 359.376 72.39C359.124 72.642 358.818 72.768 358.458 72.768ZM359.466 74.082V84H357.414V74.082H359.466ZM364.213 70.68V84H362.161V70.68H364.213ZM375.997 78.798C375.997 79.17 375.973 79.506 375.925 79.806H368.347C368.407 80.598 368.701 81.234 369.229 81.714C369.757 82.194 370.405 82.434 371.173 82.434C372.277 82.434 373.057 81.972 373.513 81.048H375.727C375.427 81.96 374.881 82.71 374.089 83.298C373.309 83.874 372.337 84.162 371.173 84.162C370.225 84.162 369.373 83.952 368.617 83.532C367.873 83.1 367.285 82.5 366.853 81.732C366.433 80.952 366.223 80.052 366.223 79.032C366.223 78.012 366.427 77.118 366.835 76.35C367.255 75.57 367.837 74.97 368.581 74.55C369.337 74.13 370.201 73.92 371.173 73.92C372.109 73.92 372.943 74.124 373.675 74.532C374.407 74.94 374.977 75.516 375.385 76.26C375.793 76.992 375.997 77.838 375.997 78.798ZM373.855 78.15C373.843 77.394 373.573 76.788 373.045 76.332C372.517 75.876 371.863 75.648 371.083 75.648C370.375 75.648 369.769 75.876 369.265 76.332C368.761 76.776 368.461 77.382 368.365 78.15H373.855Z" fill="#848484"/>
<path d="M227.624 95.66C228.512 95.66 229.288 95.832 229.952 96.176C230.624 96.512 231.14 97 231.5 97.64C231.868 98.272 232.052 99.012 232.052 99.86C232.052 100.708 231.868 101.444 231.5 102.068C231.14 102.692 230.624 103.172 229.952 103.508C229.288 103.836 228.512 104 227.624 104H224.9V95.66H227.624ZM227.624 102.884C228.6 102.884 229.348 102.62 229.868 102.092C230.388 101.564 230.648 100.82 230.648 99.86C230.648 98.892 230.388 98.136 229.868 97.592C229.348 97.048 228.6 96.776 227.624 96.776H226.268V102.884H227.624ZM234.776 98.348C234.976 98.012 235.24 97.752 235.568 97.568C235.904 97.376 236.3 97.28 236.756 97.28V98.696H236.408C235.872 98.696 235.464 98.832 235.184 99.104C234.912 99.376 234.776 99.848 234.776 100.52V104H233.408V97.388H234.776V98.348ZM237.557 100.664C237.557 100 237.693 99.412 237.965 98.9C238.245 98.388 238.621 97.992 239.093 97.712C239.573 97.424 240.101 97.28 240.677 97.28C241.197 97.28 241.649 97.384 242.033 97.592C242.425 97.792 242.737 98.044 242.969 98.348V97.388H244.349V104H242.969V103.016C242.737 103.328 242.421 103.588 242.021 103.796C241.621 104.004 241.165 104.108 240.653 104.108C240.085 104.108 239.565 103.964 239.093 103.676C238.621 103.38 238.245 102.972 237.965 102.452C237.693 101.924 237.557 101.328 237.557 100.664ZM242.969 100.688C242.969 100.232 242.873 99.836 242.681 99.5C242.497 99.164 242.253 98.908 241.949 98.732C241.645 98.556 241.317 98.468 240.965 98.468C240.613 98.468 240.285 98.556 239.981 98.732C239.677 98.9 239.429 99.152 239.237 99.488C239.053 99.816 238.961 100.208 238.961 100.664C238.961 101.12 239.053 101.52 239.237 101.864C239.429 102.208 239.677 102.472 239.981 102.656C240.293 102.832 240.621 102.92 240.965 102.92C241.317 102.92 241.645 102.832 241.949 102.656C242.253 102.48 242.497 102.224 242.681 101.888C242.873 101.544 242.969 101.144 242.969 100.688ZM248.81 97.28C249.322 97.28 249.774 97.384 250.166 97.592C250.566 97.792 250.878 98.044 251.102 98.348V97.388H252.482V104.108C252.482 104.716 252.354 105.256 252.098 105.728C251.842 106.208 251.47 106.584 250.982 106.856C250.502 107.128 249.926 107.264 249.254 107.264C248.358 107.264 247.614 107.052 247.022 106.628C246.43 106.212 246.094 105.644 246.014 104.924H247.37C247.474 105.268 247.694 105.544 248.03 105.752C248.374 105.968 248.782 106.076 249.254 106.076C249.806 106.076 250.25 105.908 250.586 105.572C250.93 105.236 251.102 104.748 251.102 104.108V103.004C250.87 103.316 250.554 103.58 250.154 103.796C249.762 104.004 249.314 104.108 248.81 104.108C248.234 104.108 247.706 103.964 247.226 103.676C246.754 103.38 246.378 102.972 246.098 102.452C245.826 101.924 245.69 101.328 245.69 100.664C245.69 100 245.826 99.412 246.098 98.9C246.378 98.388 246.754 97.992 247.226 97.712C247.706 97.424 248.234 97.28 248.81 97.28ZM251.102 100.688C251.102 100.232 251.006 99.836 250.814 99.5C250.63 99.164 250.386 98.908 250.082 98.732C249.778 98.556 249.45 98.468 249.098 98.468C248.746 98.468 248.418 98.556 248.114 98.732C247.81 98.9 247.562 99.152 247.37 99.488C247.186 99.816 247.094 100.208 247.094 100.664C247.094 101.12 247.186 101.52 247.37 101.864C247.562 102.208 247.81 102.472 248.114 102.656C248.426 102.832 248.754 102.92 249.098 102.92C249.45 102.92 249.778 102.832 250.082 102.656C250.386 102.48 250.63 102.224 250.814 101.888C251.006 101.544 251.102 101.144 251.102 100.688ZM256.94 100.664C256.94 100 257.076 99.412 257.348 98.9C257.628 98.388 258.004 97.992 258.476 97.712C258.956 97.424 259.484 97.28 260.06 97.28C260.58 97.28 261.032 97.384 261.416 97.592C261.808 97.792 262.12 98.044 262.352 98.348V97.388H263.732V104H262.352V103.016C262.12 103.328 261.804 103.588 261.404 103.796C261.004 104.004 260.548 104.108 260.036 104.108C259.468 104.108 258.948 103.964 258.476 103.676C258.004 103.38 257.628 102.972 257.348 102.452C257.076 101.924 256.94 101.328 256.94 100.664ZM262.352 100.688C262.352 100.232 262.256 99.836 262.064 99.5C261.88 99.164 261.636 98.908 261.332 98.732C261.028 98.556 260.7 98.468 260.348 98.468C259.996 98.468 259.668 98.556 259.364 98.732C259.06 98.9 258.812 99.152 258.62 99.488C258.436 99.816 258.344 100.208 258.344 100.664C258.344 101.12 258.436 101.52 258.62 101.864C258.812 102.208 259.06 102.472 259.364 102.656C259.676 102.832 260.004 102.92 260.348 102.92C260.7 102.92 261.028 102.832 261.332 102.656C261.636 102.48 261.88 102.224 262.064 101.888C262.256 101.544 262.352 101.144 262.352 100.688ZM268.865 97.28C269.385 97.28 269.849 97.388 270.257 97.604C270.673 97.82 270.997 98.14 271.229 98.564C271.461 98.988 271.577 99.5 271.577 100.1V104H270.221V100.304C270.221 99.712 270.073 99.26 269.777 98.948C269.481 98.628 269.077 98.468 268.565 98.468C268.053 98.468 267.645 98.628 267.341 98.948C267.045 99.26 266.897 99.712 266.897 100.304V104H265.529V97.388H266.897V98.144C267.121 97.872 267.405 97.66 267.749 97.508C268.101 97.356 268.473 97.28 268.865 97.28ZM272.866 100.664C272.866 100 273.002 99.412 273.274 98.9C273.554 98.388 273.93 97.992 274.402 97.712C274.882 97.424 275.414 97.28 275.998 97.28C276.43 97.28 276.854 97.376 277.27 97.568C277.694 97.752 278.03 98 278.278 98.312V95.12H279.658V104H278.278V103.004C278.054 103.324 277.742 103.588 277.342 103.796C276.95 104.004 276.498 104.108 275.986 104.108C275.41 104.108 274.882 103.964 274.402 103.676C273.93 103.38 273.554 102.972 273.274 102.452C273.002 101.924 272.866 101.328 272.866 100.664ZM278.278 100.688C278.278 100.232 278.182 99.836 277.99 99.5C277.806 99.164 277.562 98.908 277.258 98.732C276.954 98.556 276.626 98.468 276.274 98.468C275.922 98.468 275.594 98.556 275.29 98.732C274.986 98.9 274.738 99.152 274.546 99.488C274.362 99.816 274.27 100.208 274.27 100.664C274.27 101.12 274.362 101.52 274.546 101.864C274.738 102.208 274.986 102.472 275.29 102.656C275.602 102.832 275.93 102.92 276.274 102.92C276.626 102.92 276.954 102.832 277.258 102.656C277.562 102.48 277.806 102.224 277.99 101.888C278.182 101.544 278.278 101.144 278.278 100.688ZM284.116 100.664C284.116 100 284.252 99.412 284.524 98.9C284.804 98.388 285.18 97.992 285.652 97.712C286.132 97.424 286.664 97.28 287.248 97.28C287.68 97.28 288.104 97.376 288.52 97.568C288.944 97.752 289.28 98 289.528 98.312V95.12H290.908V104H289.528V103.004C289.304 103.324 288.992 103.588 288.592 103.796C288.2 104.004 287.748 104.108 287.236 104.108C286.66 104.108 286.132 103.964 285.652 103.676C285.18 103.38 284.804 102.972 284.524 102.452C284.252 101.924 284.116 101.328 284.116 100.664ZM289.528 100.688C289.528 100.232 289.432 99.836 289.24 99.5C289.056 99.164 288.812 98.908 288.508 98.732C288.204 98.556 287.876 98.468 287.524 98.468C287.172 98.468 286.844 98.556 286.54 98.732C286.236 98.9 285.988 99.152 285.796 99.488C285.612 99.816 285.52 100.208 285.52 100.664C285.52 101.12 285.612 101.52 285.796 101.864C285.988 102.208 286.236 102.472 286.54 102.656C286.852 102.832 287.18 102.92 287.524 102.92C287.876 102.92 288.204 102.832 288.508 102.656C288.812 102.48 289.056 102.224 289.24 101.888C289.432 101.544 289.528 101.144 289.528 100.688ZM294.073 98.348C294.273 98.012 294.537 97.752 294.865 97.568C295.201 97.376 295.597 97.28 296.053 97.28V98.696H295.705C295.169 98.696 294.761 98.832 294.481 99.104C294.209 99.376 294.073 99.848 294.073 100.52V104H292.705V97.388H294.073V98.348ZM300.178 104.108C299.554 104.108 298.99 103.968 298.486 103.688C297.982 103.4 297.586 103 297.298 102.488C297.01 101.968 296.866 101.368 296.866 100.688C296.866 100.016 297.014 99.42 297.31 98.9C297.606 98.38 298.01 97.98 298.522 97.7C299.034 97.42 299.606 97.28 300.238 97.28C300.87 97.28 301.442 97.42 301.954 97.7C302.466 97.98 302.87 98.38 303.166 98.9C303.462 99.42 303.61 100.016 303.61 100.688C303.61 101.36 303.458 101.956 303.154 102.476C302.85 102.996 302.434 103.4 301.906 103.688C301.386 103.968 300.81 104.108 300.178 104.108ZM300.178 102.92C300.53 102.92 300.858 102.836 301.162 102.668C301.474 102.5 301.726 102.248 301.918 101.912C302.11 101.576 302.206 101.168 302.206 100.688C302.206 100.208 302.114 99.804 301.93 99.476C301.746 99.14 301.502 98.888 301.198 98.72C300.894 98.552 300.566 98.468 300.214 98.468C299.862 98.468 299.534 98.552 299.23 98.72C298.934 98.888 298.698 99.14 298.522 99.476C298.346 99.804 298.258 100.208 298.258 100.688C298.258 101.4 298.438 101.952 298.798 102.344C299.166 102.728 299.626 102.92 300.178 102.92ZM306.331 98.36C306.563 98.056 306.879 97.8 307.279 97.592C307.679 97.384 308.131 97.28 308.635 97.28C309.211 97.28 309.735 97.424 310.207 97.712C310.687 97.992 311.063 98.388 311.335 98.9C311.607 99.412 311.743 100 311.743 100.664C311.743 101.328 311.607 101.924 311.335 102.452C311.063 102.972 310.687 103.38 310.207 103.676C309.735 103.964 309.211 104.108 308.635 104.108C308.131 104.108 307.683 104.008 307.291 103.808C306.899 103.6 306.579 103.344 306.331 103.04V107.144H304.963V97.388H306.331V98.36ZM310.351 100.664C310.351 100.208 310.255 99.816 310.062 99.488C309.879 99.152 309.631 98.9 309.319 98.732C309.015 98.556 308.687 98.468 308.335 98.468C307.991 98.468 307.663 98.556 307.351 98.732C307.047 98.908 306.799 99.164 306.607 99.5C306.423 99.836 306.331 100.232 306.331 100.688C306.331 101.144 306.423 101.544 306.607 101.888C306.799 102.224 307.047 102.48 307.351 102.656C307.663 102.832 307.991 102.92 308.335 102.92C308.687 102.92 309.015 102.832 309.319 102.656C309.631 102.472 309.879 102.208 310.062 101.864C310.255 101.52 310.351 101.12 310.351 100.664ZM322.165 97.388L318.109 107.108H316.693L318.037 103.892L315.433 97.388H316.957L318.817 102.428L320.749 97.388H322.165ZM326.065 104.108C325.441 104.108 324.877 103.968 324.373 103.688C323.869 103.4 323.473 103 323.185 102.488C322.897 101.968 322.753 101.368 322.753 100.688C322.753 100.016 322.901 99.42 323.197 98.9C323.493 98.38 323.897 97.98 324.409 97.7C324.921 97.42 325.493 97.28 326.125 97.28C326.757 97.28 327.329 97.42 327.841 97.7C328.353 97.98 328.757 98.38 329.053 98.9C329.349 99.42 329.497 100.016 329.497 100.688C329.497 101.36 329.345 101.956 329.041 102.476C328.737 102.996 328.321 103.4 327.793 103.688C327.273 103.968 326.697 104.108 326.065 104.108ZM326.065 102.92C326.417 102.92 326.745 102.836 327.049 102.668C327.361 102.5 327.613 102.248 327.805 101.912C327.997 101.576 328.093 101.168 328.093 100.688C328.093 100.208 328.001 99.804 327.817 99.476C327.633 99.14 327.389 98.888 327.085 98.72C326.781 98.552 326.453 98.468 326.101 98.468C325.749 98.468 325.421 98.552 325.117 98.72C324.821 98.888 324.585 99.14 324.409 99.476C324.233 99.804 324.145 100.208 324.145 100.688C324.145 101.4 324.325 101.952 324.685 102.344C325.053 102.728 325.513 102.92 326.065 102.92ZM336.837 97.388V104H335.469V103.22C335.253 103.492 334.969 103.708 334.617 103.868C334.273 104.02 333.905 104.096 333.513 104.096C332.993 104.096 332.525 103.988 332.109 103.772C331.701 103.556 331.377 103.236 331.137 102.812C330.905 102.388 330.789 101.876 330.789 101.276V97.388H332.145V101.072C332.145 101.664 332.293 102.12 332.589 102.44C332.885 102.752 333.289 102.908 333.801 102.908C334.313 102.908 334.717 102.752 335.013 102.44C335.317 102.12 335.469 101.664 335.469 101.072V97.388H336.837ZM341.303 100.664C341.303 100 341.439 99.412 341.711 98.9C341.991 98.388 342.367 97.992 342.839 97.712C343.319 97.424 343.847 97.28 344.423 97.28C344.943 97.28 345.395 97.384 345.779 97.592C346.171 97.792 346.483 98.044 346.715 98.348V97.388H348.095V104H346.715V103.016C346.483 103.328 346.167 103.588 345.767 103.796C345.367 104.004 344.911 104.108 344.399 104.108C343.831 104.108 343.311 103.964 342.839 103.676C342.367 103.38 341.991 102.972 341.711 102.452C341.439 101.924 341.303 101.328 341.303 100.664ZM346.715 100.688C346.715 100.232 346.619 99.836 346.427 99.5C346.243 99.164 345.999 98.908 345.695 98.732C345.391 98.556 345.063 98.468 344.711 98.468C344.359 98.468 344.031 98.556 343.727 98.732C343.423 98.9 343.175 99.152 342.983 99.488C342.799 99.816 342.707 100.208 342.707 100.664C342.707 101.12 342.799 101.52 342.983 101.864C343.175 102.208 343.423 102.472 343.727 102.656C344.039 102.832 344.367 102.92 344.711 102.92C345.063 102.92 345.391 102.832 345.695 102.656C345.999 102.48 346.243 102.224 346.427 101.888C346.619 101.544 346.715 101.144 346.715 100.688ZM351.26 98.348C351.46 98.012 351.724 97.752 352.052 97.568C352.388 97.376 352.784 97.28 353.24 97.28V98.696H352.892C352.356 98.696 351.948 98.832 351.668 99.104C351.396 99.376 351.26 99.848 351.26 100.52V104H349.892V97.388H351.26V98.348ZM360.558 100.532C360.558 100.78 360.542 101.004 360.51 101.204H355.458C355.498 101.732 355.694 102.156 356.046 102.476C356.398 102.796 356.83 102.956 357.342 102.956C358.078 102.956 358.598 102.648 358.902 102.032H360.378C360.178 102.64 359.814 103.14 359.286 103.532C358.766 103.916 358.118 104.108 357.342 104.108C356.71 104.108 356.142 103.968 355.638 103.688C355.142 103.4 354.75 103 354.462 102.488C354.182 101.968 354.042 101.368 354.042 100.688C354.042 100.008 354.178 99.412 354.45 98.9C354.73 98.38 355.118 97.98 355.614 97.7C356.118 97.42 356.694 97.28 357.342 97.28C357.966 97.28 358.522 97.416 359.01 97.688C359.498 97.96 359.878 98.344 360.15 98.84C360.422 99.328 360.558 99.892 360.558 100.532ZM359.13 100.1C359.122 99.596 358.942 99.192 358.59 98.888C358.238 98.584 357.802 98.432 357.282 98.432C356.81 98.432 356.406 98.584 356.07 98.888C355.734 99.184 355.534 99.588 355.47 100.1H359.13ZM367.793 98.504H366.569V104H365.189V98.504H364.409V97.388H365.189V96.92C365.189 96.16 365.389 95.608 365.789 95.264C366.197 94.912 366.833 94.736 367.697 94.736V95.876C367.281 95.876 366.989 95.956 366.821 96.116C366.653 96.268 366.569 96.536 366.569 96.92V97.388H367.793V98.504ZM369.701 96.512C369.453 96.512 369.245 96.428 369.077 96.26C368.909 96.092 368.825 95.884 368.825 95.636C368.825 95.388 368.909 95.18 369.077 95.012C369.245 94.844 369.453 94.76 369.701 94.76C369.941 94.76 370.145 94.844 370.313 95.012C370.481 95.18 370.565 95.388 370.565 95.636C370.565 95.884 370.481 96.092 370.313 96.26C370.145 96.428 369.941 96.512 369.701 96.512ZM370.373 97.388V104H369.005V97.388H370.373ZM373.538 95.12V104H372.17V95.12H373.538ZM381.394 100.532C381.394 100.78 381.378 101.004 381.346 101.204H376.294C376.334 101.732 376.53 102.156 376.882 102.476C377.234 102.796 377.666 102.956 378.178 102.956C378.914 102.956 379.434 102.648 379.738 102.032H381.214C381.014 102.64 380.65 103.14 380.122 103.532C379.602 103.916 378.954 104.108 378.178 104.108C377.546 104.108 376.978 103.968 376.474 103.688C375.978 103.4 375.586 103 375.298 102.488C375.018 101.968 374.878 101.368 374.878 100.688C374.878 100.008 375.014 99.412 375.286 98.9C375.566 98.38 375.954 97.98 376.45 97.7C376.954 97.42 377.53 97.28 378.178 97.28C378.802 97.28 379.358 97.416 379.846 97.688C380.334 97.96 380.714 98.344 380.986 98.84C381.258 99.328 381.394 99.892 381.394 100.532ZM379.966 100.1C379.958 99.596 379.778 99.192 379.426 98.888C379.074 98.584 378.638 98.432 378.118 98.432C377.646 98.432 377.242 98.584 376.906 98.888C376.57 99.184 376.37 99.588 376.306 100.1H379.966ZM389.277 97.28C389.781 97.28 390.229 97.388 390.621 97.604C391.021 97.82 391.333 98.14 391.557 98.564C391.789 98.988 391.905 99.5 391.905 100.1V104H390.549V100.304C390.549 99.712 390.401 99.26 390.105 98.948C389.809 98.628 389.405 98.468 388.893 98.468C388.381 98.468 387.973 98.628 387.669 98.948C387.373 99.26 387.225 99.712 387.225 100.304V104H385.857V95.12H387.225V98.156C387.457 97.876 387.749 97.66 388.101 97.508C388.461 97.356 388.853 97.28 389.277 97.28ZM399.71 100.532C399.71 100.78 399.694 101.004 399.662 101.204H394.61C394.65 101.732 394.846 102.156 395.198 102.476C395.55 102.796 395.982 102.956 396.494 102.956C397.23 102.956 397.75 102.648 398.054 102.032H399.53C399.33 102.64 398.966 103.14 398.438 103.532C397.918 103.916 397.27 104.108 396.494 104.108C395.862 104.108 395.294 103.968 394.79 103.688C394.294 103.4 393.902 103 393.614 102.488C393.334 101.968 393.194 101.368 393.194 100.688C393.194 100.008 393.33 99.412 393.602 98.9C393.882 98.38 394.27 97.98 394.766 97.7C395.27 97.42 395.846 97.28 396.494 97.28C397.118 97.28 397.674 97.416 398.162 97.688C398.65 97.96 399.03 98.344 399.302 98.84C399.574 99.328 399.71 99.892 399.71 100.532ZM398.282 100.1C398.274 99.596 398.094 99.192 397.742 98.888C397.39 98.584 396.954 98.432 396.434 98.432C395.962 98.432 395.558 98.584 395.222 98.888C394.886 99.184 394.686 99.588 394.622 100.1H398.282ZM402.424 98.348C402.624 98.012 402.888 97.752 403.216 97.568C403.552 97.376 403.948 97.28 404.404 97.28V98.696H404.056C403.52 98.696 403.112 98.832 402.832 99.104C402.56 99.376 402.424 99.848 402.424 100.52V104H401.056V97.388H402.424V98.348ZM411.722 100.532C411.722 100.78 411.706 101.004 411.674 101.204H406.622C406.662 101.732 406.858 102.156 407.21 102.476C407.562 102.796 407.994 102.956 408.506 102.956C409.242 102.956 409.762 102.648 410.066 102.032H411.542C411.342 102.64 410.978 103.14 410.45 103.532C409.93 103.916 409.282 104.108 408.506 104.108C407.874 104.108 407.306 103.968 406.802 103.688C406.306 103.4 405.914 103 405.626 102.488C405.346 101.968 405.206 101.368 405.206 100.688C405.206 100.008 405.342 99.412 405.614 98.9C405.894 98.38 406.282 97.98 406.778 97.7C407.282 97.42 407.858 97.28 408.506 97.28C409.13 97.28 409.686 97.416 410.174 97.688C410.662 97.96 411.042 98.344 411.314 98.84C411.586 99.328 411.722 99.892 411.722 100.532ZM410.294 100.1C410.286 99.596 410.106 99.192 409.754 98.888C409.402 98.584 408.966 98.432 408.446 98.432C407.974 98.432 407.57 98.584 407.234 98.888C406.898 99.184 406.698 99.588 406.634 100.1H410.294Z" fill="#848484"/>
<path d="M319.562 56.1875V46.8125H325.812L318 37.4375L310.187 46.8125H316.437V56.1875H308.625V56.1094C308.362 56.125 308.112 56.1875 307.844 56.1875C304.736 56.1875 301.755 54.9528 299.557 52.7552C297.36 50.5575 296.125 47.5768 296.125 44.4688C296.125 38.4562 300.672 33.5563 306.506 32.8844C307.018 30.2103 308.445 27.798 310.543 26.0625C312.641 24.327 315.277 23.3767 318 23.375C320.723 23.3765 323.36 24.3267 325.459 26.0622C327.557 27.7977 328.985 30.21 329.497 32.8844C335.331 33.5563 339.872 38.4562 339.872 44.4688C339.872 47.5768 338.637 50.5575 336.44 52.7552C334.242 54.9528 331.261 56.1875 328.153 56.1875C327.891 56.1875 327.637 56.125 327.372 56.1094V56.1875H319.562Z" fill="#848484"/>
</svg>
