<svg width="324" height="461" viewBox="0 0 324 461" fill="none" xmlns="http://www.w3.org/2000/svg">
<rect x="13.2188" y="14.1367" width="309.253" height="445.365" rx="41.5" stroke="#E1114C" stroke-width="3"/>
<circle cx="15.1747" cy="395.921" r="14.6747" fill="#E1114C" stroke="#E1114C"/>
<circle cx="262.573" cy="15.1747" r="14.6747" fill="#E1114C" stroke="#E1114C"/>
<g filter="url(#filter0_d_404_136)">
<rect x="47" y="60" width="241.875" height="354.076" rx="40" fill="white"/>
</g>
<circle cx="167.5" cy="105.5" r="27.5" fill="#E1114C"/>
<g clip-path="url(#clip0_404_136)">
<path d="M157 109.134H162.5M157 112.25H162.5M166 112.25V109.134H173V112.25M173 97.3838H157V105.884H173V97.3838Z" stroke="white" stroke-width="1.5" stroke-linecap="round" stroke-linejoin="round"/>
<path d="M161.5 105.884L165.456 101.489C165.719 101.197 166.042 100.966 166.402 100.812C166.763 100.657 167.153 100.583 167.546 100.594C167.938 100.606 168.323 100.702 168.675 100.878C169.026 101.053 169.335 101.302 169.58 101.609L173 105.884" stroke="white" stroke-width="1.5" stroke-linecap="round" stroke-linejoin="round"/>
<path d="M160.5 101.384C160.367 101.384 160.24 101.331 160.146 101.237C160.053 101.144 160 101.016 160 100.884C160 100.751 160.053 100.624 160.146 100.53C160.24 100.436 160.367 100.384 160.5 100.384M160.5 101.384C160.633 101.384 160.76 101.331 160.854 101.237C160.947 101.144 161 101.016 161 100.884C161 100.751 160.947 100.624 160.854 100.53C160.76 100.436 160.633 100.384 160.5 100.384" stroke="white" stroke-width="1.5"/>
<path d="M153.75 112.25V91.7498C153.75 91.2193 153.961 90.7106 154.336 90.3355C154.711 89.9605 155.22 89.7498 155.75 89.7498H174.25C174.78 89.7498 175.289 89.9605 175.664 90.3355C176.039 90.7106 176.25 91.2193 176.25 91.7498V112.25M153.769 93.9638H176.238M158.082 89.7498V93.9638M162.415 89.7498V93.9638" stroke="white" stroke-width="1.5" stroke-linecap="round" stroke-linejoin="round"/>
</g>
<rect x="170" y="110" width="12" height="12" rx="6" fill="#E1114C"/>
<path d="M175.75 111.625C175.088 111.625 174.436 111.784 173.848 112.089C173.261 112.395 172.755 112.837 172.375 113.379C171.994 113.921 171.75 114.546 171.662 115.202C171.574 115.858 171.645 116.526 171.87 117.149C172.094 117.772 172.466 118.331 172.952 118.78C173.438 119.23 174.026 119.555 174.665 119.729C175.303 119.904 175.975 119.922 176.622 119.782C177.269 119.642 177.873 119.348 178.382 118.926L179.721 120.265C179.793 120.331 179.887 120.367 179.984 120.365C180.081 120.364 180.174 120.324 180.242 120.256C180.311 120.187 180.35 120.094 180.352 119.997C180.354 119.9 180.318 119.806 180.251 119.735L178.914 118.397C179.418 117.795 179.739 117.062 179.841 116.284C179.942 115.506 179.82 114.715 179.487 114.004C179.155 113.293 178.627 112.691 177.965 112.27C177.303 111.848 176.535 111.625 175.75 111.625Z" fill="white"/>
<defs>
<filter id="filter0_d_404_136" x="43" y="60" width="249.875" height="362.076" filterUnits="userSpaceOnUse" color-interpolation-filters="sRGB">
<feFlood flood-opacity="0" result="BackgroundImageFix"/>
<feColorMatrix in="SourceAlpha" type="matrix" values="0 0 0 0 0 0 0 0 0 0 0 0 0 0 0 0 0 0 127 0" result="hardAlpha"/>
<feOffset dy="4"/>
<feGaussianBlur stdDeviation="2"/>
<feComposite in2="hardAlpha" operator="out"/>
<feColorMatrix type="matrix" values="0 0 0 0 0 0 0 0 0 0 0 0 0 0 0 0 0 0 0.25 0"/>
<feBlend mode="normal" in2="BackgroundImageFix" result="effect1_dropShadow_404_136"/>
<feBlend mode="normal" in="SourceGraphic" in2="effect1_dropShadow_404_136" result="shape"/>
</filter>
<clipPath id="clip0_404_136">
<rect width="24" height="24" fill="white" transform="translate(153 88.9998)"/>
</clipPath>
</defs>
</svg>
