<svg width="324" height="473" viewBox="0 0 324 473" fill="none" xmlns="http://www.w3.org/2000/svg">
<rect x="13.2188" y="14.5465" width="309.253" height="456.956" rx="41.5" stroke="#E1114C" stroke-width="3"/>
<path d="M15.1748 391.222C23.2672 391.222 29.8496 397.958 29.8496 406.294C29.8496 414.631 23.2673 421.367 15.1748 421.367C7.08231 421.367 0.5 414.631 0.5 406.294C0.500012 397.958 7.08231 391.222 15.1748 391.222Z" fill="#E1114C" stroke="#E1114C"/>
<path d="M262.573 0.5C270.666 0.50006 277.248 7.23585 277.248 15.5723C277.248 23.9087 270.666 30.6445 262.573 30.6445C254.481 30.6445 247.898 23.9087 247.898 15.5723C247.898 7.23581 254.481 0.5 262.573 0.5Z" fill="#E1114C" stroke="#E1114C"/>
<g filter="url(#filter0_d_404_139)">
<rect x="47" y="61.5721" width="241.875" height="363.353" rx="40" fill="white"/>
</g>
<ellipse cx="167.5" cy="108.264" rx="27.5" ry="28.2205" fill="#E1114C"/>
<path fill-rule="evenodd" clip-rule="evenodd" d="M170.353 100.42H165.643C165.494 101.15 165.134 101.82 164.607 102.347C164.08 102.874 163.41 103.234 162.68 103.383V104.041C163.41 104.19 164.08 104.551 164.607 105.077C165.134 105.604 165.494 106.274 165.643 107.005H170.353C170.502 106.274 170.862 105.604 171.389 105.077C171.916 104.551 172.586 104.19 173.316 104.041V103.383C172.586 103.234 171.916 102.874 171.389 102.347C170.862 101.82 170.502 101.15 170.353 100.42ZM170.966 98.9034C170.688 98.9007 170.391 98.8997 170.077 98.9004H165.919C165.605 98.9004 165.308 98.9014 165.031 98.9034C164.975 98.8999 164.92 98.9009 164.865 98.9065C164.407 98.9146 164.001 98.9338 163.648 98.9814C163.012 99.0665 162.438 99.2549 161.977 99.7159C161.515 100.178 161.326 100.752 161.241 101.387C161.194 101.741 161.174 102.147 161.166 102.605C161.161 102.66 161.16 102.715 161.163 102.77C161.16 103.049 161.159 103.345 161.16 103.66V103.765C161.16 104.079 161.161 104.375 161.163 104.654C161.16 104.709 161.161 104.765 161.166 104.819C161.174 105.278 161.194 105.684 161.241 106.036C161.326 106.672 161.515 107.247 161.977 107.708C162.438 108.169 163.012 108.358 163.648 108.443C164.001 108.491 164.407 108.51 164.865 108.518C164.92 108.524 164.975 108.525 165.031 108.521C165.308 108.524 165.605 108.525 165.919 108.524H170.077C170.391 108.524 170.687 108.523 170.966 108.521C171.021 108.524 171.076 108.523 171.131 108.518C171.59 108.51 171.996 108.491 172.348 108.443C172.984 108.358 173.558 108.169 174.019 107.708C174.481 107.247 174.67 106.672 174.755 106.036C174.802 105.632 174.827 105.226 174.83 104.819C174.835 104.765 174.836 104.709 174.833 104.654C174.835 104.375 174.836 104.079 174.836 103.765V103.66C174.836 103.345 174.835 103.049 174.833 102.77C174.836 102.715 174.835 102.66 174.83 102.605C174.827 102.198 174.802 101.792 174.755 101.388C174.67 100.752 174.481 100.178 174.02 99.7169C173.558 99.2549 172.984 99.0665 172.349 98.9814C171.945 98.9342 171.538 98.9092 171.131 98.9065C171.076 98.901 171.021 98.8999 170.966 98.9034ZM171.943 100.464C172.058 100.767 172.235 101.043 172.464 101.272C172.694 101.501 172.969 101.679 173.272 101.794C173.265 101.726 173.258 101.658 173.248 101.591C173.187 101.123 173.077 100.922 172.945 100.791C172.812 100.659 172.613 100.551 172.146 100.487C172.079 100.478 172.011 100.471 171.944 100.464M173.273 105.631C172.97 105.746 172.695 105.924 172.466 106.153C172.236 106.382 172.059 106.657 171.944 106.96C172.015 106.953 172.082 106.946 172.146 106.938C172.614 106.874 172.815 106.765 172.947 106.634C173.078 106.502 173.188 106.301 173.25 105.833C173.259 105.769 173.266 105.702 173.273 105.631ZM164.054 106.96C163.939 106.657 163.762 106.382 163.532 106.153C163.303 105.924 163.028 105.746 162.725 105.631C162.732 105.702 162.74 105.769 162.749 105.833C162.811 106.301 162.92 106.502 163.052 106.634C163.185 106.765 163.384 106.874 163.851 106.938C163.915 106.946 163.983 106.953 164.054 106.96ZM162.725 101.794C163.028 101.679 163.303 101.501 163.532 101.272C163.762 101.043 163.939 100.767 164.054 100.464C163.983 100.471 163.916 100.479 163.852 100.488C163.384 100.551 163.183 100.659 163.051 100.792C162.92 100.924 162.811 101.123 162.747 101.59L162.725 101.794ZM167.998 103.459C167.931 103.459 167.866 103.486 167.819 103.533C167.771 103.581 167.745 103.645 167.745 103.712C167.745 103.779 167.771 103.844 167.819 103.891C167.866 103.939 167.931 103.965 167.998 103.965C168.065 103.965 168.13 103.939 168.177 103.891C168.225 103.844 168.251 103.779 168.251 103.712C168.251 103.645 168.225 103.581 168.177 103.533C168.13 103.486 168.065 103.459 167.998 103.459ZM166.225 103.712C166.225 103.242 166.412 102.791 166.744 102.459C167.077 102.126 167.528 101.939 167.998 101.939C168.468 101.939 168.919 102.126 169.251 102.459C169.584 102.791 169.771 103.242 169.771 103.712C169.771 104.182 169.584 104.633 169.251 104.966C168.919 105.298 168.468 105.485 167.998 105.485C167.528 105.485 167.077 105.298 166.744 104.966C166.412 104.633 166.225 104.182 166.225 103.712ZM164.639 111.257C166.529 110.891 168.552 110.974 170.19 111.95C170.419 112.087 170.636 112.258 170.823 112.469C171.204 112.897 171.401 113.428 171.41 113.961C171.603 113.835 171.798 113.698 171.994 113.549L173.826 112.166C174.285 111.829 174.839 111.647 175.408 111.647C175.977 111.647 176.532 111.829 176.99 112.166C177.836 112.804 178.175 113.952 177.568 114.924C177.137 115.614 176.489 116.569 175.829 117.181C175.16 117.799 174.211 118.32 173.493 118.666C172.619 119.088 171.677 119.321 170.76 119.469C168.886 119.773 166.937 119.726 165.086 119.344C164.131 119.148 163.158 119.048 162.183 119.047H159.894C159.692 119.047 159.499 118.967 159.357 118.825C159.214 118.682 159.134 118.489 159.134 118.287C159.134 118.086 159.214 117.893 159.357 117.75C159.499 117.608 159.692 117.528 159.894 117.528H162.183C163.259 117.528 164.346 117.64 165.392 117.856C167.08 118.202 168.817 118.24 170.518 117.968C171.357 117.833 172.141 117.631 172.832 117.298C173.524 116.963 174.302 116.524 174.795 116.067C175.295 115.604 175.853 114.803 176.279 114.12C176.408 113.913 176.39 113.616 176.075 113.378C175.7 113.095 175.115 113.095 174.742 113.378L172.911 114.761C172.18 115.313 171.28 115.904 170.165 116.082C170.048 116.101 169.931 116.117 169.813 116.131C169.755 116.141 169.695 116.148 169.632 116.151C168.981 116.214 168.326 116.214 167.675 116.151C167.574 116.144 167.475 116.116 167.385 116.07C167.295 116.025 167.215 115.961 167.15 115.884C167.084 115.807 167.035 115.717 167.005 115.621C166.975 115.524 166.964 115.423 166.973 115.322C166.983 115.221 167.012 115.123 167.06 115.034C167.108 114.945 167.173 114.866 167.252 114.803C167.33 114.739 167.421 114.692 167.518 114.664C167.615 114.635 167.717 114.627 167.818 114.639C168.38 114.693 168.946 114.692 169.507 114.636L169.538 114.633C169.632 114.574 169.713 114.495 169.773 114.401C169.833 114.308 169.872 114.202 169.887 114.092C169.901 113.982 169.891 113.87 169.857 113.764C169.823 113.658 169.766 113.561 169.69 113.48C169.608 113.391 169.515 113.316 169.411 113.255C168.215 112.541 166.616 112.422 164.927 112.748C163.278 113.079 161.714 113.747 160.333 114.708C160.252 114.766 160.16 114.807 160.063 114.83C159.965 114.852 159.865 114.855 159.766 114.838C159.668 114.821 159.574 114.785 159.489 114.732C159.405 114.679 159.332 114.61 159.274 114.528C159.216 114.447 159.175 114.355 159.153 114.257C159.131 114.16 159.128 114.059 159.145 113.961C159.178 113.762 159.29 113.585 159.454 113.469C161.012 112.382 162.777 111.629 164.639 111.257Z" fill="white"/>
<defs>
<filter id="filter0_d_404_139" x="43" y="61.5721" width="249.875" height="371.353" filterUnits="userSpaceOnUse" color-interpolation-filters="sRGB">
<feFlood flood-opacity="0" result="BackgroundImageFix"/>
<feColorMatrix in="SourceAlpha" type="matrix" values="0 0 0 0 0 0 0 0 0 0 0 0 0 0 0 0 0 0 127 0" result="hardAlpha"/>
<feOffset dy="4"/>
<feGaussianBlur stdDeviation="2"/>
<feComposite in2="hardAlpha" operator="out"/>
<feColorMatrix type="matrix" values="0 0 0 0 0 0 0 0 0 0 0 0 0 0 0 0 0 0 0.25 0"/>
<feBlend mode="normal" in2="BackgroundImageFix" result="effect1_dropShadow_404_139"/>
<feBlend mode="normal" in="SourceGraphic" in2="effect1_dropShadow_404_139" result="shape"/>
</filter>
</defs>
</svg>
