<svg width="40" height="41" viewBox="0 0 40 41" fill="none" xmlns="http://www.w3.org/2000/svg">
<circle cx="20" cy="20.5" r="19.5" fill="white" stroke="#905702"/>
<path d="M28.75 13C28.75 13.663 28.4866 14.2989 28.0178 14.7678C27.5489 15.2366 26.913 15.5 26.25 15.5C25.587 15.5 24.9511 15.2366 24.4822 14.7678C24.0134 14.2989 23.75 13.663 23.75 13C23.75 12.337 24.0134 11.7011 24.4822 11.2322C24.9511 10.7634 25.587 10.5 26.25 10.5C26.913 10.5 27.5489 10.7634 28.0178 11.2322C28.4866 11.7011 28.75 12.337 28.75 13Z" fill="#905702"/>
<path fill-rule="evenodd" clip-rule="evenodd" d="M17.802 14.43C18.0405 14.394 18.2819 14.3796 18.523 14.387C18.603 14.391 18.694 14.3977 18.796 14.407C21.179 14.655 22.946 16.443 24.124 18.209L24.187 18.303C24.4838 18.7481 24.8859 19.1131 25.3576 19.3655C25.8293 19.6179 26.356 19.75 26.891 19.75H28.75C28.9489 19.75 29.1397 19.829 29.2803 19.9697C29.421 20.1103 29.5 20.3011 29.5 20.5C29.5 20.6989 29.421 20.8897 29.2803 21.0303C29.1397 21.171 28.9489 21.25 28.75 21.25H26.89C26.1081 21.25 25.3382 21.0569 24.6488 20.688C23.9594 20.319 23.3718 19.7856 22.938 19.135L22.876 19.041C22.6096 18.6385 22.3169 18.254 22 17.89L20.116 20.245C19.688 20.779 19.402 21.139 19.209 21.435C19.021 21.721 18.968 21.88 18.954 22.001C18.93 22.201 18.956 22.404 19.027 22.592C19.071 22.706 19.162 22.848 19.413 23.079C19.673 23.319 20.039 23.597 20.585 24.009L20.68 24.082C21.4 24.628 21.9 25.006 22.245 25.51C22.442 25.797 22.597 26.11 22.708 26.44C22.901 27.02 22.901 27.646 22.901 28.55V30.5C22.901 30.6989 22.822 30.8897 22.6813 31.0303C22.5407 31.171 22.3499 31.25 22.151 31.25C21.9521 31.25 21.7613 31.171 21.6207 31.0303C21.48 30.8897 21.401 30.6989 21.401 30.5V28.67C21.401 27.6 21.391 27.235 21.285 26.915C21.2184 26.7173 21.1252 26.5296 21.008 26.357C20.818 26.079 20.532 25.852 19.678 25.205L19.65 25.184C19.14 24.798 18.717 24.477 18.398 24.183C18.064 23.876 17.787 23.548 17.626 23.127C17.4681 22.713 17.4125 22.2671 17.464 21.827C17.516 21.379 17.705 20.992 17.954 20.613C18.191 20.251 18.523 19.835 18.922 19.336L20.906 16.857C20.219 16.334 19.462 15.986 18.642 15.901C18.5808 15.8945 18.5195 15.8898 18.458 15.887C18.3074 15.8834 18.1568 15.8935 18.008 15.917C16.943 16.065 15.876 16.657 13.558 17.974L12.122 18.789C11.9491 18.8874 11.7442 18.9131 11.5523 18.8604C11.3605 18.8077 11.1974 18.6809 11.099 18.508C11.0006 18.3351 10.9749 18.1302 11.0276 17.9383C11.0803 17.7465 11.2071 17.5834 11.38 17.485L12.816 16.67L12.968 16.583C15.088 15.379 16.417 14.623 17.803 14.432M17.23 24.925C17.3827 25.0523 17.4786 25.2351 17.4966 25.4331C17.5146 25.6312 17.4532 25.8282 17.326 25.981L16.326 27.182L16.229 27.298C15.587 28.069 15.116 28.636 14.458 28.944C13.8 29.252 13.063 29.252 12.058 29.251H10.75C10.5511 29.251 10.3603 29.172 10.2197 29.0313C10.079 28.8907 10 28.6999 10 28.501C10 28.3021 10.079 28.1113 10.2197 27.9707C10.3603 27.83 10.5511 27.751 10.75 27.751H11.908C13.13 27.751 13.504 27.734 13.821 27.586C14.139 27.437 14.391 27.16 15.173 26.222L16.173 25.021C16.2361 24.9452 16.3134 24.8827 16.4007 24.8368C16.488 24.791 16.5834 24.7628 16.6816 24.7539C16.7798 24.745 16.8787 24.7555 16.9728 24.7849C17.0669 24.8142 17.1543 24.8618 17.23 24.925Z" fill="#905702"/>
</svg>
