<svg width="40" height="41" viewBox="0 0 40 41" fill="none" xmlns="http://www.w3.org/2000/svg">
<circle cx="20" cy="20.5" r="19.5" fill="white" stroke="#905702"/>
<path d="M19 10.5C14.582 10.5 11 14.045 11 18.419C11 19.912 11.417 21.309 12.143 22.5" stroke="#905702" stroke-width="1.5" stroke-linecap="round"/>
<path d="M22.5 19.5V21.5M25.5 19.5V21.5M22.5 11.5V13.5M25.5 11.5V13.5M21 15H19M21 18H19M29 15H27M29 18H27M25 13.5H23C22.057 13.5 21.586 13.5 21.293 13.793C21 14.086 21 14.557 21 15.5V17.5C21 18.443 21 18.914 21.293 19.207C21.586 19.5 22.057 19.5 23 19.5H25C25.943 19.5 26.414 19.5 26.707 19.207C27 18.914 27 18.443 27 17.5V15.5C27 14.557 27 14.086 26.707 13.793C26.414 13.5 25.943 13.5 25 13.5Z" stroke="#905702" stroke-width="1.5" stroke-linecap="round" stroke-linejoin="round"/>
<path d="M22.0004 27.5L21.8704 28.147C21.7304 28.854 21.6594 29.207 21.5004 29.487C21.2554 29.9186 20.8587 30.2436 20.3874 30.399C20.0824 30.5 19.7204 30.5 19.0004 30.5C18.2804 30.5 17.9184 30.5 17.6134 30.4C17.1419 30.2444 16.7452 29.9189 16.5004 29.487C16.3414 29.207 16.2704 28.854 16.1304 28.147L16.0004 27.5M14.3834 25.598C14.2914 25.322 14.2454 25.183 14.2504 25.071C14.256 24.9552 14.2951 24.8435 14.3629 24.7494C14.4307 24.6554 14.5243 24.583 14.6324 24.541C14.7364 24.5 14.8824 24.5 15.1724 24.5H22.8284C23.1194 24.5 23.2644 24.5 23.3684 24.54C23.4766 24.5821 23.5703 24.6546 23.6381 24.7489C23.7059 24.8431 23.7449 24.955 23.7504 25.071C23.7554 25.183 23.7094 25.321 23.6174 25.598C23.4474 26.109 23.3624 26.365 23.2314 26.572C22.9574 27.0046 22.5279 27.3156 22.0314 27.441C21.7934 27.5 21.5254 27.5 20.9884 27.5H17.0124C16.4754 27.5 16.2064 27.5 15.9694 27.44C15.473 27.3149 15.0436 27.0042 14.7694 26.572C14.6384 26.365 14.5534 26.109 14.3834 25.598Z" stroke="#905702" stroke-width="1.5"/>
</svg>
