<svg width="40" height="41" viewBox="0 0 40 41" fill="none" xmlns="http://www.w3.org/2000/svg">
<circle cx="20" cy="20.5" r="19.5" fill="white" stroke="#905702"/>
<path d="M19.861 10.89C20.3449 10.5675 20.912 10.3927 21.4935 10.3866C22.0749 10.3806 22.6455 10.5437 23.136 10.856L27.29 13.5H29C29.2652 13.5 29.5196 13.6053 29.7071 13.7929C29.8946 13.9804 30 14.2348 30 14.5V23.5C30 23.7652 29.8946 24.0196 29.7071 24.2071C29.5196 24.3946 29.2652 24.5 29 24.5H27.48C27.5121 24.9869 27.4091 25.4733 27.1823 25.9054C26.9556 26.3375 26.6139 26.6987 26.195 26.949L21.102 30.005C20.7891 30.1926 20.4308 30.291 20.0659 30.2896C19.701 30.2882 19.3435 30.187 19.032 29.997C18.6812 30.307 18.2327 30.4841 17.7647 30.4974C17.2968 30.5107 16.8389 30.3595 16.471 30.07L11.331 26.031C10.9717 25.7491 10.7197 25.3527 10.6169 24.9077C10.5141 24.4627 10.5668 23.9959 10.766 23.585C10.5272 23.3978 10.3341 23.1587 10.2014 22.8858C10.0687 22.6129 9.99984 22.3134 10 22.01V14.5C10 14.2348 10.1054 13.9804 10.2929 13.7929C10.4804 13.6053 10.7348 13.5 11 13.5H15.947L19.861 10.89ZM12.173 22.146L12.865 21.541C13.4564 21.0237 14.2271 20.759 15.0115 20.8039C15.796 20.8488 16.5315 21.1996 17.06 21.781L19.762 24.753C20.1857 25.2191 20.452 25.8067 20.5231 26.4325C20.5941 27.0584 20.4664 27.6908 20.158 28.24L25.167 25.235C25.2976 25.1558 25.3967 25.0338 25.4474 24.8897C25.498 24.7457 25.4972 24.5885 25.445 24.445L21.018 18.247C20.8968 18.0771 20.7254 17.9494 20.528 17.8818C20.3306 17.8142 20.1169 17.8101 19.917 17.87L17.431 18.615C16.9122 18.7706 16.361 18.7828 15.8358 18.6504C15.3106 18.518 14.831 18.2459 14.448 17.863L14.155 17.571C13.8893 17.3053 13.7037 16.9701 13.6197 16.6038C13.5357 16.2375 13.5566 15.8549 13.68 15.5H12V22.01L12.173 22.146ZM22.063 12.544C21.8993 12.4397 21.7088 12.3853 21.5147 12.3874C21.3206 12.3896 21.1314 12.4481 20.97 12.556L15.57 16.156L15.862 16.449C15.9898 16.5766 16.1498 16.6673 16.325 16.7113C16.5002 16.7553 16.684 16.7511 16.857 16.699L19.342 15.954C19.9416 15.7742 20.5825 15.7864 21.1748 15.9891C21.7671 16.1917 22.2812 16.5746 22.645 17.084L26.515 22.5H28V15.5H27.291C26.9105 15.4999 26.5379 15.3914 26.217 15.187L22.063 12.544ZM14.181 23.045L12.565 24.459L17.705 28.498L18.41 27.266C18.5148 27.0825 18.5587 26.8705 18.5355 26.6605C18.5123 26.4505 18.4232 26.2532 18.281 26.097L15.58 23.125C15.4038 22.9313 15.1587 22.8144 14.8973 22.7995C14.6359 22.7845 14.3781 22.8727 14.181 23.045Z" fill="#905702"/>
</svg>
