<svg width="40" height="41" viewBox="0 0 40 41" fill="none" xmlns="http://www.w3.org/2000/svg">
<circle cx="20" cy="20.5" r="19.5" fill="white" stroke="#905702"/>
<path d="M29.9277 25.5082L26.4974 22.0769L23.0662 10.75C22.9738 10.4456 22.8045 10.1702 22.5746 9.9502C22.3448 9.73024 22.0622 9.57322 21.754 9.49427C21.4458 9.41531 21.1225 9.4171 20.8152 9.49945C20.5079 9.58179 20.227 9.74193 19.9996 9.9644C19.7722 9.74193 19.4913 9.58179 19.1841 9.49945C18.8768 9.4171 18.5534 9.41531 18.2453 9.49427C17.9371 9.57322 17.6545 9.73024 17.4246 9.9502C17.1948 10.1702 17.0255 10.4456 16.9331 10.75L13.5018 22.0769L10.0715 25.5082C9.82562 25.7543 9.6875 26.0879 9.6875 26.4358C9.6875 26.7837 9.82562 27.1174 10.0715 27.3635L13.1362 30.4282C13.3823 30.674 13.716 30.8122 14.0638 30.8122C14.4117 30.8122 14.7454 30.674 14.9915 30.4282L19.5187 25.9019C19.7001 25.7204 19.8613 25.5199 19.9996 25.3038C20.1379 25.5199 20.2992 25.7204 20.4806 25.9019L25.0078 30.4282C25.2539 30.674 25.5875 30.8122 25.9354 30.8122C26.2833 30.8122 26.617 30.674 26.8631 30.4282L29.9277 27.3635C30.1736 27.1174 30.3118 26.7837 30.3118 26.4358C30.3118 26.0879 30.1736 25.7543 29.9277 25.5082ZM14.1965 29.6332C14.1791 29.6506 14.1584 29.6644 14.1356 29.6739C14.1129 29.6833 14.0885 29.6881 14.0638 29.6881C14.0392 29.6881 14.0148 29.6833 13.992 29.6739C13.9693 29.6644 13.9486 29.6506 13.9312 29.6332L10.8665 26.5685C10.8491 26.5511 10.8352 26.5304 10.8258 26.5076C10.8164 26.4848 10.8115 26.4604 10.8115 26.4358C10.8115 26.4112 10.8164 26.3868 10.8258 26.364C10.8352 26.3412 10.8491 26.3206 10.8665 26.3032L12.1893 24.9813L15.5184 28.3103L14.1965 29.6332ZM18.7227 25.106L16.3143 27.5153L12.9843 24.1853L14.3971 22.7725C14.4626 22.7072 14.5109 22.6267 14.5378 22.5382L18.0065 11.08C18.0551 10.9099 18.1638 10.7632 18.3125 10.6673C18.4612 10.5714 18.6397 10.5329 18.8147 10.5588C18.9897 10.5847 19.1493 10.6734 19.2639 10.8082C19.3784 10.9431 19.4399 11.115 19.4371 11.2919V23.3857C19.4375 23.7054 19.3746 24.022 19.252 24.3172C19.1294 24.6125 18.9495 24.8806 18.7227 25.106ZM20.5621 23.3828V11.2891C20.5625 11.1144 20.6254 10.9457 20.7396 10.8136C20.8538 10.6814 21.0116 10.5947 21.1844 10.569C21.3571 10.5434 21.5333 10.5805 21.681 10.6738C21.8286 10.7671 21.9379 10.9102 21.989 11.0772L25.4578 22.5353C25.4846 22.6238 25.5329 22.7043 25.5984 22.7697L27.0918 24.2641L23.6906 27.521L21.2727 25.1032C21.0467 24.8775 20.8675 24.6093 20.7455 24.314C20.6236 24.0188 20.5612 23.7023 20.5621 23.3828ZM29.1327 26.5703L26.0681 29.635C26.0506 29.6525 26.03 29.6663 26.0072 29.6757C25.9844 29.6852 25.96 29.69 25.9354 29.69C25.9108 29.69 25.8864 29.6852 25.8636 29.6757C25.8408 29.6663 25.8202 29.6525 25.8027 29.635L24.4902 28.3225L27.8924 25.0657L29.1337 26.306C29.1679 26.3411 29.187 26.3883 29.1868 26.4374C29.1866 26.4865 29.1672 26.5335 29.1327 26.5685V26.5703Z" fill="#905702"/>
</svg>
