<svg width="446" height="248" viewBox="0 0 446 248" fill="none" xmlns="http://www.w3.org/2000/svg">
<rect x="2" y="6.5" width="442" height="239" rx="119.5" fill="white" stroke="#E1114C" stroke-width="4"/>
<circle cx="48.5" cy="40" r="39.5" fill="#E1114C"/>
<path d="M48.9997 23.8333C51.2098 23.8333 53.3294 24.7113 54.8922 26.2741C56.455 27.8369 57.333 29.9565 57.333 32.1667C57.333 34.3768 56.455 36.4964 54.8922 38.0592C53.3294 39.622 51.2098 40.5 48.9997 40.5C46.7895 40.5 44.6699 39.622 43.1071 38.0592C41.5443 36.4964 40.6663 34.3768 40.6663 32.1667C40.6663 29.9565 41.5443 27.8369 43.1071 26.2741C44.6699 24.7113 46.7895 23.8333 48.9997 23.8333ZM48.9997 44.6667C58.208 44.6667 65.6663 48.3958 65.6663 53V57.1667H32.333V53C32.333 48.3958 39.7913 44.6667 48.9997 44.6667Z" fill="white"/>
<g clip-path="url(#clip0_1673_167)">
<rect x="52" y="46.5" width="15" height="15" rx="7.5" fill="#E1114C"/>
<path fill-rule="evenodd" clip-rule="evenodd" d="M52 54C52 52.0109 52.7902 50.1032 54.1967 48.6967C55.6032 47.2902 57.5109 46.5 59.5 46.5C61.4891 46.5 63.3968 47.2902 64.8033 48.6967C66.2098 50.1032 67 52.0109 67 54C67 55.9891 66.2098 57.8968 64.8033 59.3033C63.3968 60.7098 61.4891 61.5 59.5 61.5C57.5109 61.5 55.6032 60.7098 54.1967 59.3033C52.7902 57.8968 52 55.9891 52 54ZM59.072 57.21L63.39 51.812L62.61 51.188L58.928 55.789L56.32 53.616L55.68 54.384L59.072 57.21Z" fill="white"/>
</g>
<defs>
<clipPath id="clip0_1673_167">
<rect x="52" y="46.5" width="15" height="15" rx="7.5" fill="white"/>
</clipPath>
</defs>
</svg>
