<svg width="446" height="254" viewBox="0 0 446 254" fill="none" xmlns="http://www.w3.org/2000/svg">
<rect x="2" y="12.5" width="442" height="239" rx="119.5" fill="white" stroke="#E1114C" stroke-width="4"/>
<circle cx="43.5" cy="40" r="39.5" fill="#E1114C"/>
<path d="M56.5003 42.5833V38.4167H64.8337V42.5833H56.5003ZM59.0003 57.1667L52.3337 52.1667L54.8337 48.8333L61.5003 53.8333L59.0003 57.1667ZM54.8337 32.1667L52.3337 28.8333L59.0003 23.8333L61.5003 27.1667L54.8337 32.1667ZM29.417 55.0833V46.75H27.3337C26.1878 46.75 25.2073 46.3424 24.392 45.5271C23.5767 44.7118 23.1684 43.7306 23.167 42.5833V38.4167C23.167 37.2708 23.5753 36.2903 24.392 35.475C25.2087 34.6597 26.1892 34.2514 27.3337 34.25H35.667L46.0837 28V53L35.667 46.75H33.5837V55.0833H29.417ZM48.167 47.4792V33.5208C49.1045 34.3542 49.8601 35.3701 50.4337 36.5688C51.0073 37.7674 51.2934 39.0778 51.292 40.5C51.2906 41.9222 51.0038 43.2333 50.4316 44.4333C49.8594 45.6333 49.1045 46.6486 48.167 47.4792Z" fill="white"/>
</svg>
