<svg width="323" height="504" viewBox="0 0 323 504" fill="none" xmlns="http://www.w3.org/2000/svg">
<rect x="4" y="4.5" width="315" height="495" rx="157.5" fill="white" stroke="#E1114C" stroke-width="8"/>
<circle cx="161.5" cy="155" r="40" fill="white" stroke="#E1114C"/>
<path d="M164.083 138.963V132.583H159.916V138.963C156.245 139.426 152.832 141.098 150.215 143.715C147.598 146.332 145.926 149.745 145.462 153.417H139.083V157.583H145.462C145.926 161.255 147.598 164.668 150.215 167.285C152.832 169.902 156.245 171.574 159.916 172.038V178.417H164.083V172.038C167.755 171.574 171.168 169.902 173.785 167.285C176.401 164.668 178.073 161.255 178.537 157.583H184.916V153.417H178.537C178.073 149.745 176.401 146.332 173.785 143.715C171.168 141.098 167.755 139.426 164.083 138.963ZM162 151.333C163.105 151.333 164.165 151.772 164.946 152.554C165.727 153.335 166.166 154.395 166.166 155.5C166.166 156.605 165.727 157.665 164.946 158.446C164.165 159.228 163.105 159.667 162 159.667C160.895 159.667 159.835 159.228 159.053 158.446C158.272 157.665 157.833 156.605 157.833 155.5C157.833 154.395 158.272 153.335 159.053 152.554C159.835 151.772 160.895 151.333 162 151.333Z" fill="#E1114C"/>
</svg>
