<svg width="323" height="504" viewBox="0 0 323 504" fill="none" xmlns="http://www.w3.org/2000/svg">
<rect x="4" y="4.5" width="315" height="495" rx="157.5" fill="white" stroke="#E1114C" stroke-width="8"/>
<circle cx="161.5" cy="155" r="39" fill="white" stroke="#E1114C"/>
<path d="M164.084 168V172.167H172.417V176.333H151.584V172.167H159.917V168H143.234C142.96 167.998 142.69 167.942 142.438 167.835C142.186 167.728 141.957 167.573 141.765 167.378C141.574 167.183 141.422 166.952 141.319 166.699C141.217 166.445 141.165 166.174 141.167 165.9V138.85C141.167 137.69 142.115 136.75 143.234 136.75H180.767C181.909 136.75 182.834 137.685 182.834 138.848V165.9C182.834 167.06 181.886 168 180.767 168H164.084Z" fill="#E1114C"/>
<path fill-rule="evenodd" clip-rule="evenodd" d="M164 147.5C163.735 147.5 163.48 147.605 163.293 147.793C163.105 147.98 163 148.235 163 148.5V156.5C163 156.765 163.105 157.02 163.293 157.207C163.48 157.395 163.735 157.5 164 157.5H168C168.265 157.5 168.52 157.395 168.707 157.207C168.895 157.02 169 156.765 169 156.5V148.5C169 148.235 168.895 147.98 168.707 147.793C168.52 147.605 168.265 147.5 168 147.5H164ZM167 149.5H165V155.5H167V149.5Z" fill="white"/>
<path d="M156 147.5C155.735 147.5 155.48 147.605 155.293 147.793C155.105 147.98 155 148.235 155 148.5C155 148.765 155.105 149.02 155.293 149.207C155.48 149.395 155.735 149.5 156 149.5H160C160.265 149.5 160.52 149.395 160.707 149.207C160.895 149.02 161 148.765 161 148.5C161 148.235 160.895 147.98 160.707 147.793C160.52 147.605 160.265 147.5 160 147.5H156ZM156 151.5C155.735 151.5 155.48 151.605 155.293 151.793C155.105 151.98 155 152.235 155 152.5C155 152.765 155.105 153.02 155.293 153.207C155.48 153.395 155.735 153.5 156 153.5H160C160.265 153.5 160.52 153.395 160.707 153.207C160.895 153.02 161 152.765 161 152.5C161 152.235 160.895 151.98 160.707 151.793C160.52 151.605 160.265 151.5 160 151.5H156ZM155 156.5C155 156.235 155.105 155.98 155.293 155.793C155.48 155.605 155.735 155.5 156 155.5H160C160.265 155.5 160.52 155.605 160.707 155.793C160.895 155.98 161 156.235 161 156.5C161 156.765 160.895 157.02 160.707 157.207C160.52 157.395 160.265 157.5 160 157.5H156C155.735 157.5 155.48 157.395 155.293 157.207C155.105 157.02 155 156.765 155 156.5Z" fill="white"/>
<path fill-rule="evenodd" clip-rule="evenodd" d="M154 143.5C153.204 143.5 152.441 143.816 151.879 144.379C151.316 144.941 151 145.704 151 146.5V158.5C151 159.296 151.316 160.059 151.879 160.621C152.441 161.184 153.204 161.5 154 161.5H170C170.796 161.5 171.559 161.184 172.121 160.621C172.684 160.059 173 159.296 173 158.5V146.5C173 145.704 172.684 144.941 172.121 144.379C171.559 143.816 170.796 143.5 170 143.5H154ZM170 145.5H154C153.735 145.5 153.48 145.605 153.293 145.793C153.105 145.98 153 146.235 153 146.5V158.5C153 158.765 153.105 159.02 153.293 159.207C153.48 159.395 153.735 159.5 154 159.5H170C170.265 159.5 170.52 159.395 170.707 159.207C170.895 159.02 171 158.765 171 158.5V146.5C171 146.235 170.895 145.98 170.707 145.793C170.52 145.605 170.265 145.5 170 145.5Z" fill="white"/>
</svg>
