<svg width="324" height="461" viewBox="0 0 324 461" fill="none" xmlns="http://www.w3.org/2000/svg">
<rect x="13.2188" y="14.1367" width="309.253" height="445.365" rx="41.5" stroke="#E1114C" stroke-width="3"/>
<circle cx="15.1747" cy="395.921" r="14.6747" fill="#E1114C" stroke="#E1114C"/>
<circle cx="262.573" cy="15.1747" r="14.6747" fill="#E1114C" stroke="#E1114C"/>
<g filter="url(#filter0_d_402_484)">
<rect x="47" y="60" width="241.875" height="354.076" rx="40" fill="white"/>
</g>
<circle cx="167.5" cy="105.5" r="27.5" fill="#E1114C"/>
<path d="M168 95L159 99V105C159 110.55 162.84 115.74 168 117C173.16 115.74 177 110.55 177 105V99L168 95ZM168 101C169.4 101 170.8 102.1 170.8 103.5V105C171.4 105 172 105.6 172 106.3V109.8C172 110.4 171.4 111 170.7 111H165.2C164.6 111 164 110.4 164 109.7V106.2C164 105.6 164.6 105 165.2 105V103.5C165.2 102.1 166.6 101 168 101ZM168 102.2C167.2 102.2 166.5 102.7 166.5 103.5V105H169.5V103.5C169.5 102.7 168.8 102.2 168 102.2Z" fill="white"/>
<defs>
<filter id="filter0_d_402_484" x="43" y="60" width="249.875" height="362.076" filterUnits="userSpaceOnUse" color-interpolation-filters="sRGB">
<feFlood flood-opacity="0" result="BackgroundImageFix"/>
<feColorMatrix in="SourceAlpha" type="matrix" values="0 0 0 0 0 0 0 0 0 0 0 0 0 0 0 0 0 0 127 0" result="hardAlpha"/>
<feOffset dy="4"/>
<feGaussianBlur stdDeviation="2"/>
<feComposite in2="hardAlpha" operator="out"/>
<feColorMatrix type="matrix" values="0 0 0 0 0 0 0 0 0 0 0 0 0 0 0 0 0 0 0.25 0"/>
<feBlend mode="normal" in2="BackgroundImageFix" result="effect1_dropShadow_402_484"/>
<feBlend mode="normal" in="SourceGraphic" in2="effect1_dropShadow_402_484" result="shape"/>
</filter>
</defs>
</svg>
