<svg width="324" height="461" viewBox="0 0 324 461" fill="none" xmlns="http://www.w3.org/2000/svg">
<rect x="13.2188" y="14.1367" width="309.253" height="445.365" rx="41.5" stroke="#E1114C" stroke-width="3"/>
<circle cx="15.1747" cy="395.921" r="14.6747" fill="#E1114C" stroke="#E1114C"/>
<circle cx="262.573" cy="15.1747" r="14.6747" fill="#E1114C" stroke="#E1114C"/>
<g filter="url(#filter0_d_402_485)">
<rect x="47" y="60" width="241.875" height="354.076" rx="40" fill="white"/>
</g>
<circle cx="167.5" cy="105.5" r="27.5" fill="#E1114C"/>
<g clip-path="url(#clip0_402_485)">
<path d="M174.425 94.3255C172.712 92.603 170.452 91.5329 168.034 91.3002C167.96 91.2925 167.891 91.2635 167.833 91.2167C167.776 91.1699 167.734 91.1073 167.712 91.0367C167.667 90.8822 167.574 90.7462 167.446 90.6494C167.317 90.5527 167.161 90.5003 167 90.5003C166.839 90.5003 166.683 90.5527 166.554 90.6494C166.426 90.7462 166.333 90.8822 166.288 91.0367C166.266 91.1073 166.224 91.1699 166.167 91.2167C166.109 91.2635 166.04 91.2925 165.966 91.3002C163.377 91.5564 160.975 92.765 159.226 94.6916C157.477 96.6181 156.505 99.1255 156.5 101.728C156.498 101.856 156.528 101.982 156.587 102.096C156.646 102.209 156.733 102.306 156.839 102.378C156.984 102.472 157.156 102.514 157.327 102.496C157.498 102.478 157.658 102.402 157.78 102.28C158.236 101.825 158.853 101.569 159.498 101.568C160.142 101.568 160.76 101.823 161.217 102.277C161.286 102.348 161.368 102.404 161.458 102.442C161.549 102.48 161.646 102.5 161.745 102.501C161.843 102.502 161.941 102.483 162.032 102.446C162.123 102.409 162.206 102.354 162.276 102.284C162.774 101.789 163.434 101.488 164.135 101.438C164.836 101.387 165.532 101.59 166.096 102.009C166.144 102.045 166.183 102.092 166.209 102.145C166.236 102.199 166.25 102.258 166.25 102.318V109.228C166.25 109.632 165.941 109.978 165.538 109.999C165.436 110.004 165.335 109.989 165.239 109.953C165.144 109.918 165.057 109.864 164.983 109.794C164.91 109.724 164.851 109.639 164.811 109.546C164.771 109.452 164.75 109.352 164.75 109.25C164.75 109.15 164.73 109.052 164.692 108.96C164.653 108.868 164.597 108.785 164.526 108.715C164.454 108.645 164.37 108.59 164.278 108.553C164.185 108.516 164.086 108.498 163.986 108.5C163.565 108.508 163.241 108.88 163.25 109.302C163.264 109.884 163.504 110.438 163.918 110.848C164.332 111.258 164.888 111.492 165.471 111.5C166.731 111.516 167.75 110.472 167.75 109.212V102.318C167.75 102.258 167.764 102.199 167.791 102.145C167.817 102.092 167.856 102.045 167.904 102.009C168.467 101.591 169.162 101.388 169.862 101.437C170.562 101.487 171.221 101.786 171.72 102.28C171.86 102.421 172.051 102.5 172.25 102.5C172.449 102.5 172.639 102.421 172.78 102.28C173.236 101.824 173.855 101.568 174.5 101.568C175.145 101.568 175.764 101.824 176.22 102.28C176.338 102.398 176.492 102.474 176.658 102.494C176.824 102.515 176.992 102.479 177.136 102.393C177.249 102.323 177.342 102.225 177.406 102.108C177.47 101.991 177.502 101.86 177.5 101.727C177.501 100.351 177.229 98.9894 176.701 97.7191C176.174 96.4488 175.4 95.2955 174.425 94.3255Z" fill="white"/>
<path d="M172.5 109H171.5V106.5H172.5M172.5 111H171.5V110H172.5M166.5 112.5H177.5L172 103L166.5 112.5Z" fill="white"/>
</g>
<path fill-rule="evenodd" clip-rule="evenodd" d="M163.992 112.271C164.036 112.356 164.046 112.464 164.068 112.681C164.109 113.091 164.129 113.296 164.215 113.409C164.269 113.479 164.34 113.534 164.422 113.568C164.503 113.601 164.593 113.613 164.68 113.601C164.82 113.583 164.98 113.452 165.299 113.191C165.467 113.053 165.552 112.983 165.642 112.954C165.758 112.918 165.882 112.924 165.993 112.972C166.081 113.01 166.159 113.087 166.312 113.241L166.759 113.688C166.913 113.842 166.99 113.919 167.028 114.007C167.076 114.118 167.082 114.242 167.045 114.358C167.016 114.448 166.947 114.533 166.809 114.701C166.548 115.02 166.418 115.18 166.399 115.32C166.387 115.408 166.398 115.497 166.432 115.578C166.466 115.66 166.521 115.731 166.591 115.785C166.703 115.871 166.909 115.891 167.319 115.932C167.536 115.954 167.644 115.964 167.729 116.008C167.837 116.064 167.92 116.156 167.965 116.268C168 116.357 168 116.466 168 116.684V117.316C168 117.534 168 117.643 167.965 117.731C167.921 117.844 167.837 117.936 167.729 117.992C167.644 118.036 167.536 118.046 167.319 118.068C166.909 118.109 166.704 118.129 166.591 118.215C166.521 118.269 166.466 118.34 166.432 118.422C166.399 118.503 166.387 118.593 166.399 118.68C166.418 118.82 166.549 118.98 166.809 119.299C166.947 119.467 167.016 119.551 167.045 119.642C167.082 119.758 167.076 119.882 167.028 119.993C166.99 120.081 166.913 120.158 166.759 120.312L166.312 120.759C166.158 120.913 166.081 120.99 165.993 121.028C165.882 121.076 165.758 121.082 165.642 121.045C165.552 121.016 165.467 120.947 165.299 120.809C164.979 120.548 164.82 120.418 164.68 120.399C164.593 120.387 164.503 120.399 164.422 120.432C164.34 120.466 164.269 120.521 164.215 120.591C164.129 120.703 164.109 120.909 164.068 121.319C164.046 121.536 164.036 121.644 163.992 121.729C163.937 121.837 163.844 121.92 163.732 121.965C163.643 122 163.534 122 163.316 122H162.684C162.466 122 162.357 122 162.269 121.965C162.156 121.921 162.064 121.837 162.008 121.729C161.964 121.644 161.954 121.536 161.932 121.319C161.891 120.909 161.871 120.704 161.785 120.591C161.731 120.521 161.66 120.466 161.578 120.433C161.497 120.399 161.408 120.387 161.32 120.399C161.18 120.418 161.02 120.548 160.701 120.809C160.533 120.948 160.448 121.016 160.358 121.045C160.242 121.082 160.118 121.076 160.007 121.028C159.919 120.99 159.841 120.913 159.688 120.759L159.241 120.312C159.087 120.158 159.01 120.081 158.972 119.993C158.924 119.882 158.918 119.758 158.954 119.642C158.983 119.552 159.053 119.467 159.191 119.299C159.452 118.979 159.583 118.82 159.601 118.68C159.613 118.592 159.601 118.503 159.567 118.422C159.534 118.34 159.479 118.269 159.409 118.215C159.296 118.129 159.091 118.109 158.681 118.068C158.464 118.046 158.355 118.036 158.27 117.992C158.163 117.936 158.08 117.844 158.036 117.732C158 117.643 158 117.534 158 117.316V116.684C158 116.466 158 116.357 158.035 116.269C158.079 116.156 158.163 116.064 158.271 116.008C158.356 115.964 158.464 115.954 158.681 115.932C159.091 115.891 159.296 115.871 159.409 115.785C159.479 115.731 159.534 115.66 159.568 115.578C159.602 115.497 159.613 115.408 159.602 115.32C159.582 115.18 159.452 115.02 159.191 114.701C159.053 114.532 158.983 114.448 158.954 114.357C158.918 114.242 158.924 114.117 158.972 114.006C159.01 113.919 159.087 113.842 159.241 113.688L159.688 113.241C159.842 113.087 159.919 113.01 160.007 112.972C160.118 112.924 160.242 112.918 160.358 112.954C160.448 112.983 160.533 113.053 160.701 113.191C161.02 113.452 161.18 113.582 161.32 113.601C161.408 113.613 161.497 113.601 161.578 113.568C161.66 113.534 161.731 113.479 161.785 113.408C161.87 113.296 161.891 113.091 161.932 112.681C161.954 112.464 161.964 112.355 162.008 112.27C162.064 112.163 162.156 112.079 162.268 112.035C162.357 112 162.466 112 162.684 112H163.316C163.534 112 163.643 112 163.731 112.035C163.844 112.079 163.936 112.163 163.992 112.271ZM163 119C163.53 119 164.039 118.789 164.414 118.414C164.789 118.039 165 117.53 165 117C165 116.47 164.789 115.961 164.414 115.586C164.039 115.211 163.53 115 163 115C162.47 115 161.961 115.211 161.586 115.586C161.211 115.961 161 116.47 161 117C161 117.53 161.211 118.039 161.586 118.414C161.961 118.789 162.47 119 163 119Z" fill="white"/>
<defs>
<filter id="filter0_d_402_485" x="43" y="60" width="249.875" height="362.076" filterUnits="userSpaceOnUse" color-interpolation-filters="sRGB">
<feFlood flood-opacity="0" result="BackgroundImageFix"/>
<feColorMatrix in="SourceAlpha" type="matrix" values="0 0 0 0 0 0 0 0 0 0 0 0 0 0 0 0 0 0 127 0" result="hardAlpha"/>
<feOffset dy="4"/>
<feGaussianBlur stdDeviation="2"/>
<feComposite in2="hardAlpha" operator="out"/>
<feColorMatrix type="matrix" values="0 0 0 0 0 0 0 0 0 0 0 0 0 0 0 0 0 0 0.25 0"/>
<feBlend mode="normal" in2="BackgroundImageFix" result="effect1_dropShadow_402_485"/>
<feBlend mode="normal" in="SourceGraphic" in2="effect1_dropShadow_402_485" result="shape"/>
</filter>
<clipPath id="clip0_402_485">
<rect width="24" height="24" fill="white" transform="translate(155 89)"/>
</clipPath>
</defs>
</svg>
