<svg width="324" height="461" viewBox="0 0 324 461" fill="none" xmlns="http://www.w3.org/2000/svg">
<rect x="13.2188" y="14.1372" width="309.253" height="445.365" rx="41.5" stroke="#E1114C" stroke-width="3"/>
<circle cx="15.1747" cy="395.921" r="14.6747" fill="#E1114C" stroke="#E1114C"/>
<circle cx="262.573" cy="15.1752" r="14.6747" fill="#E1114C" stroke="#E1114C"/>
<g filter="url(#filter0_d_401_477)">
<rect x="47" y="60.0005" width="241.875" height="354.076" rx="40" fill="white"/>
</g>
<circle cx="167.5" cy="105.5" r="27.5" fill="#E1114C"/>
<path fill-rule="evenodd" clip-rule="evenodd" d="M170.325 97.7505H165.675C165.528 98.4711 165.172 99.1327 164.652 99.6528C164.132 100.173 163.471 100.528 162.75 100.675V101.325C163.471 101.472 164.132 101.828 164.652 102.348C165.172 102.868 165.528 103.53 165.675 104.25H170.325C170.472 103.53 170.828 102.868 171.348 102.348C171.868 101.828 172.529 101.472 173.25 101.325V100.675C172.529 100.528 171.868 100.173 171.348 99.6528C170.828 99.1327 170.472 98.4711 170.325 97.7505ZM170.93 96.2535C170.655 96.2508 170.363 96.2498 170.052 96.2505H165.948C165.637 96.2505 165.345 96.2515 165.071 96.2535C165.016 96.25 164.961 96.251 164.907 96.2565C164.455 96.2645 164.054 96.2835 163.706 96.3305C163.078 96.4145 162.511 96.6005 162.056 97.0555C161.6 97.5115 161.414 98.0785 161.33 98.7055C161.283 99.0545 161.264 99.4555 161.256 99.9075C161.251 99.9616 161.25 100.016 161.253 100.07C161.25 100.346 161.249 100.638 161.25 100.948V101.052C161.25 101.362 161.251 101.655 161.253 101.93C161.25 101.985 161.251 102.039 161.256 102.093C161.264 102.546 161.283 102.946 161.33 103.294C161.414 103.922 161.6 104.489 162.056 104.944C162.511 105.4 163.078 105.586 163.706 105.67C164.054 105.717 164.455 105.736 164.907 105.744C164.961 105.75 165.016 105.751 165.071 105.747C165.345 105.75 165.637 105.751 165.948 105.75H170.052C170.362 105.75 170.655 105.749 170.93 105.747C170.984 105.751 171.039 105.75 171.093 105.744C171.546 105.736 171.947 105.717 172.294 105.67C172.922 105.586 173.489 105.4 173.944 104.944C174.4 104.489 174.586 103.922 174.67 103.294C174.717 102.896 174.741 102.495 174.744 102.093C174.749 102.039 174.75 101.985 174.747 101.93C174.75 101.655 174.751 101.362 174.75 101.052V100.948C174.75 100.638 174.749 100.346 174.747 100.07C174.75 100.016 174.749 99.9616 174.744 99.9075C174.741 99.5061 174.717 99.1052 174.67 98.7065C174.586 98.0785 174.4 97.5115 173.945 97.0565C173.489 96.6005 172.922 96.4145 172.295 96.3305C171.896 96.2839 171.495 96.2592 171.093 96.2565C171.039 96.251 170.984 96.25 170.93 96.2535ZM171.894 97.7945C172.007 98.0936 172.183 98.3652 172.409 98.5913C172.635 98.8175 172.907 98.9931 173.206 99.1065C173.2 99.0397 173.192 98.973 173.183 98.9065C173.122 98.4445 173.014 98.2465 172.883 98.1165C172.752 97.9865 172.556 97.8795 172.095 97.8165C172.028 97.8078 171.962 97.8005 171.895 97.7945M173.207 102.894C172.908 103.008 172.636 103.183 172.41 103.41C172.184 103.636 172.008 103.907 171.895 104.206C171.965 104.2 172.032 104.192 172.095 104.184C172.557 104.121 172.755 104.014 172.885 103.884C173.015 103.754 173.123 103.556 173.185 103.094C173.193 103.031 173.2 102.964 173.207 102.894ZM164.107 104.206C163.994 103.907 163.818 103.636 163.592 103.41C163.366 103.183 163.094 103.008 162.795 102.894C162.802 102.964 162.809 103.031 162.818 103.094C162.88 103.556 162.987 103.754 163.118 103.884C163.249 104.014 163.445 104.121 163.906 104.184C163.97 104.192 164.037 104.2 164.107 104.206ZM162.795 99.1065C163.094 98.9931 163.366 98.8175 163.592 98.5913C163.818 98.3652 163.994 98.0936 164.107 97.7945C164.037 97.8011 163.97 97.8088 163.907 97.8175C163.445 97.8795 163.247 97.9865 163.117 98.1175C162.987 98.2485 162.88 98.4445 162.817 98.9055L162.795 99.1065ZM168 100.75C167.934 100.75 167.87 100.777 167.823 100.824C167.776 100.871 167.75 100.934 167.75 101C167.75 101.067 167.776 101.13 167.823 101.177C167.87 101.224 167.934 101.25 168 101.25C168.066 101.25 168.13 101.224 168.177 101.177C168.224 101.13 168.25 101.067 168.25 101C168.25 100.934 168.224 100.871 168.177 100.824C168.13 100.777 168.066 100.75 168 100.75ZM166.25 101C166.25 100.536 166.434 100.091 166.763 99.763C167.091 99.4348 167.536 99.2505 168 99.2505C168.464 99.2505 168.909 99.4348 169.237 99.763C169.566 100.091 169.75 100.536 169.75 101C169.75 101.465 169.566 101.91 169.237 102.238C168.909 102.566 168.464 102.75 168 102.75C167.536 102.75 167.091 102.566 166.763 102.238C166.434 101.91 166.25 101.465 166.25 101ZM164.684 108.448C166.55 108.087 168.547 108.168 170.164 109.132C170.39 109.267 170.604 109.436 170.789 109.644C171.165 110.067 171.359 110.591 171.368 111.117C171.559 110.993 171.751 110.858 171.945 110.71L173.753 109.345C174.206 109.013 174.753 108.834 175.315 108.834C175.877 108.834 176.424 109.013 176.877 109.345C177.712 109.975 178.046 111.108 177.447 112.068C177.022 112.749 176.382 113.692 175.73 114.296C175.07 114.906 174.133 115.42 173.424 115.762C172.562 116.178 171.632 116.408 170.727 116.554C168.877 116.854 166.953 116.808 165.125 116.431C164.182 116.238 163.222 116.139 162.26 116.138H160C159.801 116.138 159.61 116.059 159.47 115.919C159.329 115.778 159.25 115.587 159.25 115.388C159.25 115.19 159.329 114.999 159.47 114.858C159.61 114.717 159.801 114.638 160 114.638H162.26C163.322 114.638 164.395 114.749 165.428 114.962C167.094 115.304 168.808 115.342 170.488 115.073C171.316 114.939 172.09 114.74 172.772 114.411C173.455 114.081 174.223 113.647 174.71 113.196C175.203 112.739 175.754 111.948 176.175 111.274C176.302 111.07 176.284 110.777 175.973 110.542C175.603 110.262 175.026 110.262 174.657 110.542L172.85 111.907C172.128 112.452 171.24 113.035 170.139 113.211C170.024 113.23 169.908 113.246 169.792 113.259C169.735 113.269 169.675 113.276 169.613 113.279C168.971 113.342 168.323 113.342 167.681 113.279C167.581 113.272 167.484 113.245 167.395 113.2C167.306 113.155 167.227 113.092 167.163 113.016C167.098 112.94 167.049 112.851 167.02 112.756C166.99 112.661 166.979 112.56 166.989 112.461C166.998 112.361 167.027 112.265 167.074 112.177C167.121 112.089 167.186 112.011 167.263 111.948C167.341 111.886 167.43 111.839 167.526 111.811C167.622 111.783 167.723 111.775 167.822 111.786C168.377 111.84 168.935 111.839 169.49 111.783L169.52 111.78C169.613 111.723 169.693 111.645 169.752 111.552C169.812 111.46 169.85 111.356 169.864 111.247C169.879 111.138 169.869 111.027 169.835 110.923C169.801 110.818 169.745 110.723 169.67 110.642C169.59 110.555 169.497 110.48 169.395 110.42C168.214 109.715 166.636 109.598 164.969 109.92C163.341 110.247 161.797 110.906 160.434 111.855C160.354 111.912 160.263 111.953 160.167 111.975C160.071 111.997 159.971 112 159.874 111.983C159.777 111.967 159.684 111.931 159.601 111.879C159.517 111.826 159.445 111.758 159.388 111.677C159.331 111.597 159.29 111.506 159.268 111.41C159.247 111.314 159.244 111.215 159.26 111.118C159.294 110.921 159.404 110.747 159.566 110.631C161.103 109.559 162.846 108.816 164.684 108.448Z" fill="white"/>
<defs>
<filter id="filter0_d_401_477" x="43" y="60.0005" width="249.875" height="362.076" filterUnits="userSpaceOnUse" color-interpolation-filters="sRGB">
<feFlood flood-opacity="0" result="BackgroundImageFix"/>
<feColorMatrix in="SourceAlpha" type="matrix" values="0 0 0 0 0 0 0 0 0 0 0 0 0 0 0 0 0 0 127 0" result="hardAlpha"/>
<feOffset dy="4"/>
<feGaussianBlur stdDeviation="2"/>
<feComposite in2="hardAlpha" operator="out"/>
<feColorMatrix type="matrix" values="0 0 0 0 0 0 0 0 0 0 0 0 0 0 0 0 0 0 0.25 0"/>
<feBlend mode="normal" in2="BackgroundImageFix" result="effect1_dropShadow_401_477"/>
<feBlend mode="normal" in="SourceGraphic" in2="effect1_dropShadow_401_477" result="shape"/>
</filter>
</defs>
</svg>
