<svg width="324" height="461" viewBox="0 0 324 461" fill="none" xmlns="http://www.w3.org/2000/svg">
<rect x="13.2188" y="14.1372" width="309.253" height="445.365" rx="41.5" stroke="#E1114C" stroke-width="3"/>
<circle cx="15.1747" cy="395.921" r="14.6747" fill="#E1114C" stroke="#E1114C"/>
<circle cx="262.573" cy="15.1752" r="14.6747" fill="#E1114C" stroke="#E1114C"/>
<g filter="url(#filter0_d_401_476)">
<rect x="47" y="60.0005" width="241.875" height="354.076" rx="40" fill="white"/>
</g>
<circle cx="167.5" cy="105.5" r="27.5" fill="#E1114C"/>
<path d="M169 112V114H173V116H163V114H167V112H158.992C158.861 111.999 158.731 111.973 158.61 111.921C158.489 111.87 158.379 111.796 158.287 111.702C158.195 111.608 158.122 111.498 158.073 111.376C158.024 111.254 157.999 111.124 158 110.992V98.0085C158 97.4515 158.455 97.0005 158.992 97.0005H177.008C177.556 97.0005 178 97.4495 178 98.0075V110.992C178 111.549 177.545 112 177.008 112H169Z" fill="white"/>
<g clip-path="url(#clip0_401_476)">
<path fill-rule="evenodd" clip-rule="evenodd" d="M168.962 102.361C168.835 102.361 168.713 102.411 168.623 102.501C168.533 102.591 168.482 102.713 168.482 102.841V106.681C168.482 106.808 168.533 106.93 168.623 107.02C168.713 107.11 168.835 107.161 168.962 107.161H170.882C171.009 107.161 171.132 107.11 171.222 107.02C171.312 106.93 171.362 106.808 171.362 106.681V102.841C171.362 102.713 171.312 102.591 171.222 102.501C171.132 102.411 171.009 102.361 170.882 102.361H168.962ZM170.402 103.321H169.442V106.201H170.402V103.321Z" fill="#E1114C"/>
<path d="M165.122 102.361C164.995 102.361 164.873 102.411 164.783 102.501C164.693 102.591 164.642 102.713 164.642 102.841C164.642 102.968 164.693 103.09 164.783 103.18C164.873 103.27 164.995 103.321 165.122 103.321H167.042C167.169 103.321 167.292 103.27 167.382 103.18C167.472 103.09 167.522 102.968 167.522 102.841C167.522 102.713 167.472 102.591 167.382 102.501C167.292 102.411 167.169 102.361 167.042 102.361H165.122ZM165.122 104.281C164.995 104.281 164.873 104.331 164.783 104.421C164.693 104.511 164.642 104.633 164.642 104.761C164.642 104.888 164.693 105.01 164.783 105.1C164.873 105.19 164.995 105.241 165.122 105.241H167.042C167.169 105.241 167.292 105.19 167.382 105.1C167.472 105.01 167.522 104.888 167.522 104.761C167.522 104.633 167.472 104.511 167.382 104.421C167.292 104.331 167.169 104.281 167.042 104.281H165.122ZM164.642 106.681C164.642 106.553 164.693 106.431 164.783 106.341C164.873 106.251 164.995 106.201 165.122 106.201H167.042C167.169 106.201 167.292 106.251 167.382 106.341C167.472 106.431 167.522 106.553 167.522 106.681C167.522 106.808 167.472 106.93 167.382 107.02C167.292 107.11 167.169 107.161 167.042 107.161H165.122C164.995 107.161 164.873 107.11 164.783 107.02C164.693 106.93 164.642 106.808 164.642 106.681Z" fill="#E1114C"/>
<path fill-rule="evenodd" clip-rule="evenodd" d="M164.162 100.44C163.78 100.44 163.414 100.592 163.144 100.862C162.874 101.132 162.722 101.499 162.722 101.88V107.64C162.722 108.022 162.874 108.389 163.144 108.659C163.414 108.929 163.78 109.08 164.162 109.08H171.842C172.224 109.08 172.59 108.929 172.86 108.659C173.13 108.389 173.282 108.022 173.282 107.64V101.88C173.282 101.499 173.13 101.132 172.86 100.862C172.59 100.592 172.224 100.44 171.842 100.44H164.162ZM171.842 101.4H164.162C164.035 101.4 163.913 101.451 163.823 101.541C163.733 101.631 163.682 101.753 163.682 101.88V107.64C163.682 107.768 163.733 107.89 163.823 107.98C163.913 108.07 164.035 108.12 164.162 108.12H171.842C171.969 108.12 172.092 108.07 172.182 107.98C172.272 107.89 172.322 107.768 172.322 107.64V101.88C172.322 101.753 172.272 101.631 172.182 101.541C172.092 101.451 171.969 101.4 171.842 101.4Z" fill="#E1114C"/>
</g>
<defs>
<filter id="filter0_d_401_476" x="43" y="60.0005" width="249.875" height="362.076" filterUnits="userSpaceOnUse" color-interpolation-filters="sRGB">
<feFlood flood-opacity="0" result="BackgroundImageFix"/>
<feColorMatrix in="SourceAlpha" type="matrix" values="0 0 0 0 0 0 0 0 0 0 0 0 0 0 0 0 0 0 127 0" result="hardAlpha"/>
<feOffset dy="4"/>
<feGaussianBlur stdDeviation="2"/>
<feComposite in2="hardAlpha" operator="out"/>
<feColorMatrix type="matrix" values="0 0 0 0 0 0 0 0 0 0 0 0 0 0 0 0 0 0 0.25 0"/>
<feBlend mode="normal" in2="BackgroundImageFix" result="effect1_dropShadow_401_476"/>
<feBlend mode="normal" in="SourceGraphic" in2="effect1_dropShadow_401_476" result="shape"/>
</filter>
<clipPath id="clip0_401_476">
<rect width="11.52" height="11.52" fill="white" transform="translate(162.242 99.0005)"/>
</clipPath>
</defs>
</svg>
