<svg width="324" height="461" viewBox="0 0 324 461" fill="none" xmlns="http://www.w3.org/2000/svg">
<rect x="13.2188" y="14.1372" width="309.253" height="445.365" rx="41.5" stroke="#E1114C" stroke-width="3"/>
<circle cx="15.1747" cy="395.921" r="14.6747" fill="#E1114C" stroke="#E1114C"/>
<circle cx="262.573" cy="15.1752" r="14.6747" fill="#E1114C" stroke="#E1114C"/>
<g filter="url(#filter0_d_401_475)">
<rect x="47" y="60.0005" width="241.875" height="354.076" rx="40" fill="white"/>
</g>
<circle cx="167.5" cy="105.5" r="27.5" fill="#E1114C"/>
<path d="M171.8 97.3005C171.8 97.0618 171.895 96.8329 172.064 96.6641C172.232 96.4953 172.461 96.4005 172.7 96.4005H175.7C175.939 96.4005 176.168 96.4953 176.336 96.6641C176.505 96.8329 176.6 97.0618 176.6 97.3005V100.3C176.6 100.539 176.505 100.768 176.336 100.937C176.168 101.106 175.939 101.2 175.7 101.2C175.461 101.2 175.232 101.106 175.064 100.937C174.895 100.768 174.8 100.539 174.8 100.3V99.4725L169.436 104.836C169.267 105.005 169.039 105.1 168.8 105.1C168.562 105.1 168.333 105.005 168.164 104.836L165.2 101.872L160.136 106.936C160.054 107.025 159.954 107.096 159.844 107.145C159.733 107.194 159.614 107.221 159.493 107.223C159.373 107.225 159.253 107.203 159.141 107.157C159.028 107.112 158.927 107.045 158.841 106.959C158.756 106.874 158.688 106.772 158.643 106.66C158.598 106.548 158.576 106.428 158.578 106.307C158.58 106.186 158.606 106.067 158.655 105.957C158.705 105.846 158.776 105.747 158.864 105.664L164.564 99.9645C164.733 99.7959 164.962 99.7013 165.2 99.7013C165.439 99.7013 165.667 99.7959 165.836 99.9645L168.8 102.928L173.528 98.2005H172.7C172.461 98.2005 172.232 98.1057 172.064 97.9369C171.895 97.7681 171.8 97.5392 171.8 97.3005ZM159.5 110.8C159.739 110.8 159.968 110.895 160.136 111.064C160.305 111.233 160.4 111.462 160.4 111.7V114.7C160.4 114.939 160.305 115.168 160.136 115.337C159.968 115.506 159.739 115.6 159.5 115.6C159.261 115.6 159.032 115.506 158.864 115.337C158.695 115.168 158.6 114.939 158.6 114.7V111.7C158.6 111.462 158.695 111.233 158.864 111.064C159.032 110.895 159.261 110.8 159.5 110.8ZM165.2 108.1C165.2 107.862 165.105 107.633 164.936 107.464C164.768 107.295 164.539 107.2 164.3 107.2C164.061 107.2 163.832 107.295 163.664 107.464C163.495 107.633 163.4 107.862 163.4 108.1V114.7C163.4 114.939 163.495 115.168 163.664 115.337C163.832 115.506 164.061 115.6 164.3 115.6C164.539 115.6 164.768 115.506 164.936 115.337C165.105 115.168 165.2 114.939 165.2 114.7V108.1ZM169.1 109.6C169.339 109.6 169.568 109.695 169.736 109.864C169.905 110.033 170 110.262 170 110.5V114.7C170 114.939 169.905 115.168 169.736 115.337C169.568 115.506 169.339 115.6 169.1 115.6C168.861 115.6 168.632 115.506 168.464 115.337C168.295 115.168 168.2 114.939 168.2 114.7V110.5C168.2 110.262 168.295 110.033 168.464 109.864C168.632 109.695 168.861 109.6 169.1 109.6ZM174.8 105.7C174.8 105.462 174.705 105.233 174.536 105.064C174.368 104.895 174.139 104.8 173.9 104.8C173.661 104.8 173.432 104.895 173.264 105.064C173.095 105.233 173 105.462 173 105.7V114.7C173 114.939 173.095 115.168 173.264 115.337C173.432 115.506 173.661 115.6 173.9 115.6C174.139 115.6 174.368 115.506 174.536 115.337C174.705 115.168 174.8 114.939 174.8 114.7V105.7Z" fill="white"/>
<defs>
<filter id="filter0_d_401_475" x="43" y="60.0005" width="249.875" height="362.076" filterUnits="userSpaceOnUse" color-interpolation-filters="sRGB">
<feFlood flood-opacity="0" result="BackgroundImageFix"/>
<feColorMatrix in="SourceAlpha" type="matrix" values="0 0 0 0 0 0 0 0 0 0 0 0 0 0 0 0 0 0 127 0" result="hardAlpha"/>
<feOffset dy="4"/>
<feGaussianBlur stdDeviation="2"/>
<feComposite in2="hardAlpha" operator="out"/>
<feColorMatrix type="matrix" values="0 0 0 0 0 0 0 0 0 0 0 0 0 0 0 0 0 0 0.25 0"/>
<feBlend mode="normal" in2="BackgroundImageFix" result="effect1_dropShadow_401_475"/>
<feBlend mode="normal" in="SourceGraphic" in2="effect1_dropShadow_401_475" result="shape"/>
</filter>
</defs>
</svg>
