<svg width="344" height="426" viewBox="0 0 344 426" fill="none" xmlns="http://www.w3.org/2000/svg">
<path d="M0.00634766 90.0005C0.00634766 40.2949 40.3007 0.000488281 90.0063 0.000488281H344.006V336C344.006 385.706 303.712 426 254.006 426H0.00634766V90.0005Z" fill="#FABF6B"/>
<circle cx="172.006" cy="83.0005" r="50" fill="white"/>
<path d="M162.006 71.7505H160.756C160.425 71.7505 160.107 71.8822 159.872 72.1166C159.638 72.351 159.506 72.669 159.506 73.0005V90.5005L161.381 94.2505L163.256 90.5005V73.0005C163.256 72.669 163.125 72.351 162.89 72.1166C162.656 71.8822 162.338 71.7505 162.006 71.7505Z" stroke="#E1114C" stroke-width="1.875" stroke-linejoin="round"/>
<path d="M183.256 83.0017V78.0017C183.256 75.0542 183.256 73.5817 182.341 72.6655C181.425 71.7505 179.953 71.7505 177.006 71.7505H173.256C170.31 71.7505 168.836 71.7505 167.921 72.6655C167.006 73.5817 167.006 75.0542 167.006 78.0017V88.0017C167.006 90.9492 167.006 92.423 167.921 93.3392C168.696 94.1142 169.873 94.2317 172.006 94.2505M172.006 76.7505H178.256M172.006 81.7505H178.256" stroke="#E1114C" stroke-width="1.875" stroke-linecap="round" stroke-linejoin="round"/>
<path d="M174.506 91.7505C174.506 91.7505 176.381 92.3755 177.631 94.2505C177.631 94.2505 179.506 89.2505 184.506 86.7505M159.506 76.7505H163.256" stroke="#E1114C" stroke-width="1.875" stroke-linecap="round" stroke-linejoin="round"/>
</svg>
