<svg width="344" height="426" viewBox="0 0 344 426" fill="none" xmlns="http://www.w3.org/2000/svg">
<path d="M0.00634766 90.0005C0.00634766 40.2949 40.3007 0.000488281 90.0063 0.000488281H344.006V336C344.006 385.706 303.712 426 254.006 426H0.00634766V90.0005Z" fill="#FABF6B"/>
<circle cx="172.006" cy="83.0005" r="50" fill="white"/>
<path d="M173.249 90.5005V93.0005H178.249V95.5005H165.749V93.0005H170.749V90.5005H160.739C160.574 90.4992 160.412 90.4656 160.261 90.4015C160.11 90.3375 159.973 90.2443 159.858 90.1273C159.742 90.0103 159.651 89.8718 159.59 89.7196C159.528 89.5674 159.497 89.4046 159.499 89.2405V73.0105C159.499 72.3142 160.067 71.7505 160.739 71.7505H183.259C183.944 71.7505 184.499 72.3117 184.499 73.0092V89.2405C184.499 89.9367 183.93 90.5005 183.259 90.5005H173.249Z" fill="#E1114C"/>
<path fill-rule="evenodd" clip-rule="evenodd" d="M173.202 77.2004C173.042 77.2004 172.89 77.2637 172.777 77.3762C172.665 77.4887 172.602 77.6413 172.602 77.8004V82.6004C172.602 82.7596 172.665 82.9122 172.777 83.0247C172.89 83.1372 173.042 83.2004 173.202 83.2004H175.602C175.761 83.2004 175.913 83.1372 176.026 83.0247C176.138 82.9122 176.202 82.7596 176.202 82.6004V77.8004C176.202 77.6413 176.138 77.4887 176.026 77.3762C175.913 77.2637 175.761 77.2004 175.602 77.2004H173.202ZM175.002 78.4004H173.802V82.0004H175.002V78.4004Z" fill="white"/>
<path d="M168.401 77.2004C168.242 77.2004 168.09 77.2637 167.977 77.3762C167.864 77.4887 167.801 77.6413 167.801 77.8004C167.801 77.9596 167.864 78.1122 167.977 78.2247C168.09 78.3372 168.242 78.4004 168.401 78.4004H170.801C170.96 78.4004 171.113 78.3372 171.226 78.2247C171.338 78.1122 171.401 77.9596 171.401 77.8004C171.401 77.6413 171.338 77.4887 171.226 77.3762C171.113 77.2637 170.96 77.2004 170.801 77.2004H168.401ZM168.401 79.6004C168.242 79.6004 168.09 79.6637 167.977 79.7762C167.864 79.8887 167.801 80.0413 167.801 80.2004C167.801 80.3596 167.864 80.5122 167.977 80.6247C168.09 80.7372 168.242 80.8004 168.401 80.8004H170.801C170.96 80.8004 171.113 80.7372 171.226 80.6247C171.338 80.5122 171.401 80.3596 171.401 80.2004C171.401 80.0413 171.338 79.8887 171.226 79.7762C171.113 79.6637 170.96 79.6004 170.801 79.6004H168.401ZM167.801 82.6004C167.801 82.4413 167.864 82.2887 167.977 82.1762C168.09 82.0637 168.242 82.0004 168.401 82.0004H170.801C170.96 82.0004 171.113 82.0637 171.226 82.1762C171.338 82.2887 171.401 82.4413 171.401 82.6004C171.401 82.7596 171.338 82.9122 171.226 83.0247C171.113 83.1372 170.96 83.2004 170.801 83.2004H168.401C168.242 83.2004 168.09 83.1372 167.977 83.0247C167.864 82.9122 167.801 82.7596 167.801 82.6004Z" fill="white"/>
<path fill-rule="evenodd" clip-rule="evenodd" d="M167.201 74.8005C166.724 74.8005 166.266 74.9902 165.929 75.3277C165.591 75.6653 165.401 76.1231 165.401 76.6005V83.8005C165.401 84.2779 165.591 84.7358 165.929 85.0733C166.266 85.4109 166.724 85.6005 167.201 85.6005H176.801C177.279 85.6005 177.737 85.4109 178.074 85.0733C178.412 84.7358 178.601 84.2779 178.601 83.8005V76.6005C178.601 76.1231 178.412 75.6653 178.074 75.3277C177.737 74.9902 177.279 74.8005 176.801 74.8005H167.201ZM176.801 76.0005H167.201C167.042 76.0005 166.89 76.0638 166.777 76.1763C166.665 76.2888 166.601 76.4414 166.601 76.6005V83.8005C166.601 83.9597 166.665 84.1123 166.777 84.2248C166.89 84.3373 167.042 84.4005 167.201 84.4005H176.801C176.96 84.4005 177.113 84.3373 177.226 84.2248C177.338 84.1123 177.401 83.9597 177.401 83.8005V76.6005C177.401 76.4414 177.338 76.2888 177.226 76.1763C177.113 76.0638 176.96 76.0005 176.801 76.0005Z" fill="white"/>
</svg>
