<svg width="344" height="426" viewBox="0 0 344 426" fill="none" xmlns="http://www.w3.org/2000/svg">
<path d="M0.00634766 90.0005C0.00634766 40.2949 40.3007 0.000488281 90.0063 0.000488281H344.006V336C344.006 385.706 303.712 426 254.006 426H0.00634766V90.0005Z" fill="#FABF6B"/>
<circle cx="172.006" cy="83.0005" r="50" fill="white"/>
<path d="M172.006 69.2505L160.756 74.2505V81.7505C160.756 88.688 165.556 95.1755 172.006 96.7505C178.456 95.1755 183.256 88.688 183.256 81.7505V74.2505L172.006 69.2505ZM172.006 76.7505C173.756 76.7505 175.506 78.1255 175.506 79.8755V81.7505C176.256 81.7505 177.006 82.5005 177.006 83.3755V87.7505C177.006 88.5005 176.256 89.2505 175.381 89.2505H168.506C167.756 89.2505 167.006 88.5005 167.006 87.6255V83.2505C167.006 82.5005 167.756 81.7505 168.506 81.7505V79.8755C168.506 78.1255 170.256 76.7505 172.006 76.7505ZM172.006 78.2505C171.006 78.2505 170.131 78.8755 170.131 79.8755V81.7505H173.881V79.8755C173.881 78.8755 173.006 78.2505 172.006 78.2505Z" fill="#E1114C"/>
</svg>
