<svg width="344" height="426" viewBox="0 0 344 426" fill="none" xmlns="http://www.w3.org/2000/svg">
<path d="M0 90.0005C0 40.2949 40.2944 0.000488281 90 0.000488281H344V336C344 385.706 303.706 426 254 426H0V90.0005Z" fill="#E1114C"/>
<circle cx="172" cy="83.0005" r="50" fill="white"/>
<g clip-path="url(#clip0_523_5407)">
<path d="M172 73.0005C170.022 73.0005 168.089 73.587 166.444 74.6858C164.8 75.7846 163.518 77.3464 162.761 79.1737C162.004 81.0009 161.806 83.0116 162.192 84.9514C162.578 86.8912 163.53 88.673 164.929 90.0716C166.327 91.4701 168.109 92.4225 170.049 92.8083C171.989 93.1942 174 92.9962 175.827 92.2393C177.654 91.4824 179.216 90.2007 180.315 88.5562C181.414 86.9117 182 84.9783 182 83.0005C181.999 80.3486 180.945 77.8057 179.07 75.9305C177.195 74.0554 174.652 73.0015 172 73.0005ZM164.5 83.0005C164.502 82.5412 164.546 82.083 164.631 81.6317L169 86.0005V87.0005C169.002 87.5304 169.213 88.0382 169.588 88.4129C169.962 88.7876 170.47 88.9988 171 89.0005V90.4255C169.202 90.1825 167.553 89.2966 166.358 87.9315C165.163 86.5664 164.503 84.8147 164.5 83.0005ZM176 87.0005H175V84.0005C175 83.8692 174.974 83.7391 174.924 83.6178C174.874 83.4965 174.8 83.3862 174.707 83.2934C174.614 83.2005 174.504 83.1269 174.383 83.0766C174.261 83.0264 174.131 83.0005 174 83.0005H168V81.0005H170C170.265 81.0005 170.52 80.8951 170.707 80.7076C170.895 80.5201 171 80.2657 171 80.0005V78.0005H173C173.507 77.9983 173.995 77.8034 174.364 77.4553C174.733 77.1072 174.956 76.6318 174.988 76.1255C176.068 76.5926 177.023 77.3082 177.775 78.214C178.527 79.1198 179.055 80.1903 179.315 81.3384C179.575 82.4866 179.561 83.6799 179.273 84.8214C178.985 85.963 178.432 87.0205 177.659 87.908C177.481 87.6293 177.236 87.4 176.946 87.2413C176.656 87.0827 176.331 86.9998 176 87.0005ZM173.25 69.2505C173.25 69.4977 173.177 69.7394 173.039 69.945C172.902 70.1505 172.707 70.3107 172.478 70.4053C172.25 70.4999 171.999 70.5247 171.756 70.4765C171.514 70.4282 171.291 70.3092 171.116 70.1344C170.941 69.9596 170.822 69.7368 170.774 69.4944C170.726 69.2519 170.751 69.0005 170.845 68.7721C170.94 68.5437 171.1 68.3485 171.306 68.2112C171.511 68.0738 171.753 68.0005 172 68.0005C172.332 68.0005 172.649 68.1322 172.884 68.3666C173.118 68.601 173.25 68.919 173.25 69.2505ZM179.5 70.5005C179.5 70.7477 179.427 70.9894 179.289 71.195C179.152 71.4005 178.957 71.5607 178.728 71.6553C178.5 71.7499 178.249 71.7747 178.006 71.7265C177.764 71.6782 177.541 71.5592 177.366 71.3844C177.191 71.2096 177.072 70.9868 177.024 70.7444C176.976 70.5019 177.001 70.2505 177.095 70.0221C177.19 69.7937 177.35 69.5985 177.556 69.4612C177.761 69.3238 178.003 69.2505 178.25 69.2505C178.582 69.2505 178.899 69.3822 179.134 69.6166C179.368 69.851 179.5 70.169 179.5 70.5005ZM184.5 75.5005C184.5 75.7477 184.427 75.9894 184.289 76.195C184.152 76.4005 183.957 76.5607 183.728 76.6553C183.5 76.7499 183.249 76.7747 183.006 76.7265C182.764 76.6782 182.541 76.5592 182.366 76.3844C182.191 76.2096 182.072 75.9868 182.024 75.7444C181.976 75.5019 182.001 75.2505 182.095 75.0221C182.19 74.7937 182.35 74.5985 182.556 74.4612C182.761 74.3238 183.003 74.2505 183.25 74.2505C183.582 74.2505 183.899 74.3822 184.134 74.6166C184.368 74.851 184.5 75.169 184.5 75.5005ZM187 83.0005C187 83.2477 186.927 83.4894 186.789 83.695C186.652 83.9005 186.457 84.0607 186.228 84.1553C186 84.2499 185.749 84.2747 185.506 84.2265C185.264 84.1782 185.041 84.0592 184.866 83.8844C184.691 83.7096 184.572 83.4868 184.524 83.2444C184.476 83.0019 184.501 82.7505 184.595 82.5221C184.69 82.2937 184.85 82.0985 185.056 81.9612C185.261 81.8238 185.503 81.7505 185.75 81.7505C186.082 81.7505 186.399 81.8822 186.634 82.1166C186.868 82.351 187 82.669 187 83.0005ZM184.5 90.5005C184.5 90.7477 184.427 90.9894 184.289 91.195C184.152 91.4005 183.957 91.5607 183.728 91.6553C183.5 91.7499 183.249 91.7747 183.006 91.7265C182.764 91.6782 182.541 91.5592 182.366 91.3844C182.191 91.2096 182.072 90.9868 182.024 90.7444C181.976 90.5019 182.001 90.2505 182.095 90.0221C182.19 89.7937 182.35 89.5985 182.556 89.4612C182.761 89.3238 183.003 89.2505 183.25 89.2505C183.582 89.2505 183.899 89.3822 184.134 89.6166C184.368 89.851 184.5 90.169 184.5 90.5005ZM179.5 95.5005C179.5 95.7477 179.427 95.9894 179.289 96.195C179.152 96.4005 178.957 96.5607 178.728 96.6553C178.5 96.7499 178.249 96.7747 178.006 96.7265C177.764 96.6782 177.541 96.5592 177.366 96.3844C177.191 96.2096 177.072 95.9868 177.024 95.7444C176.976 95.5019 177.001 95.2505 177.095 95.0221C177.19 94.7937 177.35 94.5985 177.556 94.4612C177.761 94.3238 178.003 94.2505 178.25 94.2505C178.582 94.2505 178.899 94.3822 179.134 94.6166C179.368 94.851 179.5 95.169 179.5 95.5005ZM173.25 96.7505C173.25 96.9977 173.177 97.2394 173.039 97.445C172.902 97.6505 172.707 97.8107 172.478 97.9053C172.25 97.9999 171.999 98.0247 171.756 97.9765C171.514 97.9282 171.291 97.8092 171.116 97.6344C170.941 97.4596 170.822 97.2368 170.774 96.9944C170.726 96.7519 170.751 96.5005 170.845 96.2721C170.94 96.0437 171.1 95.8485 171.306 95.7112C171.511 95.5738 171.753 95.5005 172 95.5005C172.332 95.5005 172.649 95.6322 172.884 95.8666C173.118 96.101 173.25 96.419 173.25 96.7505ZM167 95.5005C167 95.7477 166.927 95.9894 166.789 96.195C166.652 96.4005 166.457 96.5607 166.228 96.6553C166 96.7499 165.749 96.7747 165.506 96.7265C165.264 96.6782 165.041 96.5592 164.866 96.3844C164.691 96.2096 164.572 95.9868 164.524 95.7444C164.476 95.5019 164.501 95.2505 164.595 95.0221C164.69 94.7937 164.85 94.5985 165.056 94.4612C165.261 94.3238 165.503 94.2505 165.75 94.2505C166.082 94.2505 166.399 94.3822 166.634 94.6166C166.868 94.851 167 95.169 167 95.5005ZM162 90.5005C162 90.7477 161.927 90.9894 161.789 91.195C161.652 91.4005 161.457 91.5607 161.228 91.6553C161 91.7499 160.749 91.7747 160.506 91.7265C160.264 91.6782 160.041 91.5592 159.866 91.3844C159.691 91.2096 159.572 90.9868 159.524 90.7444C159.476 90.5019 159.501 90.2505 159.595 90.0221C159.69 89.7937 159.85 89.5985 160.056 89.4612C160.261 89.3238 160.503 89.2505 160.75 89.2505C161.082 89.2505 161.399 89.3822 161.634 89.6166C161.868 89.851 162 90.169 162 90.5005ZM159.5 83.0005C159.5 83.2477 159.427 83.4894 159.289 83.695C159.152 83.9005 158.957 84.0607 158.728 84.1553C158.5 84.2499 158.249 84.2747 158.006 84.2265C157.764 84.1782 157.541 84.0592 157.366 83.8844C157.191 83.7096 157.072 83.4868 157.024 83.2444C156.976 83.0019 157.001 82.7505 157.095 82.5221C157.19 82.2937 157.35 82.0985 157.556 81.9612C157.761 81.8238 158.003 81.7505 158.25 81.7505C158.582 81.7505 158.899 81.8822 159.134 82.1166C159.368 82.351 159.5 82.669 159.5 83.0005ZM162 75.5005C162 75.7477 161.927 75.9894 161.789 76.195C161.652 76.4005 161.457 76.5607 161.228 76.6553C161 76.7499 160.749 76.7747 160.506 76.7265C160.264 76.6782 160.041 76.5592 159.866 76.3844C159.691 76.2096 159.572 75.9868 159.524 75.7444C159.476 75.5019 159.501 75.2505 159.595 75.0221C159.69 74.7937 159.85 74.5985 160.056 74.4612C160.261 74.3238 160.503 74.2505 160.75 74.2505C161.082 74.2505 161.399 74.3822 161.634 74.6166C161.868 74.851 162 75.169 162 75.5005ZM167 70.5005C167 70.7477 166.927 70.9894 166.789 71.195C166.652 71.4005 166.457 71.5607 166.228 71.6553C166 71.7499 165.749 71.7747 165.506 71.7265C165.264 71.6782 165.041 71.5592 164.866 71.3844C164.691 71.2096 164.572 70.9868 164.524 70.7444C164.476 70.5019 164.501 70.2505 164.595 70.0221C164.69 69.7937 164.85 69.5985 165.056 69.4612C165.261 69.3238 165.503 69.2505 165.75 69.2505C166.082 69.2505 166.399 69.3822 166.634 69.6166C166.868 69.851 167 70.169 167 70.5005Z" fill="#E1114C"/>
</g>
<defs>
<clipPath id="clip0_523_5407">
<rect width="30" height="30" fill="white" transform="translate(157 68.0005)"/>
</clipPath>
</defs>
</svg>
