<svg width="344" height="426" viewBox="0 0 344 426" fill="none" xmlns="http://www.w3.org/2000/svg">
<path d="M0 90.0005C0 40.2949 40.2944 0.000488281 90 0.000488281H344V336C344 385.706 303.706 426 254 426H0V90.0005Z" fill="#E1114C"/>
<circle cx="172" cy="83" r="50" fill="white"/>
<path fill-rule="evenodd" clip-rule="evenodd" d="M170.504 73.8125V84.4937H160.262V78.7087H157.762V84.4937H151.25V95.2775H156.058V98.1875H158.558V95.2775H171.442V98.1875H173.942V95.2775H178.75V84.4937H173.004V73.8125H170.504ZM162.629 88.635H174.169V91.135H162.629V88.635ZM157.5 88.635H156.25V91.135H158.915V88.635H157.5Z" fill="#E1114C"/>
<path d="M191.364 69.636C191.222 69.5035 191.034 69.4314 190.84 69.4348C190.645 69.4383 190.46 69.517 190.322 69.6544C190.185 69.7918 190.106 69.9772 190.103 70.1715C190.099 70.3658 190.172 70.5538 190.304 70.696C191.001 71.3924 191.553 72.2193 191.93 73.1292C192.307 74.0392 192.501 75.0145 192.501 75.9995C192.501 76.9845 192.307 77.9598 191.93 78.8698C191.553 79.7797 191.001 80.6066 190.304 81.303C190.167 81.4444 190.092 81.6338 190.093 81.8305C190.095 82.0271 190.174 82.2153 190.313 82.3544C190.452 82.4935 190.64 82.5725 190.836 82.5743C191.033 82.5761 191.223 82.5006 191.364 82.364C192.2 81.5283 192.863 80.5361 193.315 79.4442C193.767 78.3522 194 77.1819 194 76C194 74.8181 193.767 73.6478 193.315 72.5558C192.863 71.4639 192.2 70.4717 191.364 69.636ZM179.697 70.697C179.838 70.5563 179.917 70.3655 179.917 70.1665C179.917 69.9675 179.838 69.7767 179.697 69.636C179.556 69.4953 179.366 69.4163 179.167 69.4163C178.968 69.4163 178.777 69.4953 178.636 69.636C177.8 70.4717 177.137 71.4639 176.685 72.5558C176.233 73.6478 176 74.8181 176 76C176 77.1819 176.233 78.3522 176.685 79.4442C177.137 80.5361 177.8 81.5283 178.636 82.364C178.705 82.4377 178.788 82.4968 178.88 82.5378C178.972 82.5788 179.071 82.6008 179.172 82.6026C179.272 82.6044 179.372 82.5858 179.466 82.5481C179.559 82.5104 179.644 82.4543 179.715 82.383C179.786 82.3118 179.842 82.227 179.88 82.1336C179.918 82.0402 179.936 81.9402 179.935 81.8395C179.933 81.7388 179.911 81.6395 179.87 81.5475C179.829 81.4555 179.77 81.3727 179.696 81.304C179 80.6076 178.447 79.7807 178.07 78.8708C177.693 77.9608 177.499 76.9855 177.499 76.0005C177.499 75.0155 177.693 74.0402 178.07 73.1302C178.447 72.2203 179.001 71.3934 179.697 70.697Z" fill="#E1114C"/>
<path d="M187.475 72.464C187.616 72.3235 187.806 72.2446 188.005 72.2446C188.204 72.2446 188.394 72.3235 188.535 72.464C188.999 72.9283 189.368 73.4795 189.619 74.0862C189.87 74.693 190 75.3432 190 76C190 76.6567 189.87 77.307 189.619 77.9137C189.368 78.5204 188.999 79.0717 188.535 79.536C188.393 79.6725 188.204 79.748 188.007 79.7462C187.811 79.7444 187.623 79.6655 187.484 79.5263C187.345 79.3872 187.266 79.1991 187.264 79.0024C187.263 78.8058 187.338 78.6164 187.475 78.475C187.8 78.15 188.058 77.7641 188.234 77.3394C188.41 76.9148 188.5 76.4596 188.5 76C188.5 75.5403 188.41 75.0852 188.234 74.6605C188.058 74.2358 187.8 73.85 187.475 73.525C187.334 73.3843 187.256 73.1937 187.256 72.995C187.256 72.7962 187.334 72.6046 187.475 72.464ZM182.525 72.464C182.595 72.5336 182.65 72.6163 182.688 72.7073C182.725 72.7984 182.745 72.8959 182.745 72.9945C182.745 73.093 182.725 73.1906 182.688 73.2816C182.65 73.3726 182.595 73.4553 182.525 73.525C182.2 73.85 181.942 74.2358 181.766 74.6605C181.59 75.0852 181.5 75.5403 181.5 76C181.5 76.4596 181.59 76.9148 181.766 77.3394C181.942 77.7641 182.2 78.15 182.525 78.475C182.657 78.6171 182.73 78.8052 182.726 78.9995C182.723 79.1938 182.644 79.3792 182.507 79.5166C182.369 79.654 182.184 79.7327 181.989 79.7361C181.795 79.7396 181.607 79.6674 181.465 79.535C180.528 78.5973 180.001 77.3258 180.001 76C180.001 74.6741 180.528 73.4026 181.465 72.465C181.606 72.3245 181.796 72.2456 181.995 72.2456C182.194 72.2456 182.384 72.3235 182.525 72.464ZM186 76C186 76.2652 185.895 76.5195 185.707 76.7071C185.519 76.8946 185.265 77 185 77C184.735 77 184.48 76.8946 184.293 76.7071C184.105 76.5195 184 76.2652 184 76C184 75.7348 184.105 75.4804 184.293 75.2929C184.48 75.1053 184.735 75 185 75C185.265 75 185.519 75.1053 185.707 75.2929C185.895 75.4804 186 75.7348 186 76Z" fill="#E1114C"/>
</svg>
