<svg width="344" height="426" viewBox="0 0 344 426" fill="none" xmlns="http://www.w3.org/2000/svg">
<path d="M0.00634766 90.0005C0.00634766 40.2949 40.3007 0.000488281 90.0063 0.000488281H344.006V336C344.006 385.706 303.712 426 254.006 426H0.00634766V90.0005Z" fill="#976924"/>
<circle cx="172.006" cy="83.0005" r="50" fill="white"/>
<g clip-path="url(#clip0_523_5409)">
<path d="M185.6 79.2504H176.694V82.5317C176.694 84.8579 174.801 86.7504 172.475 86.7504C170.149 86.7504 168.256 84.8579 168.256 82.5317V75.4067L164.453 77.6918C163.323 78.3657 162.631 79.5903 162.631 80.9028V83.6743L157.944 86.3813C157.047 86.8969 156.737 88.0454 157.258 88.9418L161.946 97.0629C162.461 97.9594 163.61 98.2641 164.506 97.7485L170.565 94.2504H178.569C180.637 94.2504 182.319 92.5688 182.319 90.5004H183.256C184.293 90.5004 185.131 89.6625 185.131 88.6254V84.8754H185.6C186.379 84.8754 187.006 84.2485 187.006 83.4692V80.6567C187.006 79.8774 186.379 79.2504 185.6 79.2504ZM194.254 77.059L189.567 68.9379C189.051 68.0415 187.903 67.7368 187.006 68.2524L180.948 71.7504H174.959C174.256 71.7504 173.571 71.9497 172.973 72.3188L171.01 73.5434C170.459 73.8833 170.131 74.4868 170.131 75.1313V82.5317C170.131 83.8266 171.18 84.8754 172.475 84.8754C173.77 84.8754 174.819 83.8266 174.819 82.5317V77.3754H185.6C187.411 77.3754 188.881 78.8461 188.881 80.6567V82.3266L193.569 79.6196C194.465 79.0981 194.77 77.9555 194.254 77.059Z" fill="#E1114C"/>
</g>
<defs>
<clipPath id="clip0_523_5409">
<rect width="37.5" height="30" fill="white" transform="translate(157.006 68.0005)"/>
</clipPath>
</defs>
</svg>
