<svg width="344" height="426" viewBox="0 0 344 426" fill="none" xmlns="http://www.w3.org/2000/svg">
<path d="M0.00634766 90.0005C0.00634766 40.2949 40.3007 0.000488281 90.0063 0.000488281H344.006V336C344.006 385.706 303.712 426 254.006 426H0.00634766V90.0005Z" fill="#976924"/>
<circle cx="172.006" cy="83.0005" r="50" fill="white"/>
<path d="M172.006 91.7505C172.006 92.1755 172.044 92.588 172.106 93.0005H165.131C163.256 93.0005 161.619 92.3755 160.269 91.038C158.931 89.7255 158.256 88.113 158.256 86.2255C158.256 84.6005 158.744 83.1505 159.719 81.8755C161.181 79.963 162.006 79.788 163.569 79.438C164.094 77.5255 165.131 75.9755 166.694 74.788C168.256 73.6005 170.031 73.0005 172.006 73.0005C174.444 73.0005 176.506 73.8505 178.206 75.5505C179.906 77.2505 180.756 79.313 180.756 81.7505C182.194 81.913 183.381 82.538 184.331 83.6255C184.406 83.688 184.456 83.788 184.506 83.863C183.381 83.313 182.106 83.0005 180.756 83.0005C175.919 83.0005 172.006 86.913 172.006 91.7505ZM186.794 93.8005L185.544 95.963C185.456 96.1255 185.294 96.1255 185.131 96.1255L183.594 95.5005C183.256 95.7255 182.919 95.9255 182.544 96.088L182.306 97.738C182.281 97.888 182.144 98.0005 182.006 98.0005H179.506C179.331 98.0005 179.206 97.888 179.181 97.738L178.944 96.088C178.556 95.938 178.206 95.7255 177.881 95.5005L176.331 96.1255C176.181 96.1255 176.019 96.1255 175.944 95.963L174.694 93.8005C174.659 93.7352 174.647 93.66 174.661 93.5873C174.675 93.5146 174.713 93.4487 174.769 93.4005L176.094 92.3755C176.044 91.9603 176.044 91.5407 176.094 91.1255L174.769 90.1005C174.711 90.0538 174.671 89.9877 174.657 89.9144C174.644 89.841 174.657 89.7651 174.694 89.7005L175.944 87.538C176.031 87.3755 176.194 87.3755 176.331 87.3755L177.881 88.0005C178.206 87.7755 178.569 87.5755 178.944 87.413L179.181 85.763C179.196 85.688 179.237 85.6206 179.296 85.5726C179.356 85.5246 179.43 85.4991 179.506 85.5005H182.006C182.144 85.5005 182.281 85.613 182.294 85.763L182.531 87.413C182.919 87.563 183.256 87.7755 183.594 88.0005L185.131 87.3755C185.294 87.3755 185.456 87.3755 185.531 87.538L186.781 89.7005C186.856 89.838 186.819 90.0005 186.706 90.1005L185.381 91.1255C185.419 91.338 185.431 91.538 185.431 91.7505C185.431 91.963 185.406 92.163 185.381 92.3755L186.719 93.4005C186.831 93.5005 186.869 93.663 186.794 93.8005ZM182.631 91.7505C182.631 90.713 181.781 89.8755 180.756 89.8755C179.731 89.8755 178.881 90.713 178.881 91.7505C178.881 92.788 179.706 93.6255 180.756 93.6255C181.806 93.6255 182.631 92.788 182.631 91.7505Z" fill="#E1114C"/>
</svg>
