<svg width="30" height="30" viewBox="0 0 30 30" fill="none" xmlns="http://www.w3.org/2000/svg">
<path fill-rule="evenodd" clip-rule="evenodd" d="M20.2063 2.74875C20.3981 2.83687 20.5744 2.95062 20.7288 3.08437C19.9577 3.46059 19.1805 3.82418 18.3975 4.175C17.6965 4.49128 16.985 4.78394 16.2644 5.0525C15.94 5.17 15.655 5.26313 15.4219 5.325C15.1719 5.39125 15.0406 5.40625 15 5.40625C14.9594 5.40625 14.8281 5.39125 14.5788 5.325C14.345 5.2625 14.06 5.17 13.7356 5.0525C13.0152 4.78393 12.3039 4.49127 11.6031 4.175C10.8197 3.82516 10.0425 3.46156 9.27188 3.08437C9.42625 2.95062 9.60187 2.83687 9.79437 2.74875C11.1794 2.11187 13.6119 1.09375 15 1.09375C16.3875 1.09375 18.8206 2.1125 20.2063 2.74875ZM15.9375 14.1087V7.1275C16.2639 7.03648 16.5865 6.93223 16.9044 6.815C17.6662 6.53141 18.4183 6.22228 19.1594 5.88812C19.931 5.54359 20.6967 5.18604 21.4563 4.81562C21.5144 5.50938 21.5625 6.44812 21.5625 7.65625C21.5625 9.13 21.4912 10.2019 21.4169 10.9187C21.3406 11.65 20.8731 12.2569 20.2056 12.5637C19.0962 13.0737 17.3156 13.8281 15.9375 14.1087ZM9.79375 12.5637C9.12687 12.2575 8.65937 11.6494 8.58313 10.9187C8.50875 10.2019 8.4375 9.13 8.4375 7.65625C8.4375 6.4475 8.48563 5.51 8.54375 4.81562C9.30343 5.18551 10.0692 5.54286 10.8406 5.8875C11.5817 6.22187 12.3338 6.53121 13.0956 6.815C13.4356 6.93813 13.7644 7.04688 14.0625 7.1275V14.1087C12.6844 13.8281 10.9038 13.0737 9.79375 12.5637ZM12.7063 16.03C12.8981 16.1181 13.0744 16.2319 13.2288 16.3663C12.4577 16.7424 11.6805 17.1057 10.8975 17.4562C10.1965 17.7725 9.48503 18.0652 8.76437 18.3337C8.44 18.4513 8.155 18.5444 7.92188 18.6063C7.67188 18.6725 7.54063 18.6875 7.5 18.6875C7.45937 18.6875 7.32812 18.6725 7.07875 18.6063C6.845 18.5438 6.56 18.4513 6.23563 18.3337C5.51518 18.0652 4.80394 17.7725 4.10313 17.4562C3.31971 17.1066 2.5425 16.7432 1.77188 16.3663C1.92687 16.2313 2.10104 16.1192 2.29437 16.03C3.67938 15.3931 6.11188 14.375 7.5 14.375C8.8875 14.375 11.3206 15.3938 12.7063 16.03ZM8.4375 27.39V20.4087C8.76389 20.3177 9.08645 20.2135 9.40438 20.0962C10.1662 19.8125 10.9183 19.5031 11.6594 19.1688C12.431 18.8244 13.1967 18.4671 13.9563 18.0969C14.0144 18.7906 14.0625 19.7288 14.0625 20.9375C14.0625 22.4112 13.9913 23.4831 13.9169 24.2C13.8406 24.9313 13.3731 25.5381 12.7063 25.845C11.5962 26.355 9.81563 27.1094 8.4375 27.39ZM2.29375 25.845C1.62688 25.5388 1.15938 24.9306 1.08313 24.2C1.00875 23.4831 0.9375 22.4112 0.9375 20.9375C0.9375 19.7294 0.985625 18.7913 1.04375 18.0969C1.80338 18.4671 2.56911 18.8246 3.34062 19.1694C4.08169 19.5035 4.83378 19.8127 5.59562 20.0962C5.93563 20.2194 6.26438 20.3281 6.5625 20.4087V27.39C5.18437 27.1094 3.40375 26.355 2.29375 25.845ZM28.2288 16.3663C28.0715 16.2299 27.8955 16.1167 27.7063 16.03C26.3206 15.3931 23.8875 14.375 22.5 14.375C21.1125 14.375 18.6794 15.3938 17.2938 16.03C17.1045 16.1167 16.9285 16.2299 16.7712 16.3663C17.5423 16.7424 18.3195 17.1057 19.1025 17.4562C19.8035 17.7725 20.515 18.0652 21.2356 18.3337C21.56 18.4513 21.845 18.5444 22.0781 18.6063C22.3281 18.6725 22.4594 18.6875 22.5 18.6875C22.5406 18.6875 22.6719 18.6725 22.9219 18.6063C23.155 18.5438 23.4406 18.4513 23.7644 18.3337C24.4848 18.0652 25.1961 17.7725 25.8969 17.4562C26.6803 17.1066 27.4581 16.7432 28.2288 16.3663ZM23.4375 20.4081V27.3894C24.8156 27.1088 26.5963 26.3544 27.7063 25.8444C28.3731 25.5381 28.8406 24.93 28.9169 24.1994C28.9912 23.4825 29.0625 22.4106 29.0625 20.9369C29.0663 19.9889 29.0308 19.0413 28.9563 18.0963C28.1968 18.4668 27.431 18.8243 26.6594 19.1688C25.9183 19.5029 25.1662 19.812 24.4044 20.0956C24.0644 20.2188 23.7356 20.3281 23.4375 20.4081ZM16.0831 24.2C16.1594 24.9313 16.6269 25.5381 17.2938 25.845C18.4037 26.355 20.1844 27.1094 21.5625 27.39V20.4087C21.2361 20.3177 20.9135 20.2135 20.5956 20.0962C19.8338 19.8125 19.0817 19.5031 18.3406 19.1688C17.569 18.8244 16.8033 18.4671 16.0437 18.0969C15.9692 19.0419 15.9337 19.9896 15.9375 20.9375C15.9375 22.4112 16.0087 23.4831 16.0831 24.2Z" fill="white"/>
</svg>
