<svg width="30" height="30" viewBox="0 0 30 30" fill="none" xmlns="http://www.w3.org/2000/svg">
<path d="M15 23.75C15 24.175 15.0375 24.5875 15.1 25H8.125C6.25 25 4.6125 24.375 3.2625 23.0375C1.925 21.725 1.25 20.1125 1.25 18.225C1.25 16.6 1.7375 15.15 2.7125 13.875C4.175 11.9625 5 11.7875 6.5625 11.4375C7.0875 9.525 8.125 7.975 9.6875 6.7875C11.25 5.6 13.025 5 15 5C17.4375 5 19.5 5.85 21.2 7.55C22.9 9.25 23.75 11.3125 23.75 13.75C25.1875 13.9125 26.375 14.5375 27.325 15.625C27.4 15.6875 27.45 15.7875 27.5 15.8625C26.375 15.3125 25.1 15 23.75 15C18.9125 15 15 18.9125 15 23.75ZM29.7875 25.8L28.5375 27.9625C28.45 28.125 28.2875 28.125 28.125 28.125L26.5875 27.5C26.25 27.725 25.9125 27.925 25.5375 28.0875L25.3 29.7375C25.275 29.8875 25.1375 30 25 30H22.5C22.325 30 22.2 29.8875 22.175 29.7375L21.9375 28.0875C21.55 27.9375 21.2 27.725 20.875 27.5L19.325 28.125C19.175 28.125 19.0125 28.125 18.9375 27.9625L17.6875 25.8C17.6526 25.7347 17.641 25.6595 17.6546 25.5868C17.6683 25.5141 17.7063 25.4482 17.7625 25.4L19.0875 24.375C19.0377 23.9598 19.0377 23.5402 19.0875 23.125L17.7625 22.1C17.7043 22.0533 17.6647 21.9873 17.651 21.9139C17.6372 21.8405 17.6502 21.7646 17.6875 21.7L18.9375 19.5375C19.025 19.375 19.1875 19.375 19.325 19.375L20.875 20C21.2 19.775 21.5625 19.575 21.9375 19.4125L22.175 17.7625C22.1897 17.6875 22.2303 17.6201 22.2897 17.5721C22.3492 17.5241 22.4236 17.4986 22.5 17.5H25C25.1375 17.5 25.275 17.6125 25.2875 17.7625L25.525 19.4125C25.9125 19.5625 26.25 19.775 26.5875 20L28.125 19.375C28.2875 19.375 28.45 19.375 28.525 19.5375L29.775 21.7C29.85 21.8375 29.8125 22 29.7 22.1L28.375 23.125C28.4125 23.3375 28.425 23.5375 28.425 23.75C28.425 23.9625 28.4 24.1625 28.375 24.375L29.7125 25.4C29.825 25.5 29.8625 25.6625 29.7875 25.8ZM25.625 23.75C25.625 22.7125 24.775 21.875 23.75 21.875C22.725 21.875 21.875 22.7125 21.875 23.75C21.875 24.7875 22.7 25.625 23.75 25.625C24.8 25.625 25.625 24.7875 25.625 23.75Z" fill="white"/>
</svg>
