<svg width="29" height="25" viewBox="0 0 29 25" fill="none" xmlns="http://www.w3.org/2000/svg">
<path d="M14 18.75C14 19.175 14.0375 19.5875 14.1 20H7.125C5.25 20 3.6125 19.375 2.2625 18.0375C0.925 16.725 0.25 15.1125 0.25 13.225C0.25 11.6 0.7375 10.15 1.7125 8.875C3.175 6.9625 4 6.7875 5.5625 6.4375C6.0875 4.525 7.125 2.975 8.6875 1.7875C10.25 0.6 12.025 0 14 0C16.4375 0 18.5 0.85 20.2 2.55C21.9 4.25 22.75 6.3125 22.75 8.75C24.1875 8.9125 25.375 9.5375 26.325 10.625C26.4 10.6875 26.45 10.7875 26.5 10.8625C25.375 10.3125 24.1 10 22.75 10C17.9125 10 14 13.9125 14 18.75ZM28.7875 20.8L27.5375 22.9625C27.45 23.125 27.2875 23.125 27.125 23.125L25.5875 22.5C25.25 22.725 24.9125 22.925 24.5375 23.0875L24.3 24.7375C24.275 24.8875 24.1375 25 24 25H21.5C21.325 25 21.2 24.8875 21.175 24.7375L20.9375 23.0875C20.55 22.9375 20.2 22.725 19.875 22.5L18.325 23.125C18.175 23.125 18.0125 23.125 17.9375 22.9625L16.6875 20.8C16.6526 20.7347 16.641 20.6595 16.6546 20.5868C16.6683 20.5141 16.7063 20.4482 16.7625 20.4L18.0875 19.375C18.0377 18.9598 18.0377 18.5402 18.0875 18.125L16.7625 17.1C16.7043 17.0533 16.6647 16.9873 16.651 16.9139C16.6372 16.8405 16.6502 16.7646 16.6875 16.7L17.9375 14.5375C18.025 14.375 18.1875 14.375 18.325 14.375L19.875 15C20.2 14.775 20.5625 14.575 20.9375 14.4125L21.175 12.7625C21.1897 12.6875 21.2303 12.6201 21.2897 12.5721C21.3492 12.5241 21.4236 12.4986 21.5 12.5H24C24.1375 12.5 24.275 12.6125 24.2875 12.7625L24.525 14.4125C24.9125 14.5625 25.25 14.775 25.5875 15L27.125 14.375C27.2875 14.375 27.45 14.375 27.525 14.5375L28.775 16.7C28.85 16.8375 28.8125 17 28.7 17.1L27.375 18.125C27.4125 18.3375 27.425 18.5375 27.425 18.75C27.425 18.9625 27.4 19.1625 27.375 19.375L28.7125 20.4C28.825 20.5 28.8625 20.6625 28.7875 20.8ZM24.625 18.75C24.625 17.7125 23.775 16.875 22.75 16.875C21.725 16.875 20.875 17.7125 20.875 18.75C20.875 19.7875 21.7 20.625 22.75 20.625C23.8 20.625 24.625 19.7875 24.625 18.75Z" fill="white"/>
</svg>
