<svg width="70" height="70" viewBox="0 0 70 70" fill="none" xmlns="http://www.w3.org/2000/svg">
<g clip-path="url(#clip0_487_1531)">
<path d="M34.9974 55.417C34.9974 56.4087 35.0849 57.3712 35.2307 58.3337H18.9557C14.5807 58.3337 10.7599 56.8753 7.6099 53.7545C4.48906 50.692 2.91406 46.9295 2.91406 42.5253C2.91406 38.7337 4.05156 35.3503 6.32656 32.3753C9.73906 27.9128 11.6641 27.5045 15.3099 26.6878C16.5349 22.2253 18.9557 18.6087 22.6016 15.8378C26.2474 13.067 30.3891 11.667 34.9974 11.667C40.6849 11.667 45.4974 13.6503 49.4641 17.617C53.4307 21.5837 55.4141 26.3962 55.4141 32.0837C58.7682 32.4628 61.5391 33.9212 63.7557 36.4587C63.9307 36.6045 64.0474 36.8378 64.1641 37.0128C61.5391 35.7295 58.5641 35.0003 55.4141 35.0003C44.1266 35.0003 34.9974 44.1295 34.9974 55.417ZM69.5016 60.2003L66.5849 65.2462C66.3807 65.6253 66.0016 65.6253 65.6224 65.6253L62.0349 64.167C61.2474 64.692 60.4599 65.1587 59.5849 65.5378L59.0307 69.3878C58.9724 69.7378 58.6516 70.0003 58.3307 70.0003H52.4974C52.0891 70.0003 51.7974 69.7378 51.7391 69.3878L51.1849 65.5378C50.2807 65.1878 49.4641 64.692 48.7057 64.167L45.0891 65.6253C44.7391 65.6253 44.3599 65.6253 44.1849 65.2462L41.2682 60.2003C41.1868 60.0481 41.1597 59.8726 41.1916 59.7029C41.2234 59.5332 41.3122 59.3794 41.4432 59.267L44.5349 56.8753C44.4187 55.9066 44.4187 54.9274 44.5349 53.9587L41.4432 51.567C41.3074 51.458 41.2151 51.3039 41.183 51.1327C41.1509 50.9615 41.1811 50.7845 41.2682 50.6337L44.1849 45.5878C44.3891 45.2087 44.7682 45.2087 45.0891 45.2087L48.7057 46.667C49.4641 46.142 50.3099 45.6753 51.1849 45.2962L51.7391 41.4462C51.7733 41.2712 51.8681 41.1139 52.0068 41.0019C52.1455 40.8899 52.3192 40.8303 52.4974 40.8337H58.3307C58.6516 40.8337 58.9724 41.0962 59.0016 41.4462L59.5557 45.2962C60.4599 45.6462 61.2474 46.142 62.0349 46.667L65.6224 45.2087C66.0016 45.2087 66.3807 45.2087 66.5557 45.5878L69.4724 50.6337C69.6474 50.9545 69.5599 51.3337 69.2974 51.567L66.2057 53.9587C66.2932 54.4545 66.3224 54.9212 66.3224 55.417C66.3224 55.9128 66.2641 56.3795 66.2057 56.8753L69.3266 59.267C69.5891 59.5003 69.6766 59.8795 69.5016 60.2003ZM59.7891 55.417C59.7891 52.9962 57.8057 51.042 55.4141 51.042C53.0224 51.042 51.0391 52.9962 51.0391 55.417C51.0391 57.8378 52.9641 59.792 55.4141 59.792C57.8641 59.792 59.7891 57.8378 59.7891 55.417Z" fill="#E1114C"/>
</g>
<defs>
<clipPath id="clip0_487_1531">
<rect width="70" height="70" fill="white"/>
</clipPath>
</defs>
</svg>
