<svg width="30" height="30" viewBox="0 0 30 30" fill="none" xmlns="http://www.w3.org/2000/svg">
<path d="M25.625 15C25.1042 15 24.6617 14.8179 24.2975 14.4538C23.9333 14.0896 23.7508 13.6467 23.75 13.125V5.625C23.75 5.10417 23.9325 4.66167 24.2975 4.2975C24.6625 3.93334 25.105 3.75084 25.625 3.75C26.145 3.74917 26.5879 3.93167 26.9538 4.2975C27.3196 4.66334 27.5017 5.10584 27.5 5.625V13.125C27.5 13.6458 27.3179 14.0888 26.9538 14.4538C26.5896 14.8188 26.1467 15.0008 25.625 15ZM12.5 15C11.125 15 9.94792 14.5104 8.96875 13.5313C7.98958 12.5521 7.5 11.375 7.5 10C7.5 8.625 7.98958 7.44792 8.96875 6.46875C9.94792 5.48959 11.125 5 12.5 5C13.875 5 15.0521 5.48959 16.0312 6.46875C17.0104 7.44792 17.5 8.625 17.5 10C17.5 11.375 17.0104 12.5521 16.0312 13.5313C15.0521 14.5104 13.875 15 12.5 15ZM2.5 25V21.5C2.5 20.7917 2.67708 20.1408 3.03125 19.5475C3.38542 18.9542 3.875 18.5008 4.5 18.1875C5.75 17.5625 7.04708 17.0833 8.39125 16.75C9.73542 16.4167 11.105 16.25 12.5 16.25C13.895 16.25 15.265 16.4167 16.61 16.75C17.955 17.0833 19.2517 17.5625 20.5 18.1875C21.125 18.5 21.6146 18.9533 21.9688 19.5475C22.3229 20.1417 22.5 20.7925 22.5 21.5V25H2.5Z" fill="white"/>
</svg>
