<svg width="70" height="70" viewBox="0 0 70 70" fill="none" xmlns="http://www.w3.org/2000/svg">
<path d="M20.4219 17.4997V14.583C20.4219 10.4588 20.4219 8.39676 21.7052 7.11634C22.9827 5.83301 25.0448 5.83301 29.1719 5.83301H40.8385C44.9627 5.83301 47.0248 5.83301 48.3052 7.11634C49.5885 8.39384 49.5885 10.4559 49.5885 14.583V17.4997C49.5885 21.6238 49.5885 23.6859 48.3052 24.9663C47.0277 26.2497 44.9656 26.2497 40.8385 26.2497H37.9219L29.1719 32.083V26.2497C25.0477 26.2497 22.9856 26.2497 21.7052 24.9663C20.4219 23.6888 20.4219 21.6268 20.4219 17.4997Z" fill="#E1114C"/>
<path d="M10.4727 54.6577C8.63812 55.8885 3.83145 58.3968 6.75978 61.5352C8.18895 63.0693 9.78437 64.166 11.7852 64.166H23.2185C25.2194 64.166 26.8148 63.0693 28.244 61.5352C31.1723 58.3968 26.3656 55.8885 24.531 54.6606C22.4573 53.2524 20.0085 52.4996 17.5019 52.4996C14.9952 52.4996 12.5464 53.2495 10.4727 54.6577ZM45.4727 54.6577C43.6381 55.8885 38.8315 58.3968 41.7598 61.5352C43.189 63.0693 44.7844 64.166 46.7852 64.166H58.2185C60.2194 64.166 61.8148 63.0693 63.244 61.5352C66.1723 58.3968 61.3656 55.8885 59.531 54.6606C57.4573 53.2524 55.0085 52.4996 52.5019 52.4996C49.9953 52.4996 47.5464 53.2495 45.4727 54.6577ZM23.3352 39.3743C23.3352 40.9214 22.7206 42.4052 21.6267 43.4991C20.5327 44.5931 19.049 45.2077 17.5019 45.2077C15.9548 45.2077 14.471 44.5931 13.3771 43.4991C12.2831 42.4052 11.6685 40.9214 11.6685 39.3743C11.6685 37.8273 12.2831 36.3435 13.3771 35.2496C14.471 34.1556 15.9548 33.541 17.5019 33.541C19.049 33.541 20.5327 34.1556 21.6267 35.2496C22.7206 36.3435 23.3352 37.8273 23.3352 39.3743ZM58.3352 39.3743C58.3352 40.9214 57.7206 42.4052 56.6267 43.4991C55.5327 44.5931 54.049 45.2077 52.5019 45.2077C50.9548 45.2077 49.471 44.5931 48.3771 43.4991C47.2831 42.4052 46.6685 40.9214 46.6685 39.3743C46.6685 37.8273 47.2831 36.3435 48.3771 35.2496C49.471 34.1556 50.9548 33.541 52.5019 33.541C54.049 33.541 55.5327 34.1556 56.6267 35.2496C57.7206 36.3435 58.3352 37.8273 58.3352 39.3743Z" fill="#E1114C"/>
</svg>
