<svg width="70" height="70" viewBox="0 0 70 70" fill="none" xmlns="http://www.w3.org/2000/svg">
<path d="M35 2.9165L8.75 14.5832V32.0832C8.75 48.2707 19.95 63.4082 35 67.0832C50.05 63.4082 61.25 48.2707 61.25 32.0832V14.5832L35 2.9165ZM35 20.4165C39.0833 20.4165 43.1667 23.6248 43.1667 27.7082V32.0832C44.9167 32.0832 46.6667 33.8332 46.6667 35.8748V46.0832C46.6667 47.8332 44.9167 49.5832 42.875 49.5832H26.8333C25.0833 49.5832 23.3333 47.8332 23.3333 45.7915V35.5832C23.3333 33.8332 25.0833 32.0832 26.8333 32.0832V27.7082C26.8333 23.6248 30.9167 20.4165 35 20.4165ZM35 23.9165C32.6667 23.9165 30.625 25.3748 30.625 27.7082V32.0832H39.375V27.7082C39.375 25.3748 37.3333 23.9165 35 23.9165Z" fill="#E1114C"/>
</svg>
