<svg width="30" height="30" viewBox="0 0 30 30" fill="none" xmlns="http://www.w3.org/2000/svg">
<path d="M10.0937 25C9.86458 25 9.65125 24.9429 9.45375 24.8288C9.25625 24.7146 9.105 24.5529 9 24.3438L6.5625 20H8.375L9.625 22.5H12.5V21.25H10.375L9.125 18.75H5.875L4.09375 15.625C4.05208 15.5208 4.01583 15.4167 3.985 15.3125C3.95417 15.2083 3.93833 15.1042 3.9375 15C3.9375 14.9167 3.98958 14.7083 4.09375 14.375L5.875 11.25H9.125L10.375 8.75H12.5V7.5H9.625L8.375 10H6.5625L9 5.65625C9.10417 5.44792 9.255 5.28667 9.4525 5.1725C9.65 5.05833 9.86417 5.00083 10.095 5H13.125C13.4792 5 13.7762 5.12 14.0162 5.36C14.2562 5.6 14.3758 5.89667 14.375 6.25V11.25H12.5L11.25 12.5H14.375V16.25H11.625L10.375 13.75H7.5L6.25 15H9.625L10.875 17.5H14.375V23.75C14.375 24.1042 14.255 24.4012 14.015 24.6412C13.775 24.8812 13.4783 25.0008 13.125 25H10.0937ZM16.875 25C16.5208 25 16.2242 24.88 15.985 24.64C15.7458 24.4 15.6258 24.1033 15.625 23.75V17.5H19.125L20.375 15H23.75L22.5 13.75H19.625L18.375 16.25H15.625V12.5H18.75L17.5 11.25H15.625V6.25C15.625 5.89583 15.745 5.59917 15.985 5.36C16.225 5.12083 16.5217 5.00083 16.875 5H19.9062C20.1354 5 20.3492 5.0575 20.5475 5.1725C20.7458 5.2875 20.8967 5.44875 21 5.65625L23.4375 10H21.625L20.375 7.5H17.5V8.75H19.625L20.875 11.25H24.125L25.9062 14.375C25.9479 14.4792 25.9846 14.5833 26.0163 14.6875C26.0479 14.7917 26.0633 14.8958 26.0625 15C26.0625 15.0833 26.0104 15.2917 25.9062 15.625L24.125 18.75H20.875L19.625 21.25H17.5V22.5H20.375L21.625 20H23.4375L21 24.3438C20.8958 24.5521 20.7446 24.7138 20.5463 24.8288C20.3479 24.9438 20.1346 25.0008 19.9062 25H16.875Z" fill="white"/>
</svg>
