<svg width="30" height="30" viewBox="0 0 30 30" fill="none" xmlns="http://www.w3.org/2000/svg">
<path d="M14.1934 0V4.76058H15.8103V0H14.1932H14.1934ZM7.59061 1.43062L6.26581 2.3582L8.99589 6.25685L10.32 5.32925L7.59061 1.43062ZM22.4128 1.43062L19.6835 5.32928L21.0078 6.25688L23.7378 2.3582L22.413 1.43062H22.4128ZM15.0015 6.0631C11.0458 6.0631 7.83919 8.46517 7.83919 11.4287L11.9085 23.7524H18.0952L22.1642 11.4287C22.1642 8.46523 18.9577 6.0631 15.0019 6.0631H15.0015ZM2.13841 7.49183L1.58594 9.01218L6.05716 10.64L6.61169 9.1204L2.13831 7.49183H2.13841ZM27.865 7.49183L23.3916 9.12053L23.9442 10.6403L28.4176 9.0122L27.865 7.49183ZM6.39569 14.442L1.79819 15.6752L2.21534 17.236L6.81284 16.0046L6.39576 14.442H6.39569ZM23.6077 14.442L23.1908 16.0046L27.7883 17.2357L28.2052 15.6749L23.6077 14.442V14.442ZM11.8183 24.6508V26.793H18.1855V24.6511H11.8183L11.8183 24.6508ZM11.8183 27.8578V30H18.1855V27.8582H11.8183L11.8183 27.8578Z" fill="#E1114C"/>
</svg>
