<svg width="30" height="30" viewBox="0 0 30 30" fill="none" xmlns="http://www.w3.org/2000/svg">
<g clip-path="url(#clip0_497_1916)">
<path d="M29.9961 15C29.9961 6.71578 23.2803 0 14.9961 0C6.71187 0 -0.00390625 6.71578 -0.00390625 15C-0.00390625 22.4869 5.48141 28.6925 12.6523 29.8178V19.3359H8.84375V15H12.6523V11.6953C12.6523 7.93594 14.8918 5.85938 18.3181 5.85938C19.9592 5.85938 21.6758 6.15234 21.6758 6.15234V9.84375H19.7844C17.921 9.84375 17.3398 11 17.3398 12.1863V15H21.5L20.835 19.3359H17.3398V29.8178C24.5108 28.6925 29.9961 22.487 29.9961 15Z" fill="#1877F2"/>
<path d="M20.835 19.3359L21.5 15H17.3398V12.1863C17.3398 10.9999 17.921 9.84375 19.7844 9.84375H21.6758V6.15234C21.6758 6.15234 19.9592 5.85938 18.318 5.85938C14.8918 5.85938 12.6523 7.93594 12.6523 11.6953V15H8.84375V19.3359H12.6523V29.8178C13.4277 29.9393 14.2113 30.0002 14.9961 30C15.7809 30.0002 16.5645 29.9393 17.3398 29.8178V19.3359H20.835Z" fill="white"/>
</g>
<defs>
<clipPath id="clip0_497_1916">
<rect width="30" height="30" fill="white" transform="translate(-0.00390625)"/>
</clipPath>
</defs>
</svg>
