<svg width="30" height="30" viewBox="0 0 30 30" fill="none" xmlns="http://www.w3.org/2000/svg">
<path d="M14.9735 1.79688C10.1923 1.79688 6.02498 4.53361 3.85373 8.58906H6.80041L7.78127 6.62729H14.5702C14.6906 6.3792 14.8876 6.17195 15.112 6.02236C15.4812 5.77621 15.9436 5.64654 16.4449 5.64654C16.9462 5.64654 17.4085 5.77621 17.7778 6.02236C18.147 6.26852 18.4435 6.67006 18.4435 7.15463C18.4435 7.6392 18.147 8.04074 17.7778 8.28689C17.4086 8.53305 16.9462 8.66272 16.4449 8.66272C15.9436 8.66272 15.4812 8.53305 15.112 8.28689C14.8876 8.13731 14.6905 7.93006 14.5701 7.68186H8.43295L7.97943 8.589H11.0499V9.64363H3.34719C3.21987 9.94166 3.10338 10.2442 2.99797 10.5507H5.16441V11.6052H2.68268C2.44795 12.5256 2.3068 13.4856 2.26953 14.4742H8.70799L9.68897 11.5316H12.0308V12.5861H10.449L9.81951 14.4742H12.6082C12.7287 14.226 12.9257 14.0187 13.1501 13.8691C13.5194 13.623 13.9817 13.4933 14.483 13.4933C14.9843 13.4933 15.4466 13.623 15.8159 13.8691C16.1851 14.1153 16.4817 14.5168 16.4817 15.0014C16.4817 15.486 16.1851 15.8875 15.8159 16.1337C15.4466 16.3798 14.9843 16.5095 14.483 16.5095C13.9817 16.5095 13.5194 16.3798 13.1501 16.1337C12.9257 15.9841 12.7287 15.7768 12.6082 15.5286H6.99846L8.43295 18.3975H13.0116V19.4521H7.78121L5.81938 15.5286H2.26953C2.3641 18.0379 3.13027 20.3642 4.38646 22.3209H9.66553C9.78594 22.0728 9.98311 21.8655 10.2075 21.7159C10.5768 21.4697 11.039 21.3401 11.5403 21.3401C12.0416 21.3401 12.5039 21.4697 12.8732 21.7159C13.2424 21.962 13.539 22.3636 13.539 22.8481C13.539 23.3327 13.2424 23.7343 12.8732 23.9804C12.5039 24.2266 12.0416 24.3562 11.5403 24.3562C11.039 24.3562 10.5768 24.2266 10.2075 23.9804C9.98311 23.8308 9.78605 23.6236 9.66564 23.3755H9.09236L10.3511 25.2634H14.6477L15.6286 23.3017H17.9162V24.3562H16.2803L15.8267 25.2634H18.8971V26.318H9.78682L7.82492 23.3755H5.13857C7.47119 26.3269 11.0117 28.206 14.9735 28.206C20.3838 28.206 25.0084 24.7017 26.8435 19.7475C26.5575 20.3631 26.2125 20.8809 25.7937 21.2646C25.3712 21.6519 24.8527 21.9041 24.2921 21.9041C23.7315 21.9041 23.213 21.6519 22.7903 21.2646C22.3678 20.8773 22.0201 20.3538 21.7325 19.7305C21.1572 18.4841 20.8221 16.8277 20.8221 15.0014C20.8221 13.1751 21.1572 11.5186 21.7325 10.2723C22.0202 9.64902 22.3678 9.12543 22.7904 8.73812C23.213 8.35082 23.7314 8.09863 24.2921 8.09863C24.8527 8.09863 25.3712 8.35088 25.7937 8.73812C26.2125 9.12186 26.5575 9.63965 26.8435 10.2553C25.0084 5.30107 20.3838 1.79688 14.9735 1.79688ZM16.4449 6.70111C16.1336 6.70111 15.8601 6.79094 15.6969 6.89975C15.5336 7.00855 15.5007 7.0975 15.5007 7.15463C15.5007 7.21176 15.5336 7.30064 15.6969 7.40951C15.8602 7.51832 16.1336 7.60815 16.4449 7.60815C16.7562 7.60815 17.0296 7.51832 17.1928 7.40951C17.3561 7.3007 17.3889 7.21176 17.3889 7.15463C17.3889 7.0975 17.3561 7.00861 17.1928 6.89975C17.0296 6.79088 16.7562 6.70111 16.4449 6.70111ZM25.7635 11.5902C25.0839 11.5902 24.5859 12.1062 24.2769 12.724C23.968 13.3418 23.7986 14.1326 23.7986 15.0014C23.7986 15.8702 23.968 16.6609 24.277 17.2787C24.5859 17.8966 25.0838 18.4127 25.7635 18.4127C26.4431 18.4127 26.9411 17.8966 27.25 17.2787C27.559 16.6609 27.7284 15.8703 27.7284 15.0014C27.7284 14.1325 27.559 13.3418 27.25 12.724C26.9411 12.1062 26.443 11.5902 25.7635 11.5902ZM26.0337 12.7712C26.1249 12.859 26.2248 12.9921 26.3226 13.1876C26.5372 13.6168 26.6917 14.2726 26.6917 15.0014C26.6917 15.7302 26.5372 16.386 26.3226 16.8152C26.1079 17.2444 25.8828 17.3759 25.7635 17.3759C25.6442 17.3759 25.4189 17.2443 25.2043 16.8152C24.9897 16.386 24.8353 15.7302 24.8353 15.0014C24.8353 14.9866 24.8358 14.972 24.8359 14.9572C24.9734 15.0651 25.1263 15.1215 25.2815 15.1219C25.5372 15.1218 25.7825 14.9694 25.9633 14.6982C26.1441 14.4269 26.2457 14.0591 26.2457 13.6755C26.2456 13.3467 26.1709 13.0278 26.0337 12.7712ZM14.483 14.5478C14.1717 14.5478 13.8984 14.6377 13.7352 14.7465C13.5719 14.8554 13.539 14.9443 13.539 15.0014C13.539 15.0585 13.5719 15.1474 13.7352 15.2563C13.8985 15.3651 14.1717 15.4549 14.483 15.4549C14.7944 15.4549 15.0678 15.3651 15.231 15.2563C15.3942 15.1475 15.4272 15.0585 15.4272 15.0014C15.4272 14.9443 15.3942 14.8554 15.231 14.7465C15.0678 14.6376 14.7944 14.5478 14.483 14.5478ZM11.5403 22.3946C11.2289 22.3946 10.9556 22.4845 10.7924 22.5933C10.6292 22.7021 10.5962 22.791 10.5962 22.8481C10.5962 22.9053 10.6292 22.9942 10.7924 23.103C10.9556 23.2119 11.2289 23.3017 11.5403 23.3017C11.8517 23.3017 12.125 23.2118 12.2882 23.103C12.4515 22.9942 12.4844 22.9053 12.4844 22.8481C12.4844 22.791 12.4515 22.7021 12.2882 22.5933C12.1249 22.4844 11.8516 22.3946 11.5403 22.3946Z" fill="#222222"/>
</svg>
