<svg width="30" height="30" viewBox="0 0 30 30" fill="none" xmlns="http://www.w3.org/2000/svg">
<g clip-path="url(#clip0_82_377)">
<path d="M7.5 11.25C8.49456 11.25 9.44839 10.8549 10.1517 10.1517C10.8549 9.44839 11.25 8.49456 11.25 7.5M7.5 11.25C6.50544 11.25 5.55161 10.8549 4.84835 10.1517C4.14509 9.44839 3.75 8.49456 3.75 7.5M7.5 11.25V15M11.25 7.5C11.25 6.50544 10.8549 5.55161 10.1517 4.84835C9.44839 4.14509 8.49456 3.75 7.5 3.75M11.25 7.5H15M7.5 3.75C6.50544 3.75 5.55161 4.14509 4.84835 4.84835C4.14509 5.55161 3.75 6.50544 3.75 7.5M7.5 3.75V0M3.75 7.5H0M2.5 2.5L5 5M10 10L12.5 12.5M12.5 2.5L10 5M5 10L2.5 12.5M22.5 15C23.4946 15 24.4484 14.6049 25.1517 13.9017C25.8549 13.1984 26.25 12.2446 26.25 11.25M22.5 15C21.5054 15 20.5516 14.6049 19.8483 13.9017C19.1451 13.1984 18.75 12.2446 18.75 11.25M22.5 15V18.75M26.25 11.25C26.25 10.2554 25.8549 9.30161 25.1517 8.59835C24.4484 7.89509 23.4946 7.5 22.5 7.5M26.25 11.25H30M22.5 7.5C21.5054 7.5 20.5516 7.89509 19.8483 8.59835C19.1451 9.30161 18.75 10.2554 18.75 11.25M22.5 7.5V3.75M18.75 11.25H15M17.5 6.25L20 8.75M25 13.75L27.5 16.25M27.5 6.25L25 8.75M20 13.75L17.5 16.25M11.25 26.25C12.2446 26.25 13.1984 25.8549 13.9017 25.1517C14.6049 24.4484 15 23.4946 15 22.5M11.25 26.25C10.2554 26.25 9.30161 25.8549 8.59835 25.1517C7.89509 24.4484 7.5 23.4946 7.5 22.5M11.25 26.25V30M15 22.5C15 21.5054 14.6049 20.5516 13.9017 19.8483C13.1984 19.1451 12.2446 18.75 11.25 18.75M15 22.5H18.75M11.25 18.75C10.2554 18.75 9.30161 19.1451 8.59835 19.8483C7.89509 20.5516 7.5 21.5054 7.5 22.5M11.25 18.75V15M7.5 22.5H3.75M6.25 17.5L8.75 20M13.75 25L16.25 27.5M16.25 17.5L13.75 20M8.75 25L6.25 27.5" stroke="#222222" stroke-width="2"/>
</g>
<defs>
<clipPath id="clip0_82_377">
<rect width="30" height="30" fill="white"/>
</clipPath>
</defs>
</svg>
