<svg width="34" height="34" viewBox="0 0 34 34" fill="none" xmlns="http://www.w3.org/2000/svg">
<g clip-path="url(#clip0_82_506)">
<path fill-rule="evenodd" clip-rule="evenodd" d="M24.34 0.660156C24.34 1.15744 24.1425 1.63435 23.7908 1.98598C23.4392 2.33761 22.9623 2.53516 22.465 2.53516V3.16016C22.9623 3.16016 23.4392 3.3577 23.7908 3.70933C24.1425 4.06096 24.34 4.53788 24.34 5.03516H24.965C24.965 4.53788 25.1625 4.06096 25.5142 3.70933C25.8658 3.3577 26.3427 3.16016 26.84 3.16016V2.53516C26.3427 2.53516 25.8658 2.33761 25.5142 1.98598C25.1625 1.63435 24.965 1.15744 24.965 0.660156H24.34ZM21.7775 5.07016V6.28516H22.9937V7.53516H21.7781V8.75016H20.5281V7.53516H19.3125V6.28516H20.5275V5.07016H21.7775ZM24.6394 5.97266V9.70953C24.1628 9.43438 23.6087 9.32416 23.0631 9.39597C22.5175 9.46779 22.0109 9.71762 21.6217 10.1067C21.2326 10.4958 20.9827 11.0025 20.9108 11.5481C20.8389 12.0937 20.9491 12.6477 21.2242 13.1244C21.4993 13.601 21.924 13.9735 22.4323 14.1842C22.9407 14.3948 23.5044 14.4319 24.036 14.2895C24.5676 14.1472 25.0374 13.8334 25.3725 13.3969C25.7076 12.9604 25.8893 12.4255 25.8894 11.8752V6.70016L32.1394 4.61703V7.83453C31.6628 7.55938 31.1087 7.44916 30.5631 7.52097C30.0175 7.59279 29.5109 7.84262 29.1217 8.23173C28.7326 8.62084 28.4827 9.12747 28.4108 9.67307C28.3389 10.2187 28.4491 10.7727 28.7242 11.2494C28.9993 11.726 29.424 12.0985 29.9323 12.3092C30.4407 12.5198 31.0044 12.5569 31.536 12.4145C32.0676 12.2722 32.5374 11.9584 32.8725 11.5219C33.2076 11.0854 33.3893 10.5505 33.3894 10.0002V0.695781L27.7775 2.56578V4.09766H26.84C26.5914 4.09766 26.3529 4.19643 26.1771 4.37224C26.0013 4.54806 25.9025 4.78652 25.9025 5.03516V5.97266H24.6394Z" fill="#E1114C"/>
</g>
<g clip-path="url(#clip1_82_506)">
<path d="M5.625 2.8125C5.625 3.55842 5.32868 4.27379 4.80124 4.80124C4.27379 5.32868 3.55842 5.625 2.8125 5.625C2.06658 5.625 1.35121 5.32868 0.823762 4.80124C0.296316 4.27379 0 3.55842 0 2.8125C0 2.06658 0.296316 1.35121 0.823762 0.823762C1.35121 0.296316 2.06658 0 2.8125 0C3.55842 0 4.27379 0.296316 4.80124 0.823762C5.32868 1.35121 5.625 2.06658 5.625 2.8125Z" fill="#E1114C"/>
<path d="M8.4375 5.625C7.69158 5.625 6.97621 5.32868 6.44876 4.80124C5.92132 4.27379 5.625 3.55842 5.625 2.8125C5.625 2.06658 5.92132 1.35121 6.44876 0.823762C6.97621 0.296316 7.69158 0 8.4375 0C9.18342 0 9.89879 0.296316 10.4262 0.823762C10.9537 1.35121 11.25 2.06658 11.25 2.8125C11.25 3.55842 10.9537 4.27379 10.4262 4.80124C9.89879 5.32868 9.18342 5.625 8.4375 5.625Z" fill="#E1114C"/>
<path d="M8.4375 5.625H8.90625C9.36102 5.62495 9.80032 5.79018 10.1423 6.08993C10.4843 6.38968 10.7057 6.80352 10.7653 7.25437L13.6809 5.95875C13.8237 5.89516 13.98 5.86825 14.1358 5.88045C14.2915 5.89266 14.4418 5.94361 14.5728 6.02865C14.7039 6.1137 14.8116 6.23015 14.8862 6.36743C14.9608 6.5047 14.9999 6.65845 15 6.81469V13.8103C14.9999 13.9664 14.9607 14.12 14.8862 14.2572C14.8116 14.3944 14.704 14.5107 14.5731 14.5958C14.4421 14.6808 14.292 14.7318 14.1364 14.7441C13.9808 14.7564 13.8245 14.7296 13.6819 14.6663L10.7653 13.3706C10.7057 13.8215 10.4843 14.2353 10.1423 14.5351C9.80032 14.8348 9.36102 15.0001 8.90625 15H1.875C1.37772 15 0.900806 14.8025 0.549175 14.4508C0.197544 14.0992 0 13.6223 0 13.125V7.5C0 7.00272 0.197544 6.52581 0.549175 6.17417C0.900806 5.82254 1.37772 5.625 1.875 5.625H8.4375Z" fill="#E1114C"/>
</g>
<path d="M24.5081 26.2575C24.7937 26.02 25.0819 26.02 25.3744 26.2644L25.4419 26.3256L28.5581 29.4419L28.6169 29.4937C28.7371 29.587 28.8873 29.6331 29.0391 29.6235C29.191 29.6139 29.3341 29.5493 29.4417 29.4417C29.5493 29.3341 29.6139 29.191 29.6235 29.0391C29.6331 28.8873 29.587 28.7371 29.4937 28.6169L29.4419 28.5581L28.6344 27.75L28.8169 27.5669L28.8831 27.5075C29.1687 27.27 29.4569 27.27 29.7494 27.5144L29.8169 27.5756L32.7381 30.4975C32.679 31.0927 32.4084 31.6469 31.9755 32.0596C31.5426 32.4723 30.9761 32.7162 30.3787 32.7469L30.25 32.75H22.75C22.1299 32.75 21.532 32.5195 21.0723 32.1034C20.6127 31.6872 20.324 31.1151 20.2625 30.4981L24.4419 26.3169L24.5081 26.2575ZM30.25 20.25C30.8914 20.25 31.5083 20.4965 31.973 20.9386C32.4377 21.3806 32.7148 21.9844 32.7469 22.625L32.75 22.75V28.7406L30.6919 26.6831L30.5981 26.5975C29.8131 25.9131 28.8169 25.9119 28.0381 26.5869L27.9419 26.6744L27.75 26.8656L26.3169 25.4331L26.2231 25.3475C25.4381 24.6631 24.4419 24.6619 23.6631 25.3369L23.5669 25.4244L20.25 28.7406V22.75C20.25 22.1086 20.4965 21.4917 20.9386 21.027C21.3806 20.5623 21.9844 20.2852 22.625 20.2531L22.75 20.25H30.25ZM28.3812 23.375L28.3019 23.3794C28.15 23.3974 28.01 23.4706 27.9084 23.585C27.8068 23.6994 27.7507 23.847 27.7507 24C27.7507 24.153 27.8068 24.3006 27.9084 24.415C28.01 24.5294 28.15 24.6026 28.3019 24.6206L28.375 24.625L28.4544 24.6206C28.6063 24.6026 28.7463 24.5294 28.8479 24.415C28.9494 24.3006 29.0056 24.153 29.0056 24C29.0056 23.847 28.9494 23.6994 28.8479 23.585C28.7463 23.4706 28.6063 23.3974 28.4544 23.3794L28.3812 23.375Z" fill="#E1114C"/>
<defs>
<clipPath id="clip0_82_506">
<rect width="15" height="15" fill="white" transform="translate(19)"/>
</clipPath>
<clipPath id="clip1_82_506">
<rect width="15" height="15" fill="white"/>
</clipPath>
</defs>
</svg>
