<svg width="100" height="100" viewBox="0 0 100 100" fill="none" xmlns="http://www.w3.org/2000/svg">
<circle cx="50" cy="50" r="50" fill="white"/>
<g clip-path="url(#clip0_533_873)">
<path d="M40.4427 50.5C37.6302 50.5874 35.3299 51.7065 33.5417 53.8571H30.0521C28.6285 53.8571 27.4306 53.5031 26.4583 52.7949C25.4861 52.0868 25 51.0508 25 49.6869C25 43.5147 26.0764 40.4286 28.2292 40.4286C28.3333 40.4286 28.7109 40.6122 29.362 40.9794C30.013 41.3465 30.8594 41.7181 31.901 42.094C32.9427 42.47 33.9757 42.6579 35 42.6579C36.1632 42.6579 37.3177 42.4568 38.4635 42.0547C38.3767 42.7016 38.3333 43.2786 38.3333 43.7857C38.3333 46.2161 39.0365 48.4542 40.4427 50.5ZM68.3333 67.207C68.3333 69.3052 67.6997 70.962 66.4323 72.1772C65.1649 73.3924 63.4809 74 61.3802 74H38.6198C36.5191 74 34.8351 73.3924 33.5677 72.1772C32.3003 70.962 31.6667 69.3052 31.6667 67.207C31.6667 66.2803 31.697 65.3755 31.7578 64.4925C31.8186 63.6095 31.9401 62.6565 32.1224 61.6337C32.3047 60.6108 32.5347 59.6622 32.8125 58.7879C33.0903 57.9137 33.4635 57.0613 33.9323 56.2307C34.401 55.4002 34.9392 54.6921 35.5469 54.1063C36.1545 53.5206 36.8967 53.0528 37.7734 52.7031C38.6502 52.3534 39.6181 52.1786 40.6771 52.1786C40.8507 52.1786 41.224 52.3665 41.7969 52.7425C42.3698 53.1184 43.0035 53.538 43.6979 54.0014C44.3924 54.4648 45.3212 54.8844 46.4844 55.2603C47.6476 55.6363 48.8194 55.8242 50 55.8242C51.1806 55.8242 52.3524 55.6363 53.5156 55.2603C54.6788 54.8844 55.6076 54.4648 56.3021 54.0014C56.9965 53.538 57.6302 53.1184 58.2031 52.7425C58.776 52.3665 59.1493 52.1786 59.3229 52.1786C60.3819 52.1786 61.3498 52.3534 62.2266 52.7031C63.1033 53.0528 63.8455 53.5206 64.4531 54.1063C65.0608 54.6921 65.599 55.4002 66.0677 56.2307C66.5365 57.0613 66.9097 57.9137 67.1875 58.7879C67.4653 59.6622 67.6953 60.6108 67.8776 61.6337C68.0599 62.6565 68.1814 63.6095 68.2422 64.4925C68.303 65.3755 68.3333 66.2803 68.3333 67.207ZM41.6667 33.7143C41.6667 35.5677 41.0156 37.1501 39.7135 38.4615C38.4115 39.7729 36.8403 40.4286 35 40.4286C33.1597 40.4286 31.5885 39.7729 30.2865 38.4615C28.9844 37.1501 28.3333 35.5677 28.3333 33.7143C28.3333 31.8609 28.9844 30.2785 30.2865 28.9671C31.5885 27.6557 33.1597 27 35 27C36.8403 27 38.4115 27.6557 39.7135 28.9671C41.0156 30.2785 41.6667 31.8609 41.6667 33.7143ZM60 43.7857C60 46.5658 59.0234 48.9395 57.0703 50.9065C55.1172 52.8736 52.7604 53.8571 50 53.8571C47.2396 53.8571 44.8828 52.8736 42.9297 50.9065C40.9766 48.9395 40 46.5658 40 43.7857C40 41.0056 40.9766 38.632 42.9297 36.6649C44.8828 34.6978 47.2396 33.7143 50 33.7143C52.7604 33.7143 55.1172 34.6978 57.0703 36.6649C59.0234 38.632 60 41.0056 60 43.7857ZM75 49.6869C75 51.0508 74.5139 52.0868 73.5417 52.7949C72.5694 53.5031 71.3715 53.8571 69.9479 53.8571H66.4583C64.6701 51.7065 62.3698 50.5874 59.5573 50.5C60.9635 48.4542 61.6667 46.2161 61.6667 43.7857C61.6667 43.2786 61.6233 42.7016 61.5365 42.0547C62.6823 42.4568 63.8368 42.6579 65 42.6579C66.0243 42.6579 67.0573 42.47 68.099 42.094C69.1406 41.7181 69.987 41.3465 70.638 40.9794C71.2891 40.6122 71.6667 40.4286 71.7708 40.4286C73.9236 40.4286 75 43.5147 75 49.6869ZM71.6667 33.7143C71.6667 35.5677 71.0156 37.1501 69.7135 38.4615C68.4115 39.7729 66.8403 40.4286 65 40.4286C63.1597 40.4286 61.5885 39.7729 60.2865 38.4615C58.9844 37.1501 58.3333 35.5677 58.3333 33.7143C58.3333 31.8609 58.9844 30.2785 60.2865 28.9671C61.5885 27.6557 63.1597 27 65 27C66.8403 27 68.4115 27.6557 69.7135 28.9671C71.0156 30.2785 71.6667 31.8609 71.6667 33.7143Z" fill="#E1114C"/>
</g>
<defs>
<clipPath id="clip0_533_873">
<rect width="50" height="47" fill="white" transform="translate(25 27)"/>
</clipPath>
</defs>
</svg>
