<svg width="30" height="30" viewBox="0 0 30 30" fill="none" xmlns="http://www.w3.org/2000/svg">
<g clip-path="url(#clip0_497_1897)">
<path d="M22.9648 0H7.02734C3.14409 0 -0.00390625 3.148 -0.00390625 7.03125V22.9688C-0.00390625 26.852 3.14409 30 7.02734 30H22.9648C26.8481 30 29.9961 26.852 29.9961 22.9688V7.03125C29.9961 3.148 26.8481 0 22.9648 0Z" fill="url(#paint0_radial_497_1897)"/>
<path d="M22.9648 0H7.02734C3.14409 0 -0.00390625 3.148 -0.00390625 7.03125V22.9688C-0.00390625 26.852 3.14409 30 7.02734 30H22.9648C26.8481 30 29.9961 26.852 29.9961 22.9688V7.03125C29.9961 3.148 26.8481 0 22.9648 0Z" fill="url(#paint1_radial_497_1897)"/>
<path d="M14.9971 3.28125C11.8146 3.28125 11.4151 3.2952 10.1652 3.35203C8.91758 3.40922 8.06598 3.60668 7.3209 3.89648C6.55004 4.19578 5.89625 4.59621 5.24492 5.24777C4.59301 5.89922 4.19258 6.55301 3.89234 7.32352C3.60172 8.06883 3.40402 8.92078 3.34789 10.1678C3.29199 11.4178 3.27734 11.8174 3.27734 15.0001C3.27734 18.1828 3.29141 18.581 3.34813 19.8309C3.40555 21.0785 3.60301 21.9301 3.89258 22.6752C4.19211 23.4461 4.59254 24.0998 5.2441 24.7512C5.89531 25.4031 6.5491 25.8045 7.31938 26.1038C8.06504 26.3936 8.91676 26.591 10.1641 26.6482C11.4141 26.705 11.8133 26.719 14.9957 26.719C18.1787 26.719 18.5769 26.705 19.8268 26.6482C21.0744 26.591 21.9269 26.3936 22.6726 26.1038C23.4431 25.8045 24.0959 25.4031 24.747 24.7512C25.3989 24.0998 25.7993 23.4461 26.0996 22.6755C26.3877 21.9301 26.5855 21.0783 26.6441 19.8312C26.7002 18.5812 26.7148 18.1828 26.7148 15.0001C26.7148 11.8174 26.7002 11.418 26.6441 10.168C26.5855 8.92043 26.3877 8.06895 26.0996 7.32387C25.7993 6.55301 25.3989 5.89922 24.747 5.24777C24.0952 4.59598 23.4433 4.19555 22.6719 3.8966C21.9248 3.60668 21.0727 3.4091 19.8252 3.35203C18.5751 3.2952 18.1771 3.28125 14.9935 3.28125H14.9971ZM13.9459 5.39309C14.2579 5.39262 14.6061 5.39309 14.9971 5.39309C18.1262 5.39309 18.497 5.40434 19.7326 5.46047C20.8752 5.51273 21.4953 5.70363 21.9084 5.86406C22.4553 6.07641 22.8452 6.33035 23.2551 6.74063C23.6653 7.15078 23.9191 7.54137 24.132 8.08828C24.2925 8.50078 24.4836 9.12094 24.5356 10.2635C24.5918 11.4989 24.6039 11.8699 24.6039 14.9974C24.6039 18.1249 24.5918 18.4961 24.5356 19.7313C24.4834 20.8739 24.2925 21.4941 24.132 21.9067C23.9197 22.4536 23.6653 22.843 23.2551 23.2529C22.845 23.6631 22.4555 23.9169 21.9084 24.1294C21.4958 24.2905 20.8752 24.4809 19.7326 24.5332C18.4972 24.5893 18.1262 24.6015 14.9971 24.6015C11.868 24.6015 11.4971 24.5893 10.2618 24.5332C9.11926 24.4805 8.4991 24.2896 8.08566 24.1291C7.53887 23.9167 7.14816 23.6629 6.73801 23.2527C6.32785 22.8425 6.07402 22.4529 5.86109 21.9057C5.70066 21.4931 5.50953 20.873 5.4575 19.7304C5.40137 18.495 5.39012 18.124 5.39012 14.9945C5.39012 11.865 5.40137 11.496 5.4575 10.2606C5.50977 9.11801 5.70066 8.49785 5.86109 8.08477C6.07355 7.53785 6.32785 7.14727 6.73813 6.73711C7.1484 6.32695 7.53887 6.07301 8.08578 5.8602C8.49887 5.69906 9.11926 5.50863 10.2618 5.45613C11.3429 5.40727 11.7618 5.39262 13.9459 5.39016V5.39309ZM21.2526 7.33887C20.4763 7.33887 19.8464 7.96816 19.8464 8.74465C19.8464 9.52102 20.4763 10.1509 21.2526 10.1509C22.029 10.1509 22.6589 9.52102 22.6589 8.74465C22.6589 7.96828 22.029 7.3384 21.2526 7.3384V7.33887ZM14.9971 8.98195C11.6737 8.98195 8.9791 11.6766 8.9791 15.0001C8.9791 18.3237 11.6737 21.017 14.9971 21.017C18.3207 21.017 21.0144 18.3237 21.0144 15.0001C21.0144 11.6767 18.3205 8.98195 14.9969 8.98195H14.9971ZM14.9971 11.0938C17.1545 11.0938 18.9035 12.8426 18.9035 15.0001C18.9035 17.1574 17.1545 18.9064 14.9971 18.9064C12.8398 18.9064 11.0909 17.1574 11.0909 15.0001C11.0909 12.8426 12.8397 11.0938 14.9971 11.0938Z" fill="white"/>
</g>
<defs>
<radialGradient id="paint0_radial_497_1897" cx="0" cy="0" r="1" gradientUnits="userSpaceOnUse" gradientTransform="translate(7.96484 32.3106) rotate(-90) scale(29.7322 27.6533)">
<stop stop-color="#FFDD55"/>
<stop offset="0.1" stop-color="#FFDD55"/>
<stop offset="0.5" stop-color="#FF543E"/>
<stop offset="1" stop-color="#C837AB"/>
</radialGradient>
<radialGradient id="paint1_radial_497_1897" cx="0" cy="0" r="1" gradientUnits="userSpaceOnUse" gradientTransform="translate(-5.02902 2.16105) rotate(78.681) scale(13.2905 54.7837)">
<stop stop-color="#3771C8"/>
<stop offset="0.128" stop-color="#3771C8"/>
<stop offset="1" stop-color="#6600FF" stop-opacity="0"/>
</radialGradient>
<clipPath id="clip0_497_1897">
<rect width="30" height="30" fill="white" transform="translate(-0.00390625)"/>
</clipPath>
</defs>
</svg>
