<svg width="51" height="51" viewBox="0 0 51 51" fill="none" xmlns="http://www.w3.org/2000/svg">
<path d="M8.22839 25.0743C8.31456 15.6747 15.9839 8.14469 25.3835 8.23086C34.7831 8.31704 42.3131 15.9864 42.227 25.386C42.1408 34.7856 34.4714 42.3156 25.0718 42.2294C15.6722 42.1433 8.14221 34.4739 8.22839 25.0743ZM40.227 25.3677C40.3031 17.068 33.6648 10.3069 25.3652 10.2308C17.0655 10.1547 10.3044 16.793 10.2283 25.0926C10.1522 33.3923 16.7905 40.1534 25.0902 40.2295C33.3898 40.3056 40.1509 33.6673 40.227 25.3677Z" fill="white"/>
<path d="M23.4522 33.5147L31.828 25.2911L23.6044 16.9154L25.0172 15.5283L34.6279 25.3168L24.8393 34.9274L23.4522 33.5147Z" fill="white"/>
<path d="M33.2363 24.3047L33.218 26.3046L16.2187 26.1487L16.237 24.1488L33.2363 24.3047Z" fill="white"/>
</svg>
