<svg width="30" height="30" viewBox="0 0 30 30" fill="none" xmlns="http://www.w3.org/2000/svg">
<g clip-path="url(#clip0_497_1906)">
<path d="M22.9648 0H7.02734C3.14409 0 -0.00390625 3.148 -0.00390625 7.03125V22.9688C-0.00390625 26.852 3.14409 30 7.02734 30H22.9648C26.8481 30 29.9961 26.852 29.9961 22.9688V7.03125C29.9961 3.148 26.8481 0 22.9648 0Z" fill="white"/>
<path d="M22.9648 0H7.02734C3.14409 0 -0.00390625 3.148 -0.00390625 7.03125V22.9688C-0.00390625 26.852 3.14409 30 7.02734 30H22.9648C26.8481 30 29.9961 26.852 29.9961 22.9688V7.03125C29.9961 3.148 26.8481 0 22.9648 0Z" fill="#0A66C2"/>
<path d="M21.6424 25.51H25.0725C25.1968 25.51 25.316 25.4606 25.4039 25.3727C25.4918 25.2848 25.5412 25.1656 25.5412 25.0413L25.543 17.7942C25.543 14.0064 24.7268 11.0948 20.3002 11.0948C18.6175 11.0323 17.0307 11.8997 16.1744 13.3481C16.1702 13.3552 16.1639 13.3606 16.1563 13.3637C16.1487 13.3668 16.1403 13.3673 16.1324 13.3651C16.1245 13.363 16.1175 13.3583 16.1125 13.3519C16.1075 13.3454 16.1048 13.3374 16.1047 13.3293V11.9133C16.1047 11.789 16.0553 11.6697 15.9674 11.5818C15.8795 11.4939 15.7603 11.4445 15.6359 11.4445H12.3808C12.2565 11.4445 12.1373 11.4939 12.0494 11.5818C11.9615 11.6697 11.9121 11.789 11.9121 11.9133V25.0406C11.9121 25.1649 11.9615 25.2842 12.0494 25.3721C12.1373 25.46 12.2565 25.5094 12.3808 25.5094H15.8107C15.935 25.5094 16.0542 25.46 16.1421 25.3721C16.23 25.2842 16.2794 25.1649 16.2794 25.0406V18.5516C16.2794 16.7168 16.6275 14.9399 18.9022 14.9399C21.1446 14.9399 21.1736 17.0394 21.1736 18.6704V25.0412C21.1736 25.1655 21.223 25.2848 21.3109 25.3727C21.3988 25.4606 21.5181 25.51 21.6424 25.51ZM4.44922 6.98766C4.44922 8.37797 5.59379 9.52195 6.98422 9.52195C8.3743 9.52184 9.51816 8.37715 9.51816 6.98707C9.51793 5.59699 8.37394 4.45312 6.98375 4.45312C5.5932 4.45312 4.44922 5.59734 4.44922 6.98766ZM5.26473 25.51H8.69914C8.82346 25.51 8.94269 25.4606 9.0306 25.3727C9.11851 25.2848 9.16789 25.1655 9.16789 25.0412V11.9133C9.16789 11.789 9.11851 11.6697 9.0306 11.5818C8.94269 11.4939 8.82346 11.4445 8.69914 11.4445H5.26473C5.14041 11.4445 5.02118 11.4939 4.93327 11.5818C4.84536 11.6697 4.79598 11.789 4.79598 11.9133V25.0412C4.79598 25.1655 4.84536 25.2848 4.93327 25.3727C5.02118 25.4606 5.14041 25.51 5.26473 25.51Z" fill="white"/>
</g>
<defs>
<clipPath id="clip0_497_1906">
<rect width="30" height="30" fill="white" transform="translate(-0.00390625)"/>
</clipPath>
</defs>
</svg>
