<svg width="70" height="71" viewBox="0 0 70 71" fill="none" xmlns="http://www.w3.org/2000/svg">
<g clip-path="url(#clip0_82_456)">
<path d="M1.49258 35.0765C1.49094 41.0419 3.03969 46.8666 5.98461 52.0006L1.21094 69.542L19.0478 64.8351C23.9813 67.538 29.5088 68.9544 35.1259 68.9548H35.1407C53.6839 68.9548 68.7784 53.7688 68.7864 35.1032C68.7899 26.0584 65.2932 17.5533 58.9402 11.1545C52.5882 4.7562 44.1404 1.23069 35.1393 1.22656C16.594 1.22656 1.50051 16.4118 1.49285 35.0765" fill="url(#paint0_linear_82_456)"/>
<path d="M0.292578 35.0641C0.290664 41.2441 1.89492 47.2772 4.94484 52.595L0 70.7653L18.4764 65.8896C23.5673 68.6831 29.2991 70.156 35.1315 70.1582H35.1466C54.355 70.1582 69.9918 54.4259 70 35.0922C70.0033 25.7224 66.3808 16.9115 59.8008 10.2834C53.22 3.65622 44.47 0.00385271 35.1466 0C15.9348 0 0.300234 15.7301 0.292578 35.0641ZM11.296 51.6792L10.6061 50.577C7.70602 45.9362 6.17531 40.5732 6.1775 35.0663C6.18352 18.9964 19.1784 5.92217 35.1575 5.92217C42.8958 5.92547 50.1681 8.96141 55.638 14.4697C61.1075 19.9785 64.1173 27.3014 64.1154 35.09C64.1082 51.1599 51.1131 64.2357 35.1466 64.2357H35.1351C29.9362 64.233 24.8374 62.8278 20.3908 60.1725L19.3326 59.5409L8.36828 62.434L11.296 51.6792Z" fill="url(#paint1_linear_82_456)"/>
<path d="M26.4363 20.4059C25.7839 18.9465 25.0973 18.9171 24.4769 18.8915C23.9688 18.8695 23.388 18.8711 22.8078 18.8711C22.227 18.8711 21.2834 19.091 20.4858 19.9675C19.6873 20.8448 17.4375 22.9649 17.4375 27.2769C17.4375 31.5889 20.5582 35.7565 20.9933 36.3418C21.4289 36.926 27.0179 46.0581 35.8696 49.5712C43.2262 52.4907 44.7233 51.9101 46.3199 51.7637C47.9168 51.6178 51.4725 49.6441 52.198 47.5975C52.9239 45.5512 52.9239 43.7971 52.7063 43.4305C52.4886 43.0653 51.9078 42.846 51.0369 42.4079C50.1661 41.9698 45.8843 39.8491 45.0861 39.5566C44.2877 39.2644 43.7072 39.1185 43.1264 39.9961C42.5456 40.8723 40.8779 42.846 40.3696 43.4305C39.8618 44.0164 39.3535 44.0893 38.4829 43.6509C37.6114 43.2112 34.8068 42.2868 31.4793 39.3012C28.8904 36.978 27.1426 34.1092 26.6346 33.2316C26.1265 32.3553 26.5802 31.8804 27.0168 31.4436C27.4081 31.0509 27.888 30.4202 28.3239 29.9086C28.7581 29.3967 28.903 29.0316 29.1934 28.447C29.4841 27.862 29.3386 27.3501 29.1212 26.9117C28.903 26.4734 27.2107 22.1388 26.4363 20.4059Z" fill="white"/>
</g>
<defs>
<linearGradient id="paint0_linear_82_456" x1="3379.98" y1="6832.78" x2="3379.98" y2="1.22656" gradientUnits="userSpaceOnUse">
<stop stop-color="#1FAF38"/>
<stop offset="1" stop-color="#60D669"/>
</linearGradient>
<linearGradient id="paint1_linear_82_456" x1="3500" y1="7076.53" x2="3500" y2="0" gradientUnits="userSpaceOnUse">
<stop stop-color="#F9F9F9"/>
<stop offset="1" stop-color="white"/>
</linearGradient>
<clipPath id="clip0_82_456">
<rect width="70" height="71" fill="white"/>
</clipPath>
</defs>
</svg>
