<svg width="60" height="60" viewBox="0 0 60 60" fill="none" xmlns="http://www.w3.org/2000/svg">
<path fill-rule="evenodd" clip-rule="evenodd" d="M13.125 3.75C12.6277 3.75 12.1508 3.94755 11.7992 4.29918C11.4475 4.65081 11.25 5.12772 11.25 5.625V54.375C11.25 54.8723 11.4475 55.3492 11.7992 55.7008C12.1508 56.0525 12.6277 56.25 13.125 56.25H46.875C47.3723 56.25 47.8492 56.0525 48.2008 55.7008C48.5525 55.3492 48.75 54.8723 48.75 54.375V18.75C48.7504 18.5036 48.7023 18.2595 48.6084 18.0318C48.5144 17.804 48.3765 17.5969 48.2025 17.4225L35.0775 4.2975C34.9031 4.1235 34.696 3.98558 34.4682 3.89163C34.2405 3.79769 33.9964 3.74956 33.75 3.75H13.125ZM42.3488 16.875L35.625 10.1513V16.875H42.3488ZM28.125 20.625H18.75V16.875H28.125V20.625ZM41.25 31.875H18.75V28.125H41.25V31.875ZM18.75 43.125H41.25V39.375H18.75V43.125Z" fill="#E1114C"/>
<g clip-path="url(#clip0_507_332)">
<path d="M42 37.4004C47.8314 37.4004 52.5996 42.1686 52.5996 48C52.5996 53.8314 47.8314 58.5996 42 58.5996C36.1686 58.5996 31.4004 53.8314 31.4004 48C31.4004 42.1686 36.1686 37.4004 42 37.4004ZM40.4238 50.5947L40.001 51.0176L39.5762 50.5947L36.4102 47.4375L35.8477 48L40 52.1523L48.1523 43.999L47.5879 43.4297L40.4238 50.5947Z" fill="white" stroke="#E1114C" stroke-width="1.2"/>
</g>
<defs>
<clipPath id="clip0_507_332">
<rect width="24" height="24" fill="white" transform="translate(30 36)"/>
</clipPath>
</defs>
</svg>
