<svg width="70" height="56" viewBox="0 0 70 56" fill="none" xmlns="http://www.w3.org/2000/svg">
<path d="M22.4 25.2C21.2406 23.6578 19.0422 23.3406 17.5 24.5C15.9578 25.6594 15.6406 27.8578 16.8 29.4L20.9672 34.9563C21.4922 35.6562 21.4156 36.6297 20.8031 37.2422L19.4031 38.6422C18.6703 39.375 17.4781 39.3203 16.8219 38.5219L7 26.7312V10.5C7 8.56406 5.43594 7 3.5 7C1.56406 7 0 8.56406 0 10.5V34.3875C0 35.5797 0.404687 36.7391 1.14844 37.6687L12.5344 52.3578C13.0813 53.0688 13.4531 53.8781 13.6719 54.7313C13.8687 55.4859 14.5578 56 15.3453 56H29.75C30.7125 56 31.5 55.2125 31.5 54.25V42C31.5 38.9703 30.5156 36.0281 28.7 33.6L22.4 25.2ZM66.5 7C64.5641 7 63 8.56406 63 10.5V26.7312L53.1781 38.5219C52.5219 39.3094 51.3188 39.3641 50.5969 38.6422L49.1969 37.2422C48.5844 36.6297 48.5078 35.6562 49.0328 34.9563L53.2 29.4C54.3594 27.8578 54.0422 25.6594 52.5 24.5C50.9578 23.3406 48.7594 23.6578 47.6 25.2L41.3 33.6C39.4844 36.0281 38.5 38.9703 38.5 42V54.25C38.5 55.2125 39.2875 56 40.25 56H54.6547C55.4313 56 56.1312 55.4859 56.3281 54.7313C56.5469 53.8781 56.9188 53.0688 57.4656 52.3578L68.8516 37.6687C69.5953 36.7391 70 35.5797 70 34.3875V10.5C70 8.56406 68.4359 7 66.5 7Z" fill="#E1114C"/>
<path d="M34.9989 19.5C34.0706 19.5 33.1804 19.1313 32.524 18.4749C31.8676 17.8185 31.4989 16.9283 31.4989 16C31.4989 15.0717 31.8676 14.1815 32.524 13.5251C33.1804 12.8688 34.0706 12.5 34.9989 12.5C35.9271 12.5 36.8174 12.8688 37.4737 13.5251C38.1301 14.1815 38.4989 15.0717 38.4989 16C38.4989 16.9283 38.1301 17.8185 37.4737 18.4749C36.8174 19.1313 35.9271 19.5 34.9989 19.5ZM42.4289 16.97C42.4689 16.65 42.4989 16.33 42.4989 16C42.4989 15.67 42.4689 15.34 42.4289 15L44.5389 13.37C44.7289 13.22 44.7789 12.95 44.6589 12.73L42.6589 9.27C42.5389 9.05 42.2689 8.96 42.0489 9.05L39.5589 10.05C39.0389 9.66 38.4989 9.32 37.8689 9.07L37.4989 6.42C37.4785 6.30222 37.4172 6.19543 37.3257 6.11855C37.2342 6.04168 37.1184 5.99968 36.9989 6H32.9989C32.7489 6 32.5389 6.18 32.4989 6.42L32.1289 9.07C31.4989 9.32 30.9589 9.66 30.4389 10.05L27.9489 9.05C27.7289 8.96 27.4589 9.05 27.3389 9.27L25.3389 12.73C25.2089 12.95 25.2689 13.22 25.4589 13.37L27.5689 15C27.5289 15.34 27.4989 15.67 27.4989 16C27.4989 16.33 27.5289 16.65 27.5689 16.97L25.4589 18.63C25.2689 18.78 25.2089 19.05 25.3389 19.27L27.3389 22.73C27.4589 22.95 27.7289 23.03 27.9489 22.95L30.4389 21.94C30.9589 22.34 31.4989 22.68 32.1289 22.93L32.4989 25.58C32.5389 25.82 32.7489 26 32.9989 26H36.9989C37.2489 26 37.4589 25.82 37.4989 25.58L37.8689 22.93C38.4989 22.67 39.0389 22.34 39.5589 21.94L42.0489 22.95C42.2689 23.03 42.5389 22.95 42.6589 22.73L44.6589 19.27C44.7789 19.05 44.7289 18.78 44.5389 18.63L42.4289 16.97Z" fill="#E1114C"/>
</svg>
