<svg width="75" height="75" viewBox="0 0 75 75" fill="none" xmlns="http://www.w3.org/2000/svg">
<path d="M28.125 21.875H16.0781C18.9794 17.8831 22.9353 14.7783 27.5023 12.9088C32.0693 11.0392 37.0668 10.4789 41.9344 11.2906C42.335 11.3403 42.7393 11.233 43.0626 10.9911C43.3859 10.7493 43.603 10.3917 43.6684 9.99332C43.7339 9.59494 43.6426 9.1867 43.4137 8.85413C43.1848 8.52157 42.8361 8.29051 42.4406 8.20938C40.8069 7.94648 39.1548 7.81377 37.5 7.8125C32.9769 7.82009 28.515 8.85894 24.4537 10.8501C20.3924 12.8412 16.8386 15.7321 14.0625 19.3031V7.8125C14.0625 7.3981 13.8979 7.00067 13.6049 6.70765C13.3118 6.41462 12.9144 6.25 12.5 6.25C12.0856 6.25 11.6882 6.41462 11.3951 6.70765C11.1021 7.00067 10.9375 7.3981 10.9375 7.8125V23.4375C10.9375 23.8519 11.1021 24.2493 11.3951 24.5424C11.6882 24.8354 12.0856 25 12.5 25H28.125C28.5394 25 28.9368 24.8354 29.2299 24.5424C29.5229 24.2493 29.6875 23.8519 29.6875 23.4375C29.6875 23.0231 29.5229 22.6257 29.2299 22.3326C28.9368 22.0396 28.5394 21.875 28.125 21.875ZM23.4375 45.3125C23.0231 45.3125 22.6257 45.4771 22.3326 45.7701C22.0396 46.0632 21.875 46.4606 21.875 46.875V58.9219C17.8831 56.0206 14.7783 52.0647 12.9088 47.4977C11.0392 42.9307 10.4789 37.9332 11.2906 33.0656C11.3403 32.665 11.233 32.2607 10.9911 31.9374C10.7493 31.6141 10.3917 31.397 9.99332 31.3316C9.59494 31.2661 9.1867 31.3574 8.85413 31.5863C8.52157 31.8152 8.29051 32.1639 8.20938 32.5594C7.32859 37.8503 7.8946 43.2809 9.84749 48.2765C11.8004 53.272 15.0675 57.6467 19.3031 60.9375H7.8125C7.3981 60.9375 7.00067 61.1021 6.70765 61.3951C6.41462 61.6882 6.25 62.0856 6.25 62.5C6.25 62.9144 6.41462 63.3118 6.70765 63.6049C7.00067 63.8979 7.3981 64.0625 7.8125 64.0625H23.4375C23.8519 64.0625 24.2493 63.8979 24.5424 63.6049C24.8354 63.3118 25 62.9144 25 62.5V46.875C25 46.4606 24.8354 46.0632 24.5424 45.7701C24.2493 45.4771 23.8519 45.3125 23.4375 45.3125ZM62.5 50H46.875C46.4606 50 46.0632 50.1646 45.7701 50.4576C45.4771 50.7507 45.3125 51.1481 45.3125 51.5625C45.3125 51.9769 45.4771 52.3743 45.7701 52.6674C46.0632 52.9604 46.4606 53.125 46.875 53.125H58.9219C56.0206 57.1169 52.0647 60.2217 47.4977 62.0912C42.9307 63.9608 37.9332 64.5211 33.0656 63.7094C32.665 63.6597 32.2607 63.767 31.9374 64.0089C31.6141 64.2507 31.397 64.6083 31.3316 65.0067C31.2661 65.4051 31.3574 65.8133 31.5863 66.1459C31.8152 66.4784 32.1639 66.7095 32.5594 66.7906C34.1931 67.0535 35.8452 67.1862 37.5 67.1875C42.0231 67.1799 46.485 66.1411 50.5463 64.1499C54.6076 62.1588 58.1614 59.2679 60.9375 55.6969V67.1875C60.9375 67.6019 61.1021 67.9993 61.3951 68.2924C61.6882 68.5854 62.0856 68.75 62.5 68.75C62.9144 68.75 63.3118 68.5854 63.6049 68.2924C63.8979 67.9993 64.0625 67.6019 64.0625 67.1875V51.5625C64.0625 51.1481 63.8979 50.7507 63.6049 50.4576C63.3118 50.1646 62.9144 50 62.5 50ZM67.1875 10.9375H51.5625C51.1481 10.9375 50.7507 11.1021 50.4576 11.3951C50.1646 11.6882 50 12.0856 50 12.5V28.125C50 28.5394 50.1646 28.9368 50.4576 29.2299C50.7507 29.5229 51.1481 29.6875 51.5625 29.6875C51.9769 29.6875 52.3743 29.5229 52.6674 29.2299C52.9604 28.9368 53.125 28.5394 53.125 28.125V16.0625C56.1364 18.2254 58.6491 21.0088 60.4937 24.225C62.8358 28.2568 64.0672 32.8373 64.0625 37.5C64.0625 38.9875 63.9448 40.4656 63.7094 41.9344C63.6761 42.1367 63.6831 42.3436 63.7298 42.5432C63.7765 42.7429 63.8621 42.9313 63.9816 43.0979C64.1012 43.2645 64.2524 43.4059 64.4266 43.514C64.6008 43.6221 64.7946 43.6949 64.9969 43.7281C65.1992 43.7614 65.4061 43.7544 65.6057 43.7077C65.8054 43.661 65.9938 43.5754 66.1604 43.4559C66.327 43.3363 66.4684 43.1851 66.5765 43.0109C66.6846 42.8367 66.7574 42.6429 66.7906 42.4406C67.0535 40.8069 67.1862 39.1548 67.1875 37.5C67.1926 32.2901 65.8179 27.1718 63.2031 22.6656C61.2991 19.3312 58.7532 16.4072 55.7125 14.0625H67.1875C67.6019 14.0625 67.9993 13.8979 68.2924 13.6049C68.5854 13.3118 68.75 12.9144 68.75 12.5C68.75 12.0856 68.5854 11.6882 68.2924 11.3951C67.9993 11.1021 67.6019 10.9375 67.1875 10.9375Z" fill="#E1114C"/>
<path fill-rule="evenodd" clip-rule="evenodd" d="M30.25 27.5C30.0511 27.5 29.8603 27.579 29.7197 27.7197C29.579 27.8603 29.5 28.0511 29.5 28.25V47.75C29.5 47.9489 29.579 48.1397 29.7197 48.2803C29.8603 48.421 30.0511 48.5 30.25 48.5H43.75C43.9489 48.5 44.1397 48.421 44.2803 48.2803C44.421 48.1397 44.5 47.9489 44.5 47.75V33.5C44.5002 33.4014 44.4809 33.3038 44.4433 33.2127C44.4058 33.1216 44.3506 33.0388 44.281 32.969L39.031 27.719C38.9612 27.6494 38.8784 27.5942 38.7873 27.5567C38.6962 27.5191 38.5986 27.4998 38.5 27.5H30.25ZM41.9395 32.75L39.25 30.0605V32.75H41.9395ZM36.25 34.25H32.5V32.75H36.25V34.25ZM41.5 38.75H32.5V37.25H41.5V38.75ZM32.5 43.25H41.5V41.75H32.5V43.25Z" fill="#E1114C"/>
</svg>
