<svg width="100" height="100" viewBox="0 0 100 100" fill="none" xmlns="http://www.w3.org/2000/svg">
<circle cx="50" cy="50" r="50" fill="white"/>
<path d="M41.125 33.875H29.0781C31.9794 29.8831 35.9353 26.7783 40.5023 24.9088C45.0693 23.0392 50.0668 22.4789 54.9344 23.2906C55.335 23.3403 55.7393 23.233 56.0626 22.9911C56.3859 22.7493 56.603 22.3917 56.6684 21.9933C56.7339 21.5949 56.6426 21.1867 56.4137 20.8541C56.1848 20.5216 55.8361 20.2905 55.4406 20.2094C53.8069 19.9465 52.1548 19.8138 50.5 19.8125C45.9769 19.8201 41.515 20.8589 37.4537 22.8501C33.3924 24.8412 29.8386 27.7321 27.0625 31.3031V19.8125C27.0625 19.3981 26.8979 19.0007 26.6049 18.7076C26.3118 18.4146 25.9144 18.25 25.5 18.25C25.0856 18.25 24.6882 18.4146 24.3951 18.7076C24.1021 19.0007 23.9375 19.3981 23.9375 19.8125V35.4375C23.9375 35.8519 24.1021 36.2493 24.3951 36.5424C24.6882 36.8354 25.0856 37 25.5 37H41.125C41.5394 37 41.9368 36.8354 42.2299 36.5424C42.5229 36.2493 42.6875 35.8519 42.6875 35.4375C42.6875 35.0231 42.5229 34.6257 42.2299 34.3326C41.9368 34.0396 41.5394 33.875 41.125 33.875ZM36.4375 57.3125C36.0231 57.3125 35.6257 57.4771 35.3326 57.7701C35.0396 58.0632 34.875 58.4606 34.875 58.875V70.9219C30.8831 68.0206 27.7783 64.0647 25.9088 59.4977C24.0392 54.9307 23.4789 49.9332 24.2906 45.0656C24.3403 44.665 24.233 44.2607 23.9911 43.9374C23.7493 43.6141 23.3917 43.397 22.9933 43.3316C22.5949 43.2661 22.1867 43.3574 21.8541 43.5863C21.5216 43.8152 21.2905 44.1639 21.2094 44.5594C20.3286 49.8503 20.8946 55.2809 22.8475 60.2765C24.8004 65.272 28.0675 69.6467 32.3031 72.9375H20.8125C20.3981 72.9375 20.0007 73.1021 19.7076 73.3951C19.4146 73.6882 19.25 74.0856 19.25 74.5C19.25 74.9144 19.4146 75.3118 19.7076 75.6049C20.0007 75.8979 20.3981 76.0625 20.8125 76.0625H36.4375C36.8519 76.0625 37.2493 75.8979 37.5424 75.6049C37.8354 75.3118 38 74.9144 38 74.5V58.875C38 58.4606 37.8354 58.0632 37.5424 57.7701C37.2493 57.4771 36.8519 57.3125 36.4375 57.3125ZM75.5 62H59.875C59.4606 62 59.0632 62.1646 58.7701 62.4576C58.4771 62.7507 58.3125 63.1481 58.3125 63.5625C58.3125 63.9769 58.4771 64.3743 58.7701 64.6674C59.0632 64.9604 59.4606 65.125 59.875 65.125H71.9219C69.0206 69.1169 65.0647 72.2217 60.4977 74.0912C55.9307 75.9608 50.9332 76.5211 46.0656 75.7094C45.665 75.6597 45.2607 75.767 44.9374 76.0089C44.6141 76.2507 44.397 76.6083 44.3316 77.0067C44.2661 77.4051 44.3574 77.8133 44.5863 78.1459C44.8152 78.4784 45.1639 78.7095 45.5594 78.7906C47.1931 79.0535 48.8452 79.1862 50.5 79.1875C55.0231 79.1799 59.485 78.1411 63.5463 76.1499C67.6076 74.1588 71.1614 71.2679 73.9375 67.6969V79.1875C73.9375 79.6019 74.1021 79.9993 74.3951 80.2924C74.6882 80.5854 75.0856 80.75 75.5 80.75C75.9144 80.75 76.3118 80.5854 76.6049 80.2924C76.8979 79.9993 77.0625 79.6019 77.0625 79.1875V63.5625C77.0625 63.1481 76.8979 62.7507 76.6049 62.4576C76.3118 62.1646 75.9144 62 75.5 62ZM80.1875 22.9375H64.5625C64.1481 22.9375 63.7507 23.1021 63.4576 23.3951C63.1646 23.6882 63 24.0856 63 24.5V40.125C63 40.5394 63.1646 40.9368 63.4576 41.2299C63.7507 41.5229 64.1481 41.6875 64.5625 41.6875C64.9769 41.6875 65.3743 41.5229 65.6674 41.2299C65.9604 40.9368 66.125 40.5394 66.125 40.125V28.0625C69.1364 30.2254 71.6491 33.0088 73.4937 36.225C75.8358 40.2568 77.0672 44.8373 77.0625 49.5C77.0625 50.9875 76.9448 52.4656 76.7094 53.9344C76.6761 54.1367 76.6831 54.3436 76.7298 54.5432C76.7765 54.7429 76.8621 54.9313 76.9816 55.0979C77.1012 55.2645 77.2524 55.4059 77.4266 55.514C77.6008 55.6221 77.7946 55.6949 77.9969 55.7281C78.1992 55.7614 78.4061 55.7544 78.6057 55.7077C78.8054 55.661 78.9938 55.5754 79.1604 55.4559C79.327 55.3363 79.4684 55.1851 79.5765 55.0109C79.6846 54.8367 79.7574 54.6429 79.7906 54.4406C80.0535 52.8069 80.1862 51.1548 80.1875 49.5C80.1926 44.2901 78.8179 39.1718 76.2031 34.6656C74.2991 31.3312 71.7532 28.4072 68.7125 26.0625H80.1875C80.6019 26.0625 80.9993 25.8979 81.2924 25.6049C81.5854 25.3118 81.75 24.9144 81.75 24.5C81.75 24.0856 81.5854 23.6882 81.2924 23.3951C80.9993 23.1021 80.6019 22.9375 80.1875 22.9375Z" fill="#E1114C"/>
<path fill-rule="evenodd" clip-rule="evenodd" d="M43.25 39.5C43.0511 39.5 42.8603 39.579 42.7197 39.7197C42.579 39.8603 42.5 40.0511 42.5 40.25V59.75C42.5 59.9489 42.579 60.1397 42.7197 60.2803C42.8603 60.421 43.0511 60.5 43.25 60.5H56.75C56.9489 60.5 57.1397 60.421 57.2803 60.2803C57.421 60.1397 57.5 59.9489 57.5 59.75V45.5C57.5002 45.4014 57.4809 45.3038 57.4433 45.2127C57.4058 45.1216 57.3506 45.0388 57.281 44.969L52.031 39.719C51.9612 39.6494 51.8784 39.5942 51.7873 39.5567C51.6962 39.5191 51.5986 39.4998 51.5 39.5H43.25ZM54.9395 44.75L52.25 42.0605V44.75H54.9395ZM49.25 46.25H45.5V44.75H49.25V46.25ZM54.5 50.75H45.5V49.25H54.5V50.75ZM45.5 55.25H54.5V53.75H45.5V55.25Z" fill="#E1114C"/>
</svg>
