<svg width="18" height="18" viewBox="0 0 18 18" fill="none" xmlns="http://www.w3.org/2000/svg">
<path d="M12.4113 10.4234C12.1487 10.2603 11.7549 10.3053 11.5361 10.5247L9.79572 12.2628C9.69024 12.3682 9.54719 12.4275 9.39803 12.4275C9.24888 12.4275 9.10583 12.3682 9.00034 12.2628L5.09041 8.35341C4.98495 8.24793 4.92571 8.10488 4.92571 7.95572C4.92571 7.80657 4.98495 7.66352 5.09041 7.55804L6.72897 5.92004C6.94834 5.70066 6.98041 5.31535 6.80209 5.06279L3.82084 0.836725C3.77961 0.777007 3.72648 0.726458 3.66478 0.688251C3.60308 0.650044 3.53415 0.625005 3.46231 0.614705C3.39048 0.604405 3.31729 0.609067 3.24734 0.628398C3.17739 0.647729 3.1122 0.681311 3.05584 0.727037C3.05584 0.727037 0.730469 2.57204 0.730469 4.26797C0.730469 11.2064 6.35547 16.8308 13.2928 16.8308C14.9887 16.8308 16.6385 13.718 16.6385 13.718C16.7081 13.5827 16.7247 13.4264 16.6852 13.2795C16.6456 13.1327 16.5528 13.0058 16.4248 12.9237L12.4113 10.4234Z" fill="#222222"/>
</svg>
