<svg width="18" height="19" viewBox="0 0 18 19" fill="none" xmlns="http://www.w3.org/2000/svg">
<rect width="17.1464" height="17.1464" transform="translate(0.84375 0.921875)" fill="#F9FCFF"/>
<path d="M10.1526 2.35156C10.9564 2.35371 11.3643 2.35799 11.7165 2.36799L11.8551 2.373C12.0152 2.37871 12.173 2.38586 12.3638 2.39443C13.124 2.43015 13.6426 2.55018 14.0977 2.72664C14.5693 2.90811 14.9665 3.15387 15.3637 3.55038C15.7271 3.90741 16.0083 4.33946 16.1875 4.81636C16.3639 5.27146 16.4839 5.79014 16.5197 6.55101C16.5282 6.74105 16.5354 6.89894 16.5411 7.05969L16.5454 7.19829C16.5561 7.54979 16.5604 7.95773 16.5618 8.76147L16.5625 9.29444V10.2303C16.5643 10.7515 16.5588 11.2726 16.5461 11.7935L16.5418 11.9321C16.5361 12.0929 16.529 12.2508 16.5204 12.4408C16.4847 13.2017 16.3632 13.7196 16.1875 14.1755C16.0083 14.6524 15.7271 15.0844 15.3637 15.4414C15.0067 15.8049 14.5746 16.086 14.0977 16.2652C13.6426 16.4416 13.124 16.5617 12.3638 16.5974L11.8551 16.6188L11.7165 16.6231C11.3643 16.6331 10.9564 16.6381 10.1526 16.6395L9.61966 16.6403H8.68446C8.16311 16.6421 7.64176 16.6366 7.12057 16.6238L6.98197 16.6195C6.81237 16.6131 6.64281 16.6057 6.47329 16.5974C5.71313 16.5617 5.19445 16.4416 4.73864 16.2652C4.26199 16.0859 3.8302 15.8048 3.47338 15.4414C3.10969 15.0845 2.82832 14.6524 2.64892 14.1755C2.47246 13.7204 2.35243 13.2017 2.31671 12.4408L2.29528 11.9321L2.2917 11.7935C2.27853 11.2726 2.27258 10.7515 2.27384 10.2303V8.76147C2.27187 8.24036 2.27711 7.71925 2.28956 7.19829L2.29456 7.05969C2.30028 6.89894 2.30742 6.74105 2.316 6.55101C2.35172 5.79014 2.47174 5.27217 2.64821 4.81636C2.82803 4.33926 3.10989 3.9072 3.47409 3.55038C3.83071 3.18713 4.26225 2.90602 4.73864 2.72664C5.19445 2.55018 5.71242 2.43015 6.47329 2.39443C6.66333 2.38586 6.82193 2.37871 6.98197 2.373L7.12057 2.36871C7.64153 2.35602 8.16264 2.35054 8.68375 2.35228L10.1526 2.35156ZM9.41819 5.92373C8.47079 5.92373 7.56219 6.30009 6.89228 6.97C6.22237 7.63991 5.84602 8.54851 5.84602 9.49591C5.84602 10.4433 6.22237 11.3519 6.89228 12.0218C7.56219 12.6917 8.47079 13.0681 9.41819 13.0681C10.3656 13.0681 11.2742 12.6917 11.9441 12.0218C12.614 11.3519 12.9904 10.4433 12.9904 9.49591C12.9904 8.54851 12.614 7.63991 11.9441 6.97C11.2742 6.30009 10.3656 5.92373 9.41819 5.92373ZM9.41819 7.3526C9.69965 7.35256 9.97837 7.40795 10.2384 7.51562C10.4985 7.62328 10.7348 7.78112 10.9338 7.98011C11.1329 8.1791 11.2908 8.41535 11.3986 8.67537C11.5063 8.93539 11.5618 9.21409 11.5618 9.49555C11.5619 9.77701 11.5065 10.0557 11.3988 10.3158C11.2912 10.5758 11.1333 10.8121 10.9343 11.0112C10.7354 11.2103 10.4991 11.3682 10.2391 11.4759C9.97906 11.5837 9.70037 11.6392 9.4189 11.6392C8.85046 11.6392 8.30531 11.4134 7.90336 11.0115C7.50141 10.6095 7.2756 10.0643 7.2756 9.49591C7.2756 8.92747 7.50141 8.38231 7.90336 7.98036C8.30531 7.57841 8.85046 7.3526 9.4189 7.3526M13.1697 4.85208C12.9328 4.85208 12.7057 4.94617 12.5382 5.11365C12.3707 5.28113 12.2766 5.50828 12.2766 5.74513C12.2766 5.98198 12.3707 6.20912 12.5382 6.3766C12.7057 6.54408 12.9328 6.63817 13.1697 6.63817C13.4065 6.63817 13.6337 6.54408 13.8012 6.3766C13.9686 6.20912 14.0627 5.98198 14.0627 5.74513C14.0627 5.50828 13.9686 5.28113 13.8012 5.11365C13.6337 4.94617 13.4065 4.85208 13.1697 4.85208Z" fill="#222222"/>
</svg>
