<svg width="18" height="19" viewBox="0 0 18 19" fill="none" xmlns="http://www.w3.org/2000/svg">
<rect width="17.1464" height="17.1464" transform="translate(0.839844 0.929688)" fill="#F9FCFF"/>
<path d="M5.79914 4.5038C5.79896 4.88276 5.64823 5.24613 5.38013 5.51396C5.11203 5.78179 4.74852 5.93215 4.36956 5.93196C3.9906 5.93177 3.62724 5.78104 3.35941 5.51295C3.09158 5.24485 2.94122 4.88133 2.94141 4.50237C2.9416 4.12341 3.09232 3.76005 3.36042 3.49222C3.62852 3.22439 3.99203 3.07403 4.37099 3.07422C4.74995 3.07441 5.11331 3.22513 5.38114 3.49323C5.64897 3.76133 5.79933 4.12484 5.79914 4.5038ZM5.84201 6.99003H2.98427V15.9348H5.84201V6.99003ZM10.3572 6.99003H7.51379V15.9348H10.3287V11.2409C10.3287 8.62609 13.7365 8.38318 13.7365 11.2409V15.9348H16.5585V10.2693C16.5585 5.86123 11.5146 6.02555 10.3287 8.19028L10.3572 6.99003Z" fill="#222222"/>
</svg>
