<svg width="51" height="51" viewBox="0 0 51 51" fill="none" xmlns="http://www.w3.org/2000/svg">
<path d="M42.2277 25.0743C42.1415 15.6747 34.4721 8.14469 25.0725 8.23086C15.6729 8.31704 8.14292 15.9864 8.2291 25.386C8.31528 34.7856 15.9846 42.3156 25.3842 42.2294C34.7838 42.1433 42.3138 34.4739 42.2277 25.0743ZM10.229 25.3677C10.1529 17.068 16.7912 10.3069 25.0909 10.2308C33.3905 10.1547 40.1517 16.793 40.2278 25.0926C40.3038 33.3923 33.6656 40.1534 25.3659 40.2295C17.0663 40.3056 10.3051 33.6673 10.229 25.3677Z" fill="white"/>
<path d="M27.0038 33.5147L18.6281 25.2911L26.8516 16.9154L25.4388 15.5283L15.8282 25.3168L25.6167 34.9274L27.0038 33.5147Z" fill="white"/>
<path d="M17.2197 24.3047L17.2381 26.3046L34.2373 26.1487L34.219 24.1488L17.2197 24.3047Z" fill="white"/>
</svg>
