<svg width="100" height="100" viewBox="0 0 100 100" fill="none" xmlns="http://www.w3.org/2000/svg">
<circle cx="50" cy="50" r="50" fill="white"/>
<path d="M52.4993 25.5C43.0743 25.5 35.4743 32.875 34.9993 42.15L30.1993 48.475C29.5993 49.25 30.1993 50.5 31.2493 50.5H34.9993V58C34.9993 60.775 37.2243 63 39.9993 63H42.4993V70.5H59.9993V58.775C65.9243 55.975 69.9993 50 69.9993 43C69.9993 33.35 62.1993 25.5 52.4993 25.5ZM54.9993 53H49.9993V50.5H54.9993V53ZM58.9993 41.75C58.3335 42.8742 57.3855 43.8049 56.2493 44.45V48H48.7493V44.45C45.1743 42.375 43.9243 37.8 45.9993 34.25C48.0743 30.7 52.6743 29.4 56.2493 31.45C59.8243 33.5 61.0743 38.125 58.9993 41.75Z" fill="#E1114C"/>
</svg>
