<svg width="89" height="18" viewBox="0 0 89 18" fill="none" xmlns="http://www.w3.org/2000/svg">
<path d="M9 0L11.0206 6.21885H17.5595L12.2694 10.0623L14.2901 16.2812L9 12.4377L3.70993 16.2812L5.73056 10.0623L0.440492 6.21885H6.97937L9 0Z" fill="#FABF6B"/>
<path d="M27 0L29.0206 6.21885H35.5595L30.2694 10.0623L32.2901 16.2812L27 12.4377L21.7099 16.2812L23.7306 10.0623L18.4405 6.21885H24.9794L27 0Z" fill="#FABF6B"/>
<path d="M45 0L47.0206 6.21885H53.5595L48.2694 10.0623L50.2901 16.2812L45 12.4377L39.7099 16.2812L41.7306 10.0623L36.4405 6.21885H42.9794L45 0Z" fill="#FABF6B"/>
<path d="M62 0L64.0206 6.21885H70.5595L65.2694 10.0623L67.2901 16.2812L62 12.4377L56.7099 16.2812L58.7306 10.0623L53.4405 6.21885H59.9794L62 0Z" fill="#FABF6B"/>
<path d="M80 0L82.0206 6.21885H88.5595L83.2694 10.0623L85.2901 16.2812L80 12.4377L74.7099 16.2812L76.7306 10.0623L71.4405 6.21885H77.9794L80 0Z" fill="#FABF6B"/>
</svg>
