<svg width="30" height="30" viewBox="0 0 30 30" fill="none" xmlns="http://www.w3.org/2000/svg">
<g clip-path="url(#clip0_82_522)">
<path fill-rule="evenodd" clip-rule="evenodd" d="M21.1864 0C21.9257 0 22.5257 0.6 22.5257 1.33929V3.09643C22.5257 3.45163 22.3846 3.79228 22.1334 4.04345C21.8823 4.29461 21.5416 4.43571 21.1864 4.43571C20.8312 4.43571 20.4906 4.29461 20.2394 4.04345C19.9882 3.79228 19.8471 3.45163 19.8471 3.09643V1.33929C19.8471 0.6 20.4471 0 21.1864 0ZM8.67214 18.7243C9.36442 18.7383 10.0525 18.6141 10.6962 18.3589C11.3399 18.1037 11.9262 17.7226 12.4207 17.238C12.9153 16.7534 13.3082 16.1749 13.5764 15.5366C13.8446 14.8982 13.9827 14.2128 13.9827 13.5204C13.9827 12.8279 13.8446 12.1425 13.5764 11.5041C13.3082 10.8658 12.9153 10.2873 12.4207 9.80272C11.9262 9.3181 11.3399 8.93702 10.6962 8.68181C10.0525 8.4266 9.36442 8.30238 8.67214 8.31643C7.31026 8.34407 6.01348 8.90448 5.06011 9.87739C4.10673 10.8503 3.57275 12.1582 3.57275 13.5204C3.57275 14.8825 4.10673 16.1904 5.06011 17.1633C6.01348 18.1362 7.31026 18.6966 8.67214 18.7243ZM0 29.1321C0.0357866 26.8555 0.965309 24.6842 2.58796 23.0868C4.21061 21.4895 6.39626 20.5942 8.67321 20.5942C10.9502 20.5942 13.1358 21.4895 14.7585 23.0868C16.3811 24.6842 17.3106 26.8555 17.3464 29.1321C17.3464 29.3623 17.255 29.5831 17.0922 29.7458C16.9295 29.9086 16.7087 30 16.4786 30H0.867857C0.637687 30 0.416944 29.9086 0.254189 29.7458C0.0914347 29.5831 0 29.3623 0 29.1321ZM29.3914 5.34214C29.5387 5.24249 29.6646 5.11451 29.7618 4.96569C29.8591 4.81686 29.9257 4.65016 29.9579 4.47531C29.99 4.30046 29.9871 4.12096 29.9491 3.94727C29.9112 3.77358 29.839 3.60918 29.7369 3.46366C29.6348 3.31814 29.5047 3.19441 29.3542 3.09969C29.2038 3.00497 29.036 2.94115 28.8606 2.91196C28.6853 2.88276 28.5058 2.88877 28.3328 2.92964C28.1598 2.97051 27.9966 3.04542 27.8529 3.15L26.415 4.15929C26.1309 4.36592 25.9394 4.67589 25.8817 5.0224C25.824 5.36891 25.9048 5.72421 26.1066 6.01174C26.3084 6.29927 26.6151 6.496 26.9606 6.55954C27.3061 6.62308 27.6627 6.54834 27.9536 6.35143L29.3914 5.34214ZM12.6493 3.47786C12.4455 3.76836 12.3654 4.12785 12.4265 4.47738C12.4875 4.82692 12.6848 5.13793 12.975 5.34214L14.415 6.35143C14.5588 6.45601 14.7219 6.53092 14.8949 6.57179C15.068 6.61266 15.2474 6.61867 15.4228 6.58947C15.5981 6.56028 15.7659 6.49646 15.9164 6.40174C16.0668 6.30701 16.1969 6.18329 16.2991 6.03777C16.4012 5.89225 16.4733 5.72785 16.5113 5.55416C16.5492 5.38047 16.5522 5.20097 16.52 5.02612C16.4879 4.85127 16.4212 4.68457 16.324 4.53574C16.2267 4.38692 16.1008 4.25894 15.9536 4.15929L14.5136 3.15C14.2231 2.94625 13.8636 2.86612 13.514 2.92719C13.1645 2.98825 12.8535 3.18554 12.6493 3.47571V3.47786ZM21.0857 6.08571C21.72 6.0795 22.3492 6.19848 22.9374 6.43585C23.5255 6.67323 24.0611 7.02432 24.5134 7.46902C24.9656 7.91372 25.3257 8.44328 25.573 9.02737C25.8202 9.61146 25.9498 10.2386 25.9543 10.8729C25.9329 12.63 24.8829 14.3014 23.31 15.0857V17.4707C23.3056 17.6091 23.2478 17.7403 23.1487 17.837C23.0496 17.9337 22.917 17.9882 22.7786 17.9893H19.59C19.4516 17.9882 19.3189 17.9337 19.2199 17.837C19.1208 17.7403 19.063 17.6091 19.0586 17.4707V15.1264C18.3021 14.7411 17.6602 14.1638 17.1972 13.4522C16.7343 12.7406 16.4665 11.9198 16.4207 11.0721C16.3987 10.4382 16.502 9.80613 16.7246 9.21217C16.9473 8.61821 17.285 8.07402 17.7184 7.6108C18.1517 7.14758 18.6723 6.77443 19.2501 6.51272C19.8279 6.25102 20.4517 6.10591 21.0857 6.08571Z" fill="#E1114C"/>
</g>
<defs>
<clipPath id="clip0_82_522">
<rect width="30" height="30" fill="white"/>
</clipPath>
</defs>
</svg>
