<svg width="100" height="100" viewBox="0 0 100 100" fill="none" xmlns="http://www.w3.org/2000/svg">
<circle cx="50" cy="50" r="50" fill="white"/>
<path fill-rule="evenodd" clip-rule="evenodd" d="M33.125 23.75C32.6277 23.75 32.1508 23.9475 31.7992 24.2992C31.4475 24.6508 31.25 25.1277 31.25 25.625V74.375C31.25 74.8723 31.4475 75.3492 31.7992 75.7008C32.1508 76.0525 32.6277 76.25 33.125 76.25H66.875C67.3723 76.25 67.8492 76.0525 68.2008 75.7008C68.5525 75.3492 68.75 74.8723 68.75 74.375V38.75C68.7504 38.5036 68.7023 38.2595 68.6084 38.0318C68.5144 37.804 68.3765 37.5969 68.2025 37.4225L55.0775 24.2975C54.9031 24.1235 54.696 23.9856 54.4682 23.8916C54.2405 23.7977 53.9964 23.7496 53.75 23.75H33.125ZM62.3488 36.875L55.625 30.1513V36.875H62.3488ZM48.125 40.625H38.75V36.875H48.125V40.625ZM61.25 51.875H38.75V48.125H61.25V51.875ZM38.75 63.125H61.25V59.375H38.75V63.125Z" fill="#E1114C"/>
<g clip-path="url(#clip0_571_463)">
<path d="M62 57.4004C67.8314 57.4004 72.5996 62.1686 72.5996 68C72.5996 73.8314 67.8314 78.5996 62 78.5996C56.1686 78.5996 51.4004 73.8314 51.4004 68C51.4004 62.1686 56.1686 57.4004 62 57.4004ZM60.4238 70.5947L60.001 71.0176L59.5762 70.5947L56.4102 67.4375L55.8477 68L60 72.1523L68.1523 63.999L67.5879 63.4297L60.4238 70.5947Z" fill="white" stroke="#E1114C" stroke-width="1.2"/>
</g>
<defs>
<clipPath id="clip0_571_463">
<rect width="24" height="24" fill="white" transform="translate(50 56)"/>
</clipPath>
</defs>
</svg>
