<svg width="26" height="30" viewBox="0 0 26 30" fill="none" xmlns="http://www.w3.org/2000/svg">
<g clip-path="url(#clip0_497_1902)">
<path d="M3.71038 1.875C1.66172 1.875 -0.00390625 3.55664 -0.00390625 5.625V24.375C-0.00390625 26.4434 1.66172 28.125 3.71038 28.125H22.2818C24.3305 28.125 25.9961 26.4434 25.9961 24.375V5.625C25.9961 3.55664 24.3305 1.875 22.2818 1.875H3.71038ZM20.9528 6.79688L14.9287 13.7461L22.0148 23.2031H16.4666L12.1256 17.4668L7.1519 23.2031H4.3952L10.8372 15.7676L4.04118 6.79688H9.72868L13.6577 12.041L18.1961 6.79688H20.9528ZM18.759 21.5391L8.89877 8.37305H7.25636L17.2269 21.5391H18.7532H18.759Z" fill="black"/>
</g>
<defs>
<clipPath id="clip0_497_1902">
<rect width="26" height="30" fill="white" transform="translate(-0.00390625)"/>
</clipPath>
</defs>
</svg>
