<svg width="344" height="427" viewBox="0 0 344 427" fill="none" xmlns="http://www.w3.org/2000/svg">
<path d="M0 90.9141C0 41.2084 40.2944 0.914062 90 0.914062H344V336.914C344 386.62 303.706 426.914 254 426.914H0V90.9141Z" fill="#976924"/>
<circle cx="172.008" cy="107.914" r="50" fill="white"/>
<path d="M174.942 93.7422L178.917 99.3122L181.538 98.4184L183.93 105.417H185.133V120.417H158.883V105.417H159.52V105.405L160.33 105.412L174.942 93.7422ZM168.754 105.417H181.289L179.993 101.626L178.09 102.235L168.754 105.417ZM166.807 103.438L176.445 100.155L174.44 97.3422L166.807 103.438ZM163.883 107.917H161.383V110.417C162.046 110.417 162.682 110.154 163.151 109.685C163.619 109.216 163.883 108.58 163.883 107.917ZM176.383 112.917C176.383 112.343 176.27 111.774 176.05 111.243C175.83 110.712 175.508 110.23 175.101 109.824C174.695 109.417 174.213 109.095 173.682 108.875C173.151 108.655 172.582 108.542 172.008 108.542C171.433 108.542 170.864 108.655 170.334 108.875C169.803 109.095 169.32 109.417 168.914 109.824C168.508 110.23 168.186 110.712 167.966 111.243C167.746 111.774 167.633 112.343 167.633 112.917C167.633 114.078 168.094 115.19 168.914 116.011C169.735 116.831 170.847 117.292 172.008 117.292C173.168 117.292 174.281 116.831 175.101 116.011C175.922 115.19 176.383 114.078 176.383 112.917ZM182.633 117.917V115.417C181.97 115.417 181.334 115.681 180.865 116.149C180.396 116.618 180.133 117.254 180.133 117.917H182.633ZM180.133 107.917C180.133 108.58 180.396 109.216 180.865 109.685C181.334 110.154 181.97 110.417 182.633 110.417V107.917H180.133ZM161.383 117.917H163.883C163.883 117.254 163.619 116.618 163.151 116.149C162.682 115.681 162.046 115.417 161.383 115.417V117.917Z" fill="#E1114C"/>
</svg>
