<svg width="344" height="427" viewBox="0 0 344 427" fill="none" xmlns="http://www.w3.org/2000/svg">
<path d="M0 90.9844C0 41.2787 40.2944 0.984375 90 0.984375H344V336.984C344 386.69 303.706 426.984 254 426.984H0V90.9844Z" fill="#976924"/>
<circle cx="172" cy="131.984" r="50" fill="white"/>
<path d="M186.368 129.17L179.507 122.309C178.153 120.955 176.132 120.691 174.503 121.494L168.257 115.248V111.609L160.757 105.984L157.007 109.734L162.632 117.234H166.271L172.517 123.48C171.72 125.109 171.978 127.131 173.331 128.484L180.192 135.346C181.048 136.201 182.431 136.201 183.28 135.346L186.368 132.258C187.218 131.402 187.218 130.02 186.368 129.17ZM176.442 119.168C178.101 119.168 179.659 119.812 180.831 120.984L181.968 122.121C182.894 121.717 183.772 121.154 184.534 120.393C186.708 118.219 187.446 115.16 186.755 112.383C186.626 111.855 185.964 111.674 185.577 112.061L181.218 116.42L177.239 115.758L176.577 111.779L180.937 107.42C181.323 107.033 181.136 106.371 180.603 106.236C177.825 105.551 174.767 106.289 172.599 108.457C170.929 110.127 170.144 112.33 170.185 114.527L174.995 119.338C175.47 119.227 175.962 119.168 176.442 119.168ZM170.354 123.973L167.032 120.65L158.103 129.586C156.638 131.051 156.638 133.424 158.103 134.889C159.567 136.354 161.94 136.354 163.405 134.889L170.647 127.646C170.202 126.48 170.067 125.209 170.354 123.973ZM160.757 133.641C159.983 133.641 159.351 133.008 159.351 132.234C159.351 131.455 159.978 130.828 160.757 130.828C161.536 130.828 162.163 131.455 162.163 132.234C162.163 133.008 161.536 133.641 160.757 133.641Z" fill="#E1114C"/>
<path d="M176.687 150.984C175.483 150.984 174.318 150.446 173.406 149.47C172.52 148.518 171.978 147.248 171.883 145.896C171.781 144.454 172.221 143.127 173.121 142.16C174.022 141.193 175.281 140.672 176.687 140.672C178.084 140.672 179.346 141.203 180.244 142.167C181.151 143.141 181.592 144.465 181.49 145.896C181.392 147.25 180.851 148.519 179.966 149.47C179.057 150.446 177.893 150.984 176.687 150.984ZM184.412 161.297H168.964C168.715 161.298 168.47 161.243 168.246 161.134C168.023 161.026 167.827 160.868 167.675 160.672C167.513 160.459 167.401 160.213 167.347 159.951C167.294 159.69 167.3 159.419 167.366 159.161C167.86 157.179 169.082 155.537 170.901 154.41C172.515 153.41 174.57 152.859 176.687 152.859C178.847 152.859 180.848 153.387 182.471 154.386C184.294 155.507 185.518 157.159 186.009 159.164C186.074 159.423 186.08 159.693 186.026 159.955C185.972 160.217 185.86 160.463 185.697 160.675C185.545 160.87 185.35 161.027 185.127 161.135C184.904 161.243 184.659 161.298 184.412 161.297ZM165.613 151.219C163.551 151.219 161.738 149.302 161.57 146.946C161.487 145.738 161.863 144.622 162.625 143.804C163.378 142.993 164.441 142.547 165.613 142.547C166.785 142.547 167.84 142.996 168.597 143.811C169.365 144.636 169.74 145.75 169.652 146.947C169.484 149.302 167.672 151.219 165.613 151.219ZM169.46 153.062C168.43 152.558 167.092 152.306 165.614 152.306C163.888 152.306 162.211 152.756 160.893 153.572C159.398 154.5 158.393 155.851 157.987 157.481C157.927 157.716 157.922 157.961 157.97 158.198C158.019 158.435 158.12 158.658 158.267 158.85C158.407 159.029 158.585 159.174 158.789 159.273C158.993 159.372 159.218 159.423 159.444 159.422H165.948C166.058 159.422 166.164 159.383 166.249 159.313C166.333 159.243 166.39 159.145 166.41 159.037C166.416 159 166.424 158.963 166.434 158.927C166.93 156.931 168.095 155.245 169.815 154.015C169.878 153.97 169.929 153.909 169.963 153.839C169.997 153.769 170.013 153.691 170.009 153.613C170.005 153.535 169.982 153.459 169.942 153.393C169.902 153.326 169.845 153.27 169.778 153.231C169.686 153.177 169.581 153.12 169.46 153.062Z" fill="#E1114C"/>
</svg>
