<svg width="344" height="427" viewBox="0 0 344 427" fill="none" xmlns="http://www.w3.org/2000/svg">
<path d="M0 90.9141C0 41.2084 40.2944 0.914062 90 0.914062H344V336.914C344 386.62 303.706 426.914 254 426.914H0V90.9141Z" fill="#E1114C"/>
<circle cx="165" cy="131.984" r="50" fill="white"/>
<path d="M181.11 146.984C180.46 146.318 179.643 145.984 178.693 145.984H167.027L163.56 144.768L164.11 143.201L167.027 144.318H171.693C172.277 144.318 172.743 144.084 173.127 143.701C173.51 143.318 173.693 142.851 173.693 142.334C173.693 141.434 173.26 140.818 172.393 140.468L160.277 135.984H157.027V150.984L168.693 154.318L182.077 149.318C182.093 148.434 181.76 147.651 181.11 146.984ZM153.693 135.984H147V154.318H153.693V135.984Z" fill="#E1114C"/>
<path d="M160.413 120.984C159.063 121.025 157.959 121.549 157.101 122.556H155.426C154.743 122.556 154.168 122.39 153.702 122.059C153.235 121.727 153.002 121.242 153.002 120.604C153.002 117.715 153.519 116.27 154.552 116.27C154.602 116.27 154.783 116.356 155.095 116.528C155.408 116.7 155.814 116.874 156.314 117.05C156.814 117.226 157.309 117.314 157.801 117.314C158.359 117.314 158.913 117.219 159.463 117.031C159.421 117.334 159.401 117.604 159.401 117.842C159.401 118.979 159.738 120.027 160.413 120.984ZM173.797 128.805C173.797 129.787 173.493 130.562 172.885 131.131C172.277 131.7 171.469 131.984 170.461 131.984H159.538C158.53 131.984 157.722 131.7 157.114 131.131C156.505 130.562 156.201 129.787 156.201 128.805C156.201 128.371 156.216 127.947 156.245 127.534C156.274 127.121 156.332 126.675 156.42 126.196C156.507 125.717 156.618 125.273 156.751 124.864C156.884 124.455 157.064 124.056 157.289 123.667C157.513 123.278 157.772 122.947 158.063 122.672C158.355 122.398 158.711 122.179 159.132 122.016C159.553 121.852 160.017 121.77 160.525 121.77C160.609 121.77 160.788 121.858 161.063 122.034C161.338 122.21 161.642 122.406 161.975 122.623C162.308 122.84 162.754 123.037 163.312 123.213C163.87 123.389 164.433 123.477 164.999 123.477C165.566 123.477 166.128 123.389 166.686 123.213C167.245 123.037 167.69 122.84 168.024 122.623C168.357 122.406 168.661 122.21 168.936 122.034C169.211 121.858 169.39 121.77 169.473 121.77C169.982 121.77 170.446 121.852 170.867 122.016C171.287 122.179 171.644 122.398 171.935 122.672C172.227 122.947 172.485 123.278 172.71 123.667C172.935 124.056 173.114 124.455 173.247 124.864C173.381 125.273 173.491 125.717 173.579 126.196C173.666 126.675 173.724 127.121 173.754 127.534C173.783 127.947 173.797 128.371 173.797 128.805ZM161 113.127C161 113.995 160.688 114.735 160.063 115.349C159.438 115.963 158.684 116.27 157.801 116.27C156.918 116.27 156.164 115.963 155.539 115.349C154.914 114.735 154.602 113.995 154.602 113.127C154.602 112.26 154.914 111.519 155.539 110.905C156.164 110.291 156.918 109.984 157.801 109.984C158.684 109.984 159.438 110.291 160.063 110.905C160.688 111.519 161 112.26 161 113.127ZM169.798 117.842C169.798 119.143 169.33 120.254 168.392 121.175C167.455 122.095 166.324 122.556 164.999 122.556C163.675 122.556 162.544 122.095 161.606 121.175C160.669 120.254 160.2 119.143 160.2 117.842C160.2 116.54 160.669 115.429 161.606 114.508C162.544 113.588 163.675 113.127 164.999 113.127C166.324 113.127 167.455 113.588 168.392 114.508C169.33 115.429 169.798 116.54 169.798 117.842ZM176.997 120.604C176.997 121.242 176.763 121.727 176.297 122.059C175.83 122.39 175.255 122.556 174.572 122.556H172.898C172.039 121.549 170.935 121.025 169.586 120.984C170.261 120.027 170.598 118.979 170.598 117.842C170.598 117.604 170.577 117.334 170.536 117.031C171.085 117.219 171.639 117.314 172.198 117.314C172.689 117.314 173.185 117.226 173.685 117.05C174.185 116.874 174.591 116.7 174.903 116.528C175.216 116.356 175.397 116.27 175.447 116.27C176.48 116.27 176.997 117.715 176.997 120.604ZM175.397 113.127C175.397 113.995 175.085 114.735 174.46 115.349C173.835 115.963 173.081 116.27 172.198 116.27C171.315 116.27 170.561 115.963 169.936 115.349C169.311 114.735 168.998 113.995 168.998 113.127C168.998 112.26 169.311 111.519 169.936 110.905C170.561 110.291 171.315 109.984 172.198 109.984C173.081 109.984 173.835 110.291 174.46 110.905C175.085 111.519 175.397 112.26 175.397 113.127Z" fill="#E1114C"/>
</svg>
