<svg width="344" height="427" viewBox="0 0 344 427" fill="none" xmlns="http://www.w3.org/2000/svg">
<path d="M0.00195312 90.9141C0.00195312 41.2084 40.2963 0.914062 90.002 0.914062H344.002V336.914C344.002 386.62 303.708 426.914 254.002 426.914H0.00195312V90.9141Z" fill="#E1114C"/>
<circle cx="172" cy="107.984" r="50" fill="white"/>
<g clip-path="url(#clip0_412_418)">
<path d="M165 108.414C164.379 107.588 163.201 107.418 162.375 108.039C161.549 108.66 161.379 109.838 162 110.664L164.232 113.641C164.514 114.016 164.473 114.537 164.145 114.865L163.395 115.615C163.002 116.008 162.363 115.979 162.012 115.551L156.75 109.234V100.539C156.75 99.502 155.912 98.6641 154.875 98.6641C153.838 98.6641 153 99.502 153 100.539V113.336C153 113.975 153.217 114.596 153.615 115.094L159.715 122.963C160.008 123.344 160.207 123.777 160.324 124.234C160.43 124.639 160.799 124.914 161.221 124.914H168.938C169.453 124.914 169.875 124.492 169.875 123.977V117.414C169.875 115.791 169.348 114.215 168.375 112.914L165 108.414ZM188.625 98.6641C187.588 98.6641 186.75 99.502 186.75 100.539V109.234L181.488 115.551C181.137 115.973 180.492 116.002 180.105 115.615L179.355 114.865C179.027 114.537 178.986 114.016 179.268 113.641L181.5 110.664C182.121 109.838 181.951 108.66 181.125 108.039C180.299 107.418 179.121 107.588 178.5 108.414L175.125 112.914C174.152 114.215 173.625 115.791 173.625 117.414V123.977C173.625 124.492 174.047 124.914 174.562 124.914H182.279C182.695 124.914 183.07 124.639 183.176 124.234C183.293 123.777 183.492 123.344 183.785 122.963L189.885 115.094C190.283 114.596 190.5 113.975 190.5 113.336V100.539C190.5 99.502 189.662 98.6641 188.625 98.6641Z" fill="#E1114C"/>
</g>
<g clip-path="url(#clip1_412_418)">
<path d="M173.25 108.109H170.75C170.584 108.109 170.425 108.175 170.308 108.292C170.191 108.41 170.125 108.569 170.125 108.734C170.125 108.9 170.191 109.059 170.308 109.176C170.425 109.294 170.584 109.359 170.75 109.359H173.25C173.416 109.359 173.575 109.294 173.692 109.176C173.809 109.059 173.875 108.9 173.875 108.734C173.875 108.569 173.809 108.41 173.692 108.292C173.575 108.175 173.416 108.109 173.25 108.109ZM173.875 106.234H170.125C169.959 106.234 169.8 106.3 169.683 106.417C169.566 106.535 169.5 106.694 169.5 106.859C169.5 107.025 169.566 107.184 169.683 107.301C169.8 107.419 169.959 107.484 170.125 107.484H173.875C174.041 107.484 174.2 107.419 174.317 107.301C174.434 107.184 174.5 107.025 174.5 106.859C174.5 106.694 174.434 106.535 174.317 106.417C174.2 106.3 174.041 106.234 173.875 106.234ZM176.43 92.4332C175.256 91.257 173.682 90.6094 172 90.6094C171.179 90.6074 170.365 90.7678 169.606 91.0812C168.847 91.3946 168.157 91.8549 167.576 92.4356C166.995 93.0164 166.535 93.7061 166.222 94.4653C165.908 95.2245 165.748 96.0381 165.75 96.8594C165.75 98.6805 166.448 100.384 167.664 101.533L167.834 101.693C168.538 102.35 169.5 103.252 169.5 104.047V104.984C169.5 105.15 169.566 105.309 169.683 105.426C169.8 105.544 169.959 105.609 170.125 105.609H171.063C171.145 105.609 171.225 105.576 171.283 105.518C171.342 105.459 171.375 105.38 171.375 105.297V100.72C171.375 100.656 171.356 100.595 171.32 100.543C171.284 100.49 171.234 100.45 171.175 100.428C170.814 100.281 170.471 100.092 170.153 99.8672C170.081 99.8216 170.02 99.7618 169.972 99.6917C169.924 99.6215 169.892 99.5424 169.875 99.4591C169.859 99.3758 169.86 99.2901 169.878 99.2073C169.897 99.1244 169.931 99.0461 169.981 98.9771C170.03 98.9081 170.093 98.8498 170.165 98.8059C170.238 98.7619 170.319 98.7332 170.403 98.7215C170.487 98.7097 170.572 98.7152 170.654 98.7376C170.736 98.7599 170.812 98.7987 170.879 98.8516C171.168 99.0563 171.724 99.3594 172 99.3594C172.276 99.3594 172.832 99.0555 173.122 98.8516C173.257 98.7667 173.42 98.7367 173.576 98.7675C173.732 98.7984 173.871 98.8878 173.964 99.0176C174.056 99.1473 174.096 99.3076 174.074 99.4655C174.053 99.6234 173.971 99.7671 173.847 99.8672C173.529 100.092 173.186 100.28 172.825 100.427C172.766 100.449 172.716 100.489 172.68 100.541C172.644 100.593 172.625 100.655 172.625 100.718V105.297C172.625 105.38 172.658 105.459 172.717 105.518C172.775 105.576 172.855 105.609 172.938 105.609H173.875C174.041 105.609 174.2 105.544 174.317 105.426C174.434 105.309 174.5 105.15 174.5 104.984V104.047C174.5 103.27 175.452 102.37 176.147 101.712L176.338 101.53C177.589 100.336 178.25 98.7192 178.25 96.8594C178.254 96.038 178.095 95.2239 177.783 94.4642C177.471 93.7045 177.011 93.0142 176.43 92.4332Z" fill="#E1114C"/>
</g>
<defs>
<clipPath id="clip0_412_418">
<rect width="37.5" height="30" fill="white" transform="translate(153 94.9141)"/>
</clipPath>
<clipPath id="clip1_412_418">
<rect width="20" height="20" fill="white" transform="translate(162 89.9844)"/>
</clipPath>
</defs>
</svg>
