<svg width="344" height="427" viewBox="0 0 344 427" fill="none" xmlns="http://www.w3.org/2000/svg">
<path d="M0 90.9141C0 41.2084 40.2944 0.914062 90 0.914062H344V336.914C344 386.62 303.706 426.914 254 426.914H0V90.9141Z" fill="#FABF6B"/>
<circle cx="175" cy="131.914" r="50" fill="white"/>
<path d="M186.489 135.533L181 130.044C179.918 128.961 178.3 128.75 176.997 129.392L172 124.395V121.484L166 116.984L163 119.984L167.5 125.984H170.411L175.408 130.981C174.771 132.284 174.977 133.902 176.06 134.984L181.549 140.473C182.233 141.158 183.339 141.158 184.019 140.473L186.489 138.003C187.169 137.319 187.169 136.213 186.489 135.533ZM178.549 127.531C179.875 127.531 181.122 128.047 182.06 128.984L182.969 129.894C183.71 129.57 184.413 129.12 185.022 128.511C186.761 126.772 187.352 124.325 186.799 122.103C186.696 121.681 186.166 121.536 185.857 121.845L182.369 125.333L179.186 124.803L178.657 121.62L182.144 118.133C182.454 117.823 182.304 117.294 181.877 117.186C179.655 116.638 177.208 117.228 175.474 118.963C174.138 120.298 173.51 122.061 173.543 123.819L177.391 127.667C177.771 127.578 178.164 127.531 178.549 127.531ZM173.679 131.375L171.021 128.717L163.877 135.866C162.705 137.037 162.705 138.936 163.877 140.108C165.049 141.28 166.947 141.28 168.119 140.108L173.913 134.314C173.557 133.381 173.449 132.364 173.679 131.375ZM166 139.109C165.382 139.109 164.875 138.603 164.875 137.984C164.875 137.361 165.377 136.859 166 136.859C166.624 136.859 167.125 137.361 167.125 137.984C167.125 138.603 166.624 139.109 166 139.109Z" fill="#E1114C"/>
<path d="M189.173 152.584C188.617 152.003 187.918 151.712 187.106 151.712H177.128L174.163 150.65L174.633 149.283L177.128 150.257H181.119C181.618 150.257 182.017 150.053 182.345 149.719C182.673 149.384 182.83 148.977 182.83 148.526C182.83 147.741 182.459 147.203 181.718 146.897L171.355 142.984H168.575V156.075L178.553 158.984L189.999 154.621C190.014 153.85 189.729 153.166 189.173 152.584ZM165.725 142.984H160V158.984H165.725V142.984Z" fill="#E1114C"/>
</svg>
