<svg width="344" height="427" viewBox="0 0 344 427" fill="none" xmlns="http://www.w3.org/2000/svg">
<path d="M0 90.9141C0 41.2084 40.2944 0.914062 90 0.914062H344V336.914C344 386.62 303.706 426.914 254 426.914H0V90.9141Z" fill="#FABF6B"/>
<circle cx="179" cy="107.914" r="50" fill="white"/>
<path d="M183.636 97C177.516 97 172.58 101.261 172.272 106.62L169.155 110.274C168.765 110.722 169.155 111.444 169.837 111.444H172.272V115.778C172.272 117.381 173.717 118.667 175.519 118.667H177.142V123H188.506V116.226C192.354 114.608 195 111.156 195 107.111C195 101.536 189.935 97 183.636 97ZM185.259 112.889H182.012V111.444H185.259V112.889ZM187.857 106.389C187.424 107.038 186.809 107.576 186.071 107.949V110H181.201V107.949C178.879 106.75 178.067 104.107 179.415 102.056C180.762 100.004 183.75 99.2533 186.071 100.438C188.393 101.622 189.204 104.294 187.857 106.389Z" fill="#E1114C"/>
</svg>
